InterAlia-ThinItalic.ufo
<glyph name="exclam" format="2">
  <advance height="2479" width="535"/>
  <unicode hex="0021"/>
  <outline>
    <contour>
      <point x="445" y="1489" type="line"/>
      <point x="399" y="1489" type="line"/>
      <point x="224" y="442" type="line"/>
      <point x="271" y="442" type="line"/>
    </contour>
    <component base="period" xOffset="9"/>
  </outline>
</glyph>
<glyph name="percent" format="2">
  <advance height="2479" width="1583"/>
  <unicode hex="0025"/>
  <anchor x="1059" y="791" name="dnom"/>
  <anchor x="593" y="698" name="numr"/>
  <outline>
    <contour>
      <point x="884" y="271" type="line" smooth="yes"/>
      <point x="855" y="96"/>
      <point x="943" y="-20"/>
      <point x="1079" y="-20" type="curve" smooth="yes"/>
      <point x="1219" y="-20"/>
      <point x="1344" y="96"/>
      <point x="1373" y="271" type="curve" smooth="yes"/>
      <point x="1379" y="317" type="line" smooth="yes"/>
      <point x="1408" y="492"/>
      <point x="1321" y="608"/>
      <point x="1184" y="608" type="curve" smooth="yes"/>
      <point x="1044" y="608"/>
      <point x="919" y="492"/>
      <point x="890" y="317" type="curve" smooth="yes"/>
    </contour>
    <contour>
      <point x="937" y="317" type="line" smooth="yes"/>
      <point x="963" y="465"/>
      <point x="1065" y="561"/>
      <point x="1175" y="561" type="curve" smooth="yes"/>
      <point x="1286" y="561"/>
      <point x="1359" y="465"/>
      <point x="1332" y="317" type="curve" smooth="yes"/>
      <point x="1327" y="271" type="line" smooth="yes"/>
      <point x="1300" y="122"/>
      <point x="1199" y="26"/>
      <point x="1088" y="26" type="curve" smooth="yes"/>
      <point x="975" y="26"/>
      <point x="905" y="122"/>
      <point x="931" y="271" type="curve" smooth="yes"/>
    </contour>
    <contour>
      <point x="265" y="1172" type="line" smooth="yes"/>
      <point x="236" y="998"/>
      <point x="323" y="881"/>
      <point x="460" y="881" type="curve" smooth="yes"/>
      <point x="599" y="881"/>
      <point x="724" y="998"/>
      <point x="753" y="1172" type="curve" smooth="yes"/>
      <point x="762" y="1219" type="line" smooth="yes"/>
      <point x="788" y="1393"/>
      <point x="704" y="1510"/>
      <point x="564" y="1510" type="curve" smooth="yes"/>
      <point x="428" y="1510"/>
      <point x="300" y="1393"/>
      <point x="273" y="1219" type="curve" smooth="yes"/>
    </contour>
    <contour>
      <point x="320" y="1219" type="line" smooth="yes"/>
      <point x="343" y="1367"/>
      <point x="445" y="1463"/>
      <point x="556" y="1463" type="curve" smooth="yes"/>
      <point x="669" y="1463"/>
      <point x="739" y="1367"/>
      <point x="716" y="1219" type="curve" smooth="yes"/>
      <point x="707" y="1172" type="line" smooth="yes"/>
      <point x="681" y="1024"/>
      <point x="579" y="928"/>
      <point x="468" y="928" type="curve" smooth="yes"/>
      <point x="358" y="928"/>
      <point x="285" y="1024"/>
      <point x="311" y="1172" type="curve" smooth="yes"/>
    </contour>
    <component base="fraction" xOffset="512"/>
  </outline>
</glyph>
<glyph name="ampersand" format="2">
  <advance height="2479" width="1241"/>
  <unicode hex="0026"/>
  <outline>
    <contour>
      <point x="455" y="-20" type="curve" smooth="yes"/>
      <point x="600" y="-20"/>
      <point x="756" y="47"/>
      <point x="876" y="148" type="curve" smooth="yes"/>
      <point x="891" y="161"/>
      <point x="904" y="176"/>
      <point x="917" y="192" type="curve" smooth="yes"/>
      <point x="993" y="285"/>
      <point x="1070" y="410"/>
      <point x="1112" y="535" type="curve"/>
      <point x="1065" y="541" type="line"/>
      <point x="965" y="241"/>
      <point x="743" y="33"/>
      <point x="452" y="26" type="curve" smooth="yes"/>
      <point x="241" y="21"/>
      <point x="116" y="180"/>
      <point x="146" y="372" type="curve" smooth="yes"/>
      <point x="165" y="492"/>
      <point x="241" y="578"/>
      <point x="443" y="713" type="curve" smooth="yes"/>
      <point x="687" y="876" type="line" smooth="yes"/>
      <point x="860" y="991"/>
      <point x="935" y="1088"/>
      <point x="955" y="1207" type="curve" smooth="yes"/>
      <point x="983" y="1382"/>
      <point x="880" y="1510"/>
      <point x="711" y="1510" type="curve" smooth="yes"/>
      <point x="540" y="1510"/>
      <point x="369" y="1364"/>
      <point x="341" y="1196" type="curve" smooth="yes"/>
      <point x="322" y="1082"/>
      <point x="382" y="996"/>
      <point x="489" y="823" type="curve" smooth="yes"/>
      <point x="1004" y="0" type="line"/>
      <point x="1063" y="0" type="line"/>
      <point x="530" y="852" type="line" smooth="yes"/>
      <point x="423" y="1025"/>
      <point x="372" y="1100"/>
      <point x="388" y="1196" type="curve" smooth="yes"/>
      <point x="410" y="1338"/>
      <point x="569" y="1463"/>
      <point x="713" y="1463" type="curve" smooth="yes"/>
      <point x="857" y="1463"/>
      <point x="932" y="1356"/>
      <point x="908" y="1207" type="curve" smooth="yes"/>
      <point x="892" y="1102"/>
      <point x="825" y="1020"/>
      <point x="664" y="913" type="curve" smooth="yes"/>
      <point x="420" y="751" type="line" smooth="yes"/>
      <point x="205" y="607"/>
      <point x="123" y="506"/>
      <point x="100" y="372" type="curve" smooth="yes"/>
      <point x="62" y="155"/>
      <point x="219" y="-20"/>
    </contour>
  </outline>
</glyph>
<glyph name="quotesingle" format="2">
  <advance height="2479" width="256"/>
  <unicode hex="0027"/>
  <outline>
    <contour>
      <point x="308" y="1489" type="line"/>
      <point x="256" y="1489" type="line"/>
      <point x="186" y="1024" type="line"/>
      <point x="221" y="1024" type="line"/>
    </contour>
  </outline>
</glyph>
<glyph name="plus" format="2">
  <advance height="2479" width="1303"/>
  <unicode hex="002B"/>
  <outline>
    <contour>
      <point x="561" y="160" type="line"/>
      <point x="608" y="160" type="line"/>
      <point x="748" y="1004" type="line"/>
      <point x="701" y="1004" type="line"/>
    </contour>
    <contour>
      <point x="230" y="559" type="line"/>
      <point x="1073" y="559" type="line"/>
      <point x="1082" y="605" type="line"/>
      <point x="239" y="605" type="line"/>
    </contour>
  </outline>
</glyph>
<glyph name="comma" format="2">
  <advance height="2479" width="527"/>
  <unicode hex="002C"/>
  <outline>
    <contour>
      <point x="265" y="204" type="line"/>
      <point x="215" y="204" type="line"/>
      <point x="186" y="122" type="line" smooth="yes"/>
      <point x="116" y="-74"/>
      <point x="55" y="-253"/>
      <point x="17" y="-364" type="curve"/>
      <point x="55" y="-364" type="line"/>
      <point x="108" y="-253"/>
      <point x="181" y="-13"/>
      <point x="236" y="128" type="curve" smooth="yes"/>
    </contour>
  </outline>
</glyph>
<glyph name="hyphen" format="2">
  <advance height="2479" width="899"/>
  <unicode hex="002D"/>
  <outline>
    <contour>
      <point x="745" y="662" type="line"/>
      <point x="189" y="662" type="line"/>
      <point x="180" y="615" type="line"/>
      <point x="736" y="615" type="line"/>
    </contour>
  </outline>
</glyph>
<glyph name="zero" format="2">
  <advance height="2479" width="1210"/>
  <unicode hex="0030"/>
  <outline>
    <contour>
      <point x="506" y="-20" type="curve" smooth="yes"/>
      <point x="790" y="-20"/>
      <point x="1012" y="271"/>
      <point x="1091" y="745" type="curve" smooth="yes"/>
      <point x="1169" y="1219"/>
      <point x="1043" y="1510"/>
      <point x="759" y="1510" type="curve" smooth="yes"/>
      <point x="476" y="1510"/>
      <point x="256" y="1217"/>
      <point x="177" y="745" type="curve" smooth="yes"/>
      <point x="99" y="269"/>
      <point x="223" y="-20"/>
    </contour>
    <contour>
      <point x="509" y="26" type="curve" smooth="yes"/>
      <point x="249" y="26"/>
      <point x="151" y="308"/>
      <point x="224" y="745" type="curve" smooth="yes"/>
      <point x="300" y="1204"/>
      <point x="508" y="1463"/>
      <point x="759" y="1463" type="curve" smooth="yes"/>
      <point x="1017" y="1463"/>
      <point x="1116" y="1180"/>
      <point x="1044" y="745" type="curve" smooth="yes"/>
      <point x="968" y="284"/>
      <point x="758" y="26"/>
    </contour>
  </outline>
</glyph>
<glyph name="eight" format="2">
  <advance height="2479" width="1233"/>
  <unicode hex="0038"/>
  <outline>
    <contour>
      <point x="521" y="-20" type="curve" smooth="yes"/>
      <point x="777" y="-20"/>
      <point x="1012" y="160"/>
      <point x="1050" y="384" type="curve" smooth="yes"/>
      <point x="1079" y="561"/>
      <point x="977" y="727"/>
      <point x="800" y="768" type="curve"/>
      <point x="800" y="774" type="line"/>
      <point x="966" y="826"/>
      <point x="1097" y="969"/>
      <point x="1126" y="1132" type="curve" smooth="yes"/>
      <point x="1161" y="1344"/>
      <point x="1001" y="1510"/>
      <point x="774" y="1510" type="curve" smooth="yes"/>
      <point x="547" y="1510"/>
      <point x="335" y="1344"/>
      <point x="300" y="1132" type="curve" smooth="yes"/>
      <point x="271" y="969"/>
      <point x="358" y="826"/>
      <point x="503" y="774" type="curve"/>
      <point x="503" y="768" type="line"/>
      <point x="314" y="727"/>
      <point x="154" y="561"/>
      <point x="125" y="384" type="curve" smooth="yes"/>
      <point x="87" y="160"/>
      <point x="265" y="-20"/>
    </contour>
    <contour>
      <point x="518" y="26" type="curve" smooth="yes"/>
      <point x="285" y="26"/>
      <point x="140" y="189"/>
      <point x="172" y="387" type="curve" smooth="yes"/>
      <point x="204" y="585"/>
      <point x="431" y="748"/>
      <point x="663" y="748" type="curve" smooth="yes"/>
      <point x="896" y="748"/>
      <point x="1036" y="585"/>
      <point x="1004" y="387" type="curve" smooth="yes"/>
      <point x="972" y="189"/>
      <point x="751" y="26"/>
    </contour>
    <contour>
      <point x="643" y="788" type="curve" smooth="yes"/>
      <point x="442" y="788"/>
      <point x="314" y="945"/>
      <point x="346" y="1132" type="curve" smooth="yes"/>
      <point x="375" y="1318"/>
      <point x="576" y="1463"/>
      <point x="777" y="1463" type="curve" smooth="yes"/>
      <point x="980" y="1463"/>
      <point x="1108" y="1318"/>
      <point x="1079" y="1132" type="curve" smooth="yes"/>
      <point x="1047" y="945"/>
      <point x="844" y="788"/>
    </contour>
  </outline>
</glyph>
<glyph name="equal" format="2">
  <advance height="2479" width="1303"/>
  <unicode hex="003D"/>
  <outline>
    <contour>
      <point x="337" y="753" type="line"/>
      <point x="1030" y="753" type="line"/>
      <point x="1039" y="800" type="line"/>
      <point x="346" y="800" type="line"/>
    </contour>
    <contour>
      <point x="273" y="364" type="line"/>
      <point x="966" y="364" type="line"/>
      <point x="975" y="410" type="line"/>
      <point x="282" y="410" type="line"/>
    </contour>
  </outline>
</glyph>
<glyph name="at" format="2">
  <advance height="2479" width="1917"/>
  <unicode hex="0040"/>
  <outline>
    <contour>
      <point x="803" y="-396" type="curve" smooth="yes"/>
      <point x="972" y="-396"/>
      <point x="1143" y="-343"/>
      <point x="1297" y="-244" type="curve"/>
      <point x="1274" y="-207" type="line"/>
      <point x="1129" y="-300"/>
      <point x="963" y="-349"/>
      <point x="803" y="-349" type="curve" smooth="yes"/>
      <point x="355" y="-349"/>
      <point x="61" y="38"/>
      <point x="143" y="518" type="curve" smooth="yes"/>
      <point x="221" y="998"/>
      <point x="657" y="1385"/>
      <point x="1105" y="1385" type="curve" smooth="yes"/>
      <point x="1551" y="1385"/>
      <point x="1841" y="998"/>
      <point x="1763" y="518" type="curve" smooth="yes"/>
      <point x="1722" y="279"/>
      <point x="1559" y="102"/>
      <point x="1382" y="102" type="curve" smooth="yes"/>
      <point x="1295" y="102"/>
      <point x="1280" y="137"/>
      <point x="1303" y="279" type="curve" smooth="yes"/>
      <point x="1423" y="992" type="line"/>
      <point x="1376" y="992" type="line"/>
      <point x="1335" y="753" type="line"/>
      <point x="1329" y="753" type="line"/>
      <point x="1286" y="902"/>
      <point x="1167" y="1001"/>
      <point x="1012" y="1001" type="curve" smooth="yes"/>
      <point x="783" y="1001"/>
      <point x="564" y="785"/>
      <point x="521" y="518" type="curve" smooth="yes"/>
      <point x="474" y="250"/>
      <point x="623" y="35"/>
      <point x="852" y="35" type="curve" smooth="yes"/>
      <point x="1007" y="35"/>
      <point x="1158" y="134"/>
      <point x="1251" y="279" type="curve"/>
      <point x="1257" y="279" type="line"/>
      <point x="1231" y="113"/>
      <point x="1260" y="55"/>
      <point x="1376" y="55" type="curve" smooth="yes"/>
      <point x="1583" y="55"/>
      <point x="1766" y="253"/>
      <point x="1809" y="518" type="curve" smooth="yes"/>
      <point x="1891" y="1024"/>
      <point x="1577" y="1431"/>
      <point x="1105" y="1431" type="curve" smooth="yes"/>
      <point x="631" y="1431"/>
      <point x="177" y="1024"/>
      <point x="96" y="518" type="curve" smooth="yes"/>
      <point x="12" y="15"/>
      <point x="329" y="-396"/>
    </contour>
    <contour>
      <point x="852" y="81" type="curve" smooth="yes"/>
      <point x="652" y="81"/>
      <point x="527" y="276"/>
      <point x="567" y="518" type="curve" smooth="yes"/>
      <point x="605" y="759"/>
      <point x="812" y="954"/>
      <point x="1012" y="954" type="curve" smooth="yes"/>
      <point x="1213" y="954"/>
      <point x="1335" y="759"/>
      <point x="1297" y="518" type="curve" smooth="yes"/>
      <point x="1257" y="276"/>
      <point x="1053" y="81"/>
    </contour>
  </outline>
</glyph>
<glyph name="B" format="2">
  <advance height="2479" width="1312"/>
  <unicode hex="0042"/>
  <anchor x="544" y="0" name="bottom"/>
  <anchor x="806" y="1676" name="top"/>
  <outline>
    <contour>
      <point x="140" y="0" type="line"/>
      <point x="655" y="0" type="line" smooth="yes"/>
      <point x="911" y="0"/>
      <point x="1088" y="151"/>
      <point x="1126" y="381" type="curve" smooth="yes"/>
      <point x="1161" y="588"/>
      <point x="1062" y="739"/>
      <point x="902" y="753" type="curve"/>
      <point x="902" y="759" type="line"/>
      <point x="1053" y="797"/>
      <point x="1158" y="937"/>
      <point x="1187" y="1111" type="curve" smooth="yes"/>
      <point x="1228" y="1347"/>
      <point x="1103" y="1489"/>
      <point x="852" y="1489" type="curve" smooth="yes"/>
      <point x="387" y="1489" type="line"/>
    </contour>
    <contour>
      <point x="195" y="47" type="line"/>
      <point x="308" y="733" type="line"/>
      <point x="777" y="733" type="line" smooth="yes"/>
      <point x="986" y="733"/>
      <point x="1114" y="588"/>
      <point x="1079" y="381" type="curve" smooth="yes"/>
      <point x="1044" y="180"/>
      <point x="881" y="47"/>
      <point x="663" y="47" type="curve" smooth="yes"/>
    </contour>
    <contour>
      <point x="317" y="780" type="line"/>
      <point x="425" y="1443" type="line"/>
      <point x="844" y="1443" type="line" smooth="yes"/>
      <point x="1062" y="1443"/>
      <point x="1175" y="1324"/>
      <point x="1140" y="1111" type="curve" smooth="yes"/>
      <point x="1111" y="934"/>
      <point x="986" y="780"/>
      <point x="785" y="780" type="curve" smooth="yes"/>
    </contour>
  </outline>
</glyph>
<glyph name="C" format="2">
  <advance height="2479" width="1481"/>
  <unicode hex="0043"/>
  <anchor x="669" y="0" name="cedilla"/>
  <anchor x="948" y="1676" name="top"/>
  <outline>
    <contour>
      <point x="1408" y="1024" type="line"/>
      <point x="1408" y="1236"/>
      <point x="1271" y="1510"/>
      <point x="919" y="1510" type="curve" smooth="yes"/>
      <point x="553" y="1510"/>
      <point x="252" y="1201"/>
      <point x="177" y="745" type="curve" smooth="yes"/>
      <point x="100" y="288"/>
      <point x="300" y="-20"/>
      <point x="666" y="-20" type="curve" smooth="yes"/>
      <point x="1017" y="-20"/>
      <point x="1246" y="256"/>
      <point x="1318" y="465" type="curve"/>
      <point x="1268" y="465" type="line"/>
      <point x="1198" y="265"/>
      <point x="978" y="26"/>
      <point x="675" y="26" type="curve" smooth="yes"/>
      <point x="369" y="26"/>
      <point x="145" y="276"/>
      <point x="224" y="745" type="curve" smooth="yes"/>
      <point x="300" y="1207"/>
      <point x="607" y="1463"/>
      <point x="911" y="1463" type="curve" smooth="yes"/>
      <point x="1216" y="1463"/>
      <point x="1356" y="1222"/>
      <point x="1359" y="1024" type="curve"/>
    </contour>
  </outline>
</glyph>
<glyph name="F" format="2">
  <advance height="2479" width="1199"/>
  <unicode hex="0046"/>
  <anchor x="419" y="12" name="bottom"/>
  <anchor x="233" y="410" name="cross"/>
  <anchor x="820" y="1676" name="top"/>
  <outline>
    <contour>
      <point x="140" y="0" type="line"/>
      <point x="186" y="0" type="line"/>
      <point x="305" y="721" type="line"/>
      <point x="989" y="721" type="line"/>
      <point x="998" y="768" type="line"/>
      <point x="314" y="768" type="line"/>
      <point x="425" y="1443" type="line"/>
      <point x="1178" y="1443" type="line"/>
      <point x="1187" y="1489" type="line"/>
      <point x="387" y="1489" type="line"/>
    </contour>
  </outline>
</glyph>
<glyph name="G" format="2">
  <advance height="2479" width="1513"/>
  <unicode hex="0047"/>
  <anchor x="660" y="0" name="bottom"/>
  <anchor x="940" y="1676" name="top"/>
  <outline>
    <contour>
      <point x="1361" y="1024" type="curve"/>
      <point x="1408" y="1024" type="line"/>
      <point x="1409" y="1236"/>
      <point x="1272" y="1510"/>
      <point x="919" y="1510" type="curve" smooth="yes"/>
      <point x="553" y="1510"/>
      <point x="252" y="1201"/>
      <point x="177" y="745" type="curve" smooth="yes"/>
      <point x="100" y="288"/>
      <point x="294" y="-20"/>
      <point x="672" y="-20" type="curve" smooth="yes"/>
      <point x="1007" y="-20"/>
      <point x="1288" y="221"/>
      <point x="1356" y="628" type="curve" smooth="yes"/>
      <point x="1364" y="675" type="line"/>
      <point x="803" y="675" type="line"/>
      <point x="794" y="628" type="line"/>
      <point x="1329" y="628" type="line"/>
      <point x="1312" y="646" type="line"/>
      <point x="1254" y="261"/>
      <point x="987" y="26"/>
      <point x="681" y="26" type="curve" smooth="yes"/>
      <point x="321" y="26"/>
      <point x="151" y="311"/>
      <point x="224" y="745" type="curve" smooth="yes"/>
      <point x="302" y="1205"/>
      <point x="608" y="1463"/>
      <point x="911" y="1463" type="curve" smooth="yes"/>
      <point x="1229" y="1463"/>
      <point x="1361" y="1233"/>
    </contour>
  </outline>
</glyph>
<glyph name="J" format="2">
  <advance height="2479" width="1066"/>
  <unicode hex="004A"/>
  <anchor x="864" y="884" name="cross"/>
  <anchor x="995" y="1676" name="top"/>
  <outline>
    <contour>
      <point x="940" y="1489" type="line"/>
      <point x="759" y="396" type="line" smooth="yes"/>
      <point x="713" y="119"/>
      <point x="548" y="26"/>
      <point x="384" y="26" type="curve" smooth="yes"/>
      <point x="207" y="26"/>
      <point x="87" y="134"/>
      <point x="111" y="279" type="curve"/>
      <point x="64" y="279" type="line"/>
      <point x="36" y="108"/>
      <point x="172" y="-20"/>
      <point x="375" y="-20" type="curve" smooth="yes"/>
      <point x="567" y="-20"/>
      <point x="755" y="93"/>
      <point x="806" y="396" type="curve" smooth="yes"/>
      <point x="986" y="1489" type="line"/>
    </contour>
  </outline>
</glyph>
<glyph name="K" format="2">
  <advance height="2479" width="1263"/>
  <unicode hex="004B"/>
  <anchor x="541" y="0" name="bottom"/>
  <anchor x="823" y="1676" name="top"/>
  <outline>
    <contour>
      <point x="140" y="0" type="line"/>
      <point x="186" y="0" type="line"/>
      <point x="268" y="486" type="line"/>
      <point x="532" y="733" type="line"/>
      <point x="1030" y="0" type="line"/>
      <point x="1091" y="0" type="line"/>
      <point x="570" y="768" type="line"/>
      <point x="1347" y="1489" type="line"/>
      <point x="1283" y="1489" type="line"/>
      <point x="285" y="561" type="line"/>
      <point x="279" y="561" type="line"/>
      <point x="433" y="1489" type="line"/>
      <point x="387" y="1489" type="line"/>
    </contour>
  </outline>
</glyph>
<glyph name="O" format="2">
  <advance height="2479" width="1530"/>
  <unicode hex="004F"/>
  <anchor x="672" y="0" name="bottom"/>
  <anchor x="710" y="0" name="ogonek"/>
  <anchor x="372" y="1489" name="tonos"/>
  <anchor x="945" y="1676" name="top"/>
  <outline>
    <contour>
      <point x="1411" y="745" type="curve" smooth="yes"/>
      <point x="1489" y="1202"/>
      <point x="1287" y="1510"/>
      <point x="922" y="1510" type="curve" smooth="yes"/>
      <point x="556" y="1510"/>
      <point x="255" y="1200"/>
      <point x="177" y="745" type="curve" smooth="yes"/>
      <point x="104" y="291"/>
      <point x="295" y="-20"/>
      <point x="669" y="-20" type="curve" smooth="yes"/>
      <point x="1035" y="-20"/>
      <point x="1337" y="289"/>
    </contour>
    <contour>
      <point x="1364" y="745" type="curve" smooth="yes"/>
      <point x="1297" y="319"/>
      <point x="1012" y="26"/>
      <point x="666" y="26" type="curve" smooth="yes"/>
      <point x="325" y="26"/>
      <point x="152" y="313"/>
      <point x="224" y="745" type="curve" smooth="yes"/>
      <point x="299" y="1174"/>
      <point x="583" y="1463"/>
      <point x="925" y="1463" type="curve" smooth="yes"/>
      <point x="1261" y="1463"/>
      <point x="1436" y="1178"/>
    </contour>
  </outline>
</glyph>
<glyph name="R" format="2">
  <advance height="2479" width="1260"/>
  <unicode hex="0052"/>
  <anchor x="553" y="0" name="bottom"/>
  <anchor x="812" y="1676" name="top"/>
  <outline>
    <contour>
      <point x="140" y="0" type="line"/>
      <point x="186" y="0" type="line"/>
      <point x="425" y="1443" type="line"/>
      <point x="815" y="1443" type="line" smooth="yes"/>
      <point x="1039" y="1443"/>
      <point x="1172" y="1295"/>
      <point x="1135" y="1065" type="curve" smooth="yes"/>
      <point x="1097" y="838"/>
      <point x="913" y="689"/>
      <point x="689" y="689" type="curve" smooth="yes"/>
      <point x="276" y="689" type="line"/>
      <point x="271" y="643" type="line"/>
      <point x="684" y="643" type="line" smooth="yes"/>
      <point x="934" y="643"/>
      <point x="1137" y="812"/>
      <point x="1181" y="1065" type="curve" smooth="yes"/>
      <point x="1222" y="1321"/>
      <point x="1073" y="1489"/>
      <point x="823" y="1489" type="curve" smooth="yes"/>
      <point x="387" y="1489" type="line"/>
    </contour>
    <contour>
      <point x="820" y="678" type="line"/>
      <point x="771" y="678" type="line"/>
      <point x="1024" y="0" type="line"/>
      <point x="1073" y="0" type="line"/>
    </contour>
  </outline>
</glyph>
<glyph name="S" format="2">
  <advance height="2479" width="1254"/>
  <unicode hex="0053"/>
  <anchor x="532" y="-23" name="bottom"/>
  <anchor x="535" y="0" name="cedilla"/>
  <anchor x="815" y="1676" name="top"/>
  <outline>
    <contour>
      <point x="1123" y="1117" type="curve"/>
      <point x="1169" y="1117" type="line"/>
      <point x="1192" y="1347"/>
      <point x="1047" y="1513"/>
      <point x="791" y="1513" type="curve" smooth="yes"/>
      <point x="533" y="1513"/>
      <point x="322" y="1354"/>
      <point x="285" y="1129" type="curve" smooth="yes"/>
      <point x="257" y="957"/>
      <point x="351" y="836"/>
      <point x="573" y="765" type="curve" smooth="yes"/>
      <point x="736" y="713" type="line" smooth="yes"/>
      <point x="964" y="639"/>
      <point x="1047" y="538"/>
      <point x="1021" y="378" type="curve" smooth="yes"/>
      <point x="986" y="169"/>
      <point x="792" y="23"/>
      <point x="535" y="23" type="curve" smooth="yes"/>
      <point x="289" y="23"/>
      <point x="151" y="156"/>
      <point x="169" y="349" type="curve"/>
      <point x="122" y="349" type="line"/>
      <point x="100" y="130"/>
      <point x="255" y="-23"/>
      <point x="527" y="-23" type="curve" smooth="yes"/>
      <point x="820" y="-23"/>
      <point x="1028" y="137"/>
      <point x="1068" y="378" type="curve" smooth="yes"/>
      <point x="1098" y="562"/>
      <point x="999" y="677"/>
      <point x="753" y="756" type="curve" smooth="yes"/>
      <point x="593" y="809" type="line" smooth="yes"/>
      <point x="391" y="874"/>
      <point x="306" y="978"/>
      <point x="332" y="1129" type="curve" smooth="yes"/>
      <point x="364" y="1323"/>
      <point x="559" y="1466"/>
      <point x="785" y="1466" type="curve" smooth="yes"/>
      <point x="1017" y="1466"/>
      <point x="1141" y="1321"/>
    </contour>
  </outline>
</glyph>
<glyph name="W" format="2">
  <advance height="2479" width="1823"/>
  <unicode hex="0057"/>
  <anchor x="819" y="12" name="bottom"/>
  <anchor x="1092" y="1676" name="top"/>
  <outline>
    <contour>
      <point x="371" y="0" type="line"/>
      <point x="435" y="0" type="line"/>
      <point x="1048" y="1417" type="line"/>
      <point x="1054" y="1417" type="line"/>
      <point x="1197" y="0" type="line"/>
      <point x="1264" y="0" type="line"/>
      <point x="1921" y="1489" type="line"/>
      <point x="1869" y="1489" type="line"/>
      <point x="1243" y="73" type="line"/>
      <point x="1237" y="73" type="line"/>
      <point x="1095" y="1489" type="line"/>
      <point x="1031" y="1489" type="line"/>
      <point x="414" y="73" type="line"/>
      <point x="408" y="73" type="line"/>
      <point x="257" y="1489" type="line"/>
      <point x="208" y="1489" type="line"/>
    </contour>
  </outline>
</glyph>
<glyph name="X" format="2">
  <advance height="2479" width="1199"/>
  <unicode hex="0058"/>
  <anchor x="509" y="12" name="bottom"/>
  <anchor x="631" y="745" name="cross"/>
  <anchor x="1036" y="6" name="cyrtic"/>
  <anchor x="986" y="0" name="right"/>
  <anchor x="785" y="1676" name="top"/>
  <outline>
    <contour>
      <point x="279" y="1489" type="line"/>
      <point x="224" y="1489" type="line"/>
      <point x="602" y="745" type="line"/>
      <point x="-23" y="0" type="line"/>
      <point x="41" y="0" type="line"/>
      <point x="625" y="701" type="line"/>
      <point x="631" y="701" type="line"/>
      <point x="983" y="0" type="line"/>
      <point x="1036" y="0" type="line"/>
      <point x="660" y="745" type="line"/>
      <point x="1283" y="1489" type="line"/>
      <point x="1222" y="1489" type="line"/>
      <point x="637" y="788" type="line"/>
      <point x="631" y="788" type="line"/>
    </contour>
  </outline>
</glyph>
<glyph name="Y" format="2">
  <advance height="2479" width="1257"/>
  <unicode hex="0059"/>
  <anchor x="535" y="0" name="bottom"/>
  <anchor x="637" y="605" name="cross"/>
  <anchor x="559" y="0" name="ogonek"/>
  <anchor x="201" y="1489" name="tonos"/>
  <anchor x="815" y="1676" name="top"/>
  <outline>
    <contour>
      <point x="224" y="1489" type="line"/>
      <point x="628" y="707" type="line"/>
      <point x="512" y="0" type="line"/>
      <point x="559" y="0" type="line"/>
      <point x="675" y="707" type="line"/>
      <point x="1341" y="1489" type="line"/>
      <point x="1280" y="1489" type="line"/>
      <point x="660" y="759" type="line"/>
      <point x="652" y="759" type="line"/>
      <point x="276" y="1489" type="line"/>
    </contour>
  </outline>
</glyph>
<glyph name="asciicircum" format="2">
  <advance height="2479" width="820"/>
  <unicode hex="005E"/>
  <outline>
    <contour>
      <point x="541" y="1414" type="line"/>
      <point x="535" y="1367" type="line"/>
      <point x="564" y="1367" type="line"/>
      <point x="570" y="1414" type="line"/>
    </contour>
    <contour>
      <point x="137" y="815" type="line"/>
      <point x="189" y="815" type="line"/>
      <point x="564" y="1396" type="line"/>
      <point x="541" y="1396" type="line"/>
      <point x="713" y="815" type="line"/>
      <point x="765" y="815" type="line"/>
      <point x="573" y="1443" type="line"/>
      <point x="538" y="1443" type="line"/>
    </contour>
  </outline>
</glyph>
<glyph name="underscore" format="2">
  <advance height="2479" width="874"/>
  <unicode hex="005F"/>
  <anchor x="384" y="177" name="_bottom"/>
  <outline>
    <contour>
      <point x="785" y="0" type="line"/>
      <point x="-99" y="0" type="line"/>
      <point x="-108" y="-47" type="line"/>
      <point x="780" y="-47" type="line"/>
    </contour>
  </outline>
</glyph>
<glyph name="a" format="2">
  <advance height="2479" width="1108"/>
  <unicode hex="0061"/>
  <anchor x="463" y="0" name="bottom"/>
  <anchor x="812" y="0" name="ogonek"/>
  <anchor x="678" y="1303" name="rhalfring"/>
  <anchor x="675" y="1303" name="top"/>
  <outline>
    <contour>
      <point x="381" y="-23" type="curve" smooth="yes"/>
      <point x="550" y="-23"/>
      <point x="704" y="76"/>
      <point x="797" y="227" type="curve"/>
      <point x="803" y="227" type="line"/>
      <point x="765" y="0" type="line"/>
      <point x="812" y="0" type="line"/>
      <point x="945" y="803" type="line" smooth="yes"/>
      <point x="977" y="992"/>
      <point x="864" y="1135"/>
      <point x="637" y="1135" type="curve" smooth="yes"/>
      <point x="463" y="1135"/>
      <point x="303" y="1047"/>
      <point x="227" y="908" type="curve"/>
      <point x="268" y="890" type="line"/>
      <point x="335" y="1012"/>
      <point x="480" y="1088"/>
      <point x="637" y="1088" type="curve" smooth="yes"/>
      <point x="829" y="1088"/>
      <point x="928" y="975"/>
      <point x="899" y="803" type="curve" smooth="yes"/>
      <point x="887" y="736" type="line" smooth="yes"/>
      <point x="873" y="649"/>
      <point x="724" y="631"/>
      <point x="567" y="614" type="curve" smooth="yes"/>
      <point x="218" y="573"/>
      <point x="119" y="454"/>
      <point x="93" y="303" type="curve" smooth="yes"/>
      <point x="61" y="93"/>
      <point x="198" y="-23"/>
    </contour>
    <contour>
      <point x="381" y="23" type="curve" smooth="yes"/>
      <point x="215" y="23"/>
      <point x="113" y="134"/>
      <point x="140" y="303" type="curve" smooth="yes"/>
      <point x="166" y="445"/>
      <point x="273" y="535"/>
      <point x="579" y="570" type="curve" smooth="yes"/>
      <point x="707" y="585"/>
      <point x="812" y="605"/>
      <point x="873" y="646" type="curve"/>
      <point x="844" y="477" type="line" smooth="yes"/>
      <point x="800" y="207"/>
      <point x="593" y="23"/>
    </contour>
  </outline>
</glyph>
<glyph name="f" format="2">
  <advance height="2479" width="678"/>
  <unicode hex="0066"/>
  <anchor x="224" y="0" name="bottom"/>
  <anchor x="331" y="649" name="cross"/>
  <anchor x="515" y="1676" name="top"/>
  <outline>
    <contour>
      <point x="675" y="1117" type="line"/>
      <point x="233" y="1117" type="line"/>
      <point x="224" y="1071" type="line"/>
      <point x="666" y="1071" type="line"/>
    </contour>
    <component base="_part.f_base"/>
  </outline>
</glyph>
<glyph name="h" format="2">
  <advance height="2479" width="1164"/>
  <unicode hex="0068"/>
  <anchor x="489" y="0" name="bottom"/>
  <anchor x="127" y="-6" name="cedilla"/>
  <anchor x="349" y="1324" name="cross"/>
  <anchor x="407" y="1676" name="top"/>
  <outline>
    <contour>
      <point x="276" y="751" type="line" smooth="yes"/>
      <point x="308" y="945"/>
      <point x="480" y="1085"/>
      <point x="678" y="1085" type="curve" smooth="yes"/>
      <point x="876" y="1085"/>
      <point x="983" y="948"/>
      <point x="951" y="751" type="curve" smooth="yes"/>
      <point x="826" y="0" type="line"/>
      <point x="873" y="0" type="line"/>
      <point x="998" y="751" type="line" smooth="yes"/>
      <point x="1036" y="975"/>
      <point x="905" y="1132"/>
      <point x="681" y="1132" type="curve" smooth="yes"/>
      <point x="527" y="1132"/>
      <point x="384" y="1056"/>
      <point x="314" y="940" type="curve"/>
      <point x="308" y="940" type="line"/>
      <point x="399" y="1489" type="line"/>
      <point x="352" y="1489" type="line"/>
      <point x="105" y="0" type="line"/>
      <point x="151" y="0" type="line"/>
    </contour>
  </outline>
</glyph>
<glyph name="k" format="2">
  <advance height="2479" width="998"/>
  <unicode hex="006B"/>
  <anchor x="445" y="0" name="bottom"/>
  <anchor x="407" y="1676" name="top"/>
  <outline>
    <contour>
      <point x="215" y="451" type="line"/>
      <point x="404" y="611" type="line"/>
      <point x="410" y="617" type="line"/>
      <point x="1004" y="1117" type="line"/>
      <point x="931" y="1117" type="line"/>
      <point x="247" y="538" type="line"/>
      <point x="230" y="538" type="line"/>
    </contour>
    <contour>
      <point x="105" y="0" type="line"/>
      <point x="151" y="0" type="line"/>
      <point x="399" y="1489" type="line"/>
      <point x="352" y="1489" type="line"/>
    </contour>
    <contour>
      <point x="780" y="0" type="line"/>
      <point x="835" y="0" type="line"/>
      <point x="425" y="646" type="line"/>
      <point x="387" y="617" type="line"/>
    </contour>
  </outline>
</glyph>
<glyph name="l" format="2">
  <advance height="2479" width="442"/>
  <unicode hex="006C"/>
  <anchor x="128" y="0" name="bottom"/>
  <anchor x="256" y="768" name="cross"/>
  <anchor x="538" y="1489" name="raccent"/>
  <anchor x="407" y="1676" name="top"/>
  <outline>
    <contour>
      <point x="399" y="1489" type="line"/>
      <point x="352" y="1489" type="line"/>
      <point x="105" y="0" type="line"/>
      <point x="151" y="0" type="line"/>
    </contour>
  </outline>
</glyph>
<glyph name="n" format="2">
  <advance height="2479" width="1164"/>
  <unicode hex="006E"/>
  <anchor x="489" y="0" name="bottom"/>
  <anchor x="707" y="1303" name="top"/>
  <outline>
    <contour>
      <point x="276" y="751" type="line" smooth="yes"/>
      <point x="308" y="945"/>
      <point x="480" y="1085"/>
      <point x="678" y="1085" type="curve" smooth="yes"/>
      <point x="876" y="1085"/>
      <point x="983" y="948"/>
      <point x="951" y="751" type="curve" smooth="yes"/>
      <point x="826" y="0" type="line"/>
      <point x="873" y="0" type="line"/>
      <point x="998" y="751" type="line" smooth="yes"/>
      <point x="1036" y="975"/>
      <point x="905" y="1132"/>
      <point x="681" y="1132" type="curve" smooth="yes"/>
      <point x="527" y="1132"/>
      <point x="384" y="1056"/>
      <point x="314" y="940" type="curve"/>
      <point x="308" y="940" type="line"/>
      <point x="337" y="1117" type="line"/>
      <point x="291" y="1117" type="line"/>
      <point x="105" y="0" type="line"/>
      <point x="151" y="0" type="line"/>
    </contour>
  </outline>
</glyph>
<glyph name="o" format="2">
  <advance height="2479" width="1187"/>
  <unicode hex="006F"/>
  <anchor x="500" y="0" name="bottom"/>
  <anchor x="556" y="0" name="ogonek"/>
  <anchor x="716" y="1303" name="top"/>
  <outline>
    <contour>
      <point x="500" y="-23" type="curve" smooth="yes"/>
      <point x="762" y="-23"/>
      <point x="1001" y="224"/>
      <point x="1056" y="550" type="curve" smooth="yes"/>
      <point x="1108" y="881"/>
      <point x="951" y="1135"/>
      <point x="684" y="1135" type="curve" smooth="yes"/>
      <point x="425" y="1135"/>
      <point x="186" y="887"/>
      <point x="131" y="561" type="curve" smooth="yes"/>
      <point x="76" y="227"/>
      <point x="236" y="-23"/>
    </contour>
    <contour>
      <point x="500" y="23" type="curve" smooth="yes"/>
      <point x="268" y="23"/>
      <point x="125" y="250"/>
      <point x="177" y="550" type="curve" smooth="yes"/>
      <point x="227" y="855"/>
      <point x="448" y="1088"/>
      <point x="687" y="1088" type="curve" smooth="yes"/>
      <point x="919" y="1088"/>
      <point x="1059" y="861"/>
      <point x="1009" y="561" type="curve" smooth="yes"/>
      <point x="960" y="253"/>
      <point x="742" y="23"/>
    </contour>
  </outline>
</glyph>
<glyph name="p" format="2">
  <advance height="2479" width="1190"/>
  <unicode hex="0070"/>
  <anchor x="58" y="-419" name="bottom"/>
  <anchor x="974" y="-506" name="bottom0315"/>
  <anchor x="102" y="-163" name="cross"/>
  <anchor x="750" y="1303" name="top"/>
  <outline>
    <contour>
      <point x="35" y="-419" type="line"/>
      <point x="81" y="-419" type="line"/>
      <point x="198" y="279" type="line"/>
      <point x="203" y="279" type="line"/>
      <point x="232" y="93"/>
      <point x="354" y="-23"/>
      <point x="532" y="-23" type="curve" smooth="yes"/>
      <point x="793" y="-23"/>
      <point x="1003" y="227"/>
      <point x="1059" y="556" type="curve" smooth="yes"/>
      <point x="1113" y="887"/>
      <point x="988" y="1135"/>
      <point x="724" y="1135" type="curve" smooth="yes"/>
      <point x="543" y="1135"/>
      <point x="386" y="1018"/>
      <point x="296" y="832" type="curve"/>
      <point x="291" y="832" type="line"/>
      <point x="337" y="1117" type="line"/>
      <point x="291" y="1117" type="line"/>
    </contour>
    <contour>
      <point x="244" y="556" type="curve" smooth="yes"/>
      <point x="293" y="858"/>
      <point x="488" y="1088"/>
      <point x="724" y="1088" type="curve" smooth="yes"/>
      <point x="962" y="1088"/>
      <point x="1061" y="858"/>
      <point x="1012" y="556" type="curve" smooth="yes"/>
      <point x="962" y="253"/>
      <point x="767" y="23"/>
      <point x="532" y="23" type="curve" smooth="yes"/>
      <point x="296" y="23"/>
      <point x="194" y="253"/>
    </contour>
  </outline>
</glyph>
<glyph name="r" format="2">
  <advance height="2479" width="666"/>
  <unicode hex="0072"/>
  <anchor x="128" y="0" name="bottom"/>
  <anchor x="218" y="535" name="cross"/>
  <anchor x="550" y="1303" name="top"/>
  <outline>
    <contour>
      <point x="105" y="0" type="line"/>
      <point x="151" y="0" type="line"/>
      <point x="276" y="751" type="line" smooth="yes"/>
      <point x="308" y="945"/>
      <point x="474" y="1085"/>
      <point x="672" y="1085" type="curve" smooth="yes"/>
      <point x="684" y="1085"/>
      <point x="684" y="1085"/>
      <point x="695" y="1085" type="curve"/>
      <point x="704" y="1132" type="line"/>
      <point x="692" y="1132"/>
      <point x="692" y="1132"/>
      <point x="681" y="1132" type="curve" smooth="yes"/>
      <point x="527" y="1132"/>
      <point x="384" y="1056"/>
      <point x="314" y="940" type="curve"/>
      <point x="308" y="940" type="line"/>
      <point x="337" y="1117" type="line"/>
      <point x="291" y="1117" type="line"/>
    </contour>
  </outline>
</glyph>
<glyph name="s" format="2">
  <advance height="2479" width="1009"/>
  <unicode hex="0073"/>
  <anchor x="422" y="0" name="bottom"/>
  <anchor x="419" y="0" name="cedilla"/>
  <anchor x="640" y="1303" name="top"/>
  <outline>
    <contour>
      <point x="919" y="881" type="line"/>
      <point x="893" y="1047"/>
      <point x="789" y="1135"/>
      <point x="614" y="1135" type="curve" smooth="yes"/>
      <point x="411" y="1135"/>
      <point x="253" y="1020"/>
      <point x="224" y="847" type="curve" smooth="yes"/>
      <point x="201" y="705"/>
      <point x="276" y="602"/>
      <point x="442" y="559" type="curve" smooth="yes"/>
      <point x="608" y="515" type="line" smooth="yes"/>
      <point x="745" y="480"/>
      <point x="804" y="402"/>
      <point x="785" y="288" type="curve" smooth="yes"/>
      <point x="760" y="132"/>
      <point x="608" y="23"/>
      <point x="410" y="23" type="curve" smooth="yes"/>
      <point x="236" y="23"/>
      <point x="140" y="108"/>
      <point x="134" y="265" type="curve"/>
      <point x="87" y="259" type="line"/>
      <point x="96" y="79"/>
      <point x="210" y="-23"/>
      <point x="410" y="-23" type="curve" smooth="yes"/>
      <point x="629" y="-23"/>
      <point x="799" y="95"/>
      <point x="829" y="276" type="curve" smooth="yes"/>
      <point x="852" y="415"/>
      <point x="783" y="521"/>
      <point x="625" y="561" type="curve" smooth="yes"/>
      <point x="457" y="605" type="line" smooth="yes"/>
      <point x="311" y="643"/>
      <point x="252" y="719"/>
      <point x="271" y="835" type="curve" smooth="yes"/>
      <point x="295" y="984"/>
      <point x="434" y="1088"/>
      <point x="617" y="1088" type="curve" smooth="yes"/>
      <point x="766" y="1088"/>
      <point x="849" y="1018"/>
      <point x="873" y="873" type="curve"/>
    </contour>
  </outline>
</glyph>
<glyph name="v" format="2">
  <advance height="2479" width="1071"/>
  <unicode hex="0076"/>
  <anchor x="442" y="0" name="bottom"/>
  <anchor x="657" y="1303" name="top"/>
  <outline>
    <contour>
      <point x="1059" y="1117" type="line"/>
      <point x="1007" y="1117" type="line"/>
      <point x="452" y="58" type="line"/>
      <point x="447" y="58" type="line"/>
      <point x="244" y="1117" type="line"/>
      <point x="198" y="1117" type="line"/>
      <point x="410" y="0" type="line"/>
      <point x="474" y="0" type="line"/>
    </contour>
  </outline>
</glyph>
<glyph name="x" format="2">
  <advance height="2479" width="1024"/>
  <unicode hex="0078"/>
  <anchor x="419" y="0" name="bottom"/>
  <anchor x="512" y="559" name="cross"/>
  <anchor x="799" y="6" name="cyrtic"/>
  <anchor x="692" y="0" name="right"/>
  <anchor x="636" y="1303" name="top"/>
  <outline>
    <contour>
      <point x="272" y="1117" type="line"/>
      <point x="221" y="1117" type="line"/>
      <point x="484" y="561" type="line"/>
      <point x="32" y="0" type="line"/>
      <point x="93" y="0" type="line"/>
      <point x="506" y="513" type="line"/>
      <point x="749" y="0" type="line"/>
      <point x="800" y="0" type="line"/>
      <point x="538" y="553" type="line"/>
      <point x="992" y="1117" type="line"/>
      <point x="932" y="1117" type="line"/>
      <point x="516" y="601" type="line"/>
    </contour>
  </outline>
</glyph>
<glyph name="z" format="2">
  <advance height="2479" width="1041"/>
  <unicode hex="007A"/>
  <anchor x="410" y="0" name="bottom"/>
  <anchor x="521" y="559" name="cross"/>
  <anchor x="643" y="1303" name="top"/>
  <outline>
    <contour>
      <point x="64" y="0" type="line"/>
      <point x="820" y="0" type="line"/>
      <point x="829" y="47" type="line"/>
      <point x="137" y="47" type="line"/>
      <point x="137" y="52" type="line"/>
      <point x="969" y="1071" type="line"/>
      <point x="977" y="1117" type="line"/>
      <point x="294" y="1117" type="line"/>
      <point x="285" y="1071" type="line"/>
      <point x="908" y="1071" type="line"/>
      <point x="908" y="1065" type="line"/>
      <point x="73" y="47" type="line"/>
    </contour>
  </outline>
</glyph>
<glyph name="braceleft" format="2">
  <advance height="2479" width="646"/>
  <unicode hex="007B"/>
  <outline>
    <contour>
      <point x="143" y="605" type="line"/>
      <point x="335" y="605"/>
      <point x="416" y="675"/>
      <point x="448" y="867" type="curve" smooth="yes"/>
      <point x="509" y="1248" type="line" smooth="yes"/>
      <point x="541" y="1434"/>
      <point x="620" y="1513"/>
      <point x="771" y="1513" type="curve"/>
      <point x="780" y="1559" type="line"/>
      <point x="599" y="1559"/>
      <point x="497" y="1460"/>
      <point x="463" y="1248" type="curve" smooth="yes"/>
      <point x="401" y="867" type="line" smooth="yes"/>
      <point x="372" y="701"/>
      <point x="317" y="652"/>
      <point x="148" y="652" type="curve"/>
    </contour>
    <contour>
      <point x="471" y="-303" type="curve"/>
      <point x="480" y="-256" type="line"/>
      <point x="326" y="-256"/>
      <point x="273" y="-177"/>
      <point x="305" y="9" type="curve" smooth="yes"/>
      <point x="367" y="390" type="line" smooth="yes"/>
      <point x="399" y="582"/>
      <point x="343" y="652"/>
      <point x="148" y="652" type="curve"/>
      <point x="143" y="605" type="line"/>
      <point x="308" y="605"/>
      <point x="349" y="556"/>
      <point x="320" y="390" type="curve" smooth="yes"/>
      <point x="259" y="9" type="line" smooth="yes"/>
      <point x="224" y="-204"/>
      <point x="291" y="-303"/>
    </contour>
    <contour>
      <point x="140" y="605" type="line"/>
      <point x="300" y="605" type="line"/>
      <point x="305" y="652" type="line"/>
      <point x="145" y="652" type="line"/>
    </contour>
  </outline>
</glyph>
<glyph name="yen" format="2">
  <advance height="2479" width="1071"/>
  <unicode hex="00A5"/>
  <outline>
    <contour>
      <point x="247" y="1489" type="line"/>
      <point x="198" y="1489" type="line"/>
      <point x="521" y="643" type="line"/>
      <point x="570" y="643" type="line"/>
    </contour>
    <contour>
      <point x="522" y="643" type="line"/>
      <point x="579" y="643" type="line"/>
      <point x="1181" y="1489" type="line"/>
      <point x="1124" y="1489" type="line"/>
    </contour>
    <contour>
      <point x="582" y="692" type="line"/>
      <point x="535" y="692" type="line"/>
      <point x="419" y="0" type="line"/>
      <point x="465" y="0" type="line"/>
    </contour>
    <contour>
      <point x="928" y="675" type="line"/>
      <point x="183" y="675" type="line"/>
      <point x="175" y="628" type="line"/>
      <point x="919" y="628" type="line"/>
    </contour>
    <contour>
      <point x="896" y="489" type="line"/>
      <point x="151" y="489" type="line"/>
      <point x="143" y="442" type="line"/>
      <point x="887" y="442" type="line"/>
    </contour>
  </outline>
</glyph>
<glyph name="section" format="2">
  <advance height="2479" width="1085"/>
  <unicode hex="00A7"/>
  <outline>
    <contour>
      <point x="972" y="1190" type="line"/>
      <point x="992" y="1379"/>
      <point x="879" y="1510"/>
      <point x="695" y="1510" type="curve" smooth="yes"/>
      <point x="516" y="1510"/>
      <point x="358" y="1383"/>
      <point x="330" y="1219" type="curve" smooth="yes"/>
      <point x="313" y="1108"/>
      <point x="359" y="1009"/>
      <point x="460" y="940" type="curve"/>
      <point x="460" y="934" type="line"/>
      <point x="303" y="943"/>
      <point x="183" y="857"/>
      <point x="160" y="721" type="curve" smooth="yes"/>
      <point x="140" y="593"/>
      <point x="220" y="496"/>
      <point x="429" y="359" type="curve" smooth="yes"/>
      <point x="561" y="273" type="line" smooth="yes"/>
      <point x="733" y="163"/>
      <point x="767" y="80"/>
      <point x="752" y="-10" type="curve" smooth="yes"/>
      <point x="729" y="-150"/>
      <point x="585" y="-256"/>
      <point x="403" y="-256" type="curve" smooth="yes"/>
      <point x="223" y="-256"/>
      <point x="119" y="-150"/>
      <point x="135" y="23" type="curve"/>
      <point x="89" y="23" type="line"/>
      <point x="68" y="-169"/>
      <point x="196" y="-303"/>
      <point x="407" y="-303" type="curve" smooth="yes"/>
      <point x="609" y="-303"/>
      <point x="769" y="-182"/>
      <point x="797" y="-16" type="curve" smooth="yes"/>
      <point x="815" y="83"/>
      <point x="778" y="173"/>
      <point x="647" y="271" type="curve"/>
      <point x="647" y="273" type="line"/>
      <point x="796" y="273"/>
      <point x="921" y="368"/>
      <point x="941" y="496" type="curve" smooth="yes"/>
      <point x="960" y="609"/>
      <point x="886" y="703"/>
      <point x="662" y="852" type="curve" smooth="yes"/>
      <point x="553" y="925" type="line" smooth="yes"/>
      <point x="413" y="1018"/>
      <point x="358" y="1108"/>
      <point x="375" y="1210" type="curve" smooth="yes"/>
      <point x="400" y="1354"/>
      <point x="543" y="1466"/>
      <point x="697" y="1466" type="curve" smooth="yes"/>
      <point x="851" y="1466"/>
      <point x="943" y="1356"/>
      <point x="925" y="1190" type="curve"/>
    </contour>
    <contour>
      <point x="895" y="502" type="curve" smooth="yes"/>
      <point x="876" y="383"/>
      <point x="742" y="301"/>
      <point x="585" y="314" type="curve"/>
      <point x="447" y="403" type="line" smooth="yes"/>
      <point x="257" y="524"/>
      <point x="189" y="611"/>
      <point x="207" y="716" type="curve" smooth="yes"/>
      <point x="228" y="835"/>
      <point x="351" y="911"/>
      <point x="508" y="899" type="curve"/>
      <point x="643" y="809" type="line" smooth="yes"/>
      <point x="847" y="673"/>
      <point x="911" y="595"/>
    </contour>
  </outline>
</glyph>
<glyph name="ordfeminine" format="2">
  <advance height="2479" width="739"/>
  <unicode hex="00AA"/>
  <outline>
    <contour>
      <point x="614" y="861" type="line"/>
      <point x="603" y="810"/>
      <point x="601" y="755"/>
      <point x="608" y="710" type="curve"/>
      <point x="657" y="710" type="line"/>
      <point x="650" y="761"/>
      <point x="652" y="817"/>
      <point x="663" y="887" type="curve" smooth="yes"/>
      <point x="716" y="1201" type="line"/>
      <point x="745" y="1383"/>
      <point x="683" y="1478"/>
      <point x="525" y="1478" type="curve" smooth="yes"/>
      <point x="374" y="1478"/>
      <point x="263" y="1393"/>
      <point x="231" y="1248" type="curve"/>
      <point x="278" y="1244" type="line"/>
      <point x="308" y="1366"/>
      <point x="395" y="1431"/>
      <point x="525" y="1431" type="curve" smooth="yes"/>
      <point x="654" y="1431"/>
      <point x="695" y="1365"/>
      <point x="669" y="1201" type="curve"/>
    </contour>
    <contour>
      <point x="666" y="1126" type="line"/>
      <point x="495" y="1126" type="line" smooth="yes"/>
      <point x="295" y="1126"/>
      <point x="189" y="1055"/>
      <point x="163" y="905" type="curve" smooth="yes"/>
      <point x="142" y="784"/>
      <point x="220" y="692"/>
      <point x="349" y="692" type="curve" smooth="yes"/>
      <point x="433" y="692"/>
      <point x="513" y="729"/>
      <point x="628" y="823" type="curve"/>
      <point x="617" y="854" type="line"/>
      <point x="529" y="777"/>
      <point x="436" y="737"/>
      <point x="351" y="739" type="curve" smooth="yes"/>
      <point x="243" y="740"/>
      <point x="193" y="799"/>
      <point x="209" y="905" type="curve" smooth="yes"/>
      <point x="228" y="1020"/>
      <point x="326" y="1082"/>
      <point x="487" y="1082" type="curve" smooth="yes"/>
      <point x="659" y="1082" type="line"/>
    </contour>
  </outline>
</glyph>
<glyph name="degree" format="2">
  <advance height="2479" width="931"/>
  <unicode hex="00B0"/>
  <outline>
    <contour>
      <point x="572" y="905" type="curve" smooth="yes"/>
      <point x="739" y="905"/>
      <point x="874" y="1040"/>
      <point x="874" y="1207" type="curve" smooth="yes"/>
      <point x="874" y="1375"/>
      <point x="739" y="1510"/>
      <point x="572" y="1510" type="curve" smooth="yes"/>
      <point x="404" y="1510"/>
      <point x="269" y="1375"/>
      <point x="269" y="1207" type="curve" smooth="yes"/>
      <point x="269" y="1040"/>
      <point x="404" y="905"/>
    </contour>
    <contour>
      <point x="572" y="951" type="curve" smooth="yes"/>
      <point x="430" y="951"/>
      <point x="316" y="1065"/>
      <point x="316" y="1207" type="curve" smooth="yes"/>
      <point x="316" y="1349"/>
      <point x="430" y="1463"/>
      <point x="572" y="1463" type="curve" smooth="yes"/>
      <point x="713" y="1463"/>
      <point x="828" y="1349"/>
      <point x="828" y="1207" type="curve" smooth="yes"/>
      <point x="828" y="1065"/>
      <point x="713" y="951"/>
    </contour>
  </outline>
</glyph>
<glyph name="plusminus" format="2">
  <advance height="2479" width="1303"/>
  <unicode hex="00B1"/>
  <outline>
    <contour>
      <point x="160" y="140" type="line"/>
      <point x="1004" y="140" type="line"/>
      <point x="1012" y="186" type="line"/>
      <point x="169" y="186" type="line"/>
    </contour>
    <contour>
      <point x="253" y="698" type="line"/>
      <point x="1097" y="698" type="line"/>
      <point x="1105" y="745" type="line"/>
      <point x="262" y="745" type="line"/>
    </contour>
    <contour>
      <point x="591" y="326" type="line"/>
      <point x="637" y="326" type="line"/>
      <point x="768" y="1117" type="line"/>
      <point x="721" y="1117" type="line"/>
    </contour>
  </outline>
</glyph>
<glyph name="twosuperior" format="2">
  <advance height="2479" width="844"/>
  <unicode hex="00B2"/>
  <anchor x="660" y="1196" name="cross"/>
  <outline>
    <contour>
      <point x="154" y="745" type="line"/>
      <point x="756" y="745" type="line"/>
      <point x="765" y="788" type="line"/>
      <point x="230" y="788" type="line"/>
      <point x="230" y="791" type="line"/>
      <point x="559" y="1082" type="line" smooth="yes"/>
      <point x="742" y="1245"/>
      <point x="800" y="1312"/>
      <point x="817" y="1417" type="curve" smooth="yes"/>
      <point x="841" y="1551"/>
      <point x="742" y="1649"/>
      <point x="591" y="1649" type="curve" smooth="yes"/>
      <point x="433" y="1649"/>
      <point x="303" y="1545"/>
      <point x="279" y="1408" type="curve"/>
      <point x="326" y="1408" type="line"/>
      <point x="343" y="1516"/>
      <point x="451" y="1609"/>
      <point x="588" y="1609" type="curve" smooth="yes"/>
      <point x="713" y="1609"/>
      <point x="791" y="1527"/>
      <point x="774" y="1423" type="curve" smooth="yes"/>
      <point x="759" y="1329"/>
      <point x="704" y="1263"/>
      <point x="535" y="1114" type="curve" smooth="yes"/>
      <point x="160" y="780" type="line"/>
    </contour>
  </outline>
</glyph>
<glyph name="threesuperior" format="2">
  <advance height="2479" width="841"/>
  <unicode hex="00B3"/>
  <outline>
    <contour>
      <point x="454" y="733" type="curve" smooth="yes"/>
      <point x="640" y="733"/>
      <point x="774" y="841"/>
      <point x="797" y="980" type="curve" smooth="yes"/>
      <point x="815" y="1091"/>
      <point x="748" y="1178"/>
      <point x="623" y="1204" type="curve"/>
      <point x="623" y="1207" type="line"/>
      <point x="739" y="1239"/>
      <point x="820" y="1309"/>
      <point x="838" y="1417" type="curve" smooth="yes"/>
      <point x="861" y="1562"/>
      <point x="756" y="1649"/>
      <point x="602" y="1649" type="curve" smooth="yes"/>
      <point x="445" y="1649"/>
      <point x="314" y="1553"/>
      <point x="291" y="1414" type="curve"/>
      <point x="335" y="1414" type="line"/>
      <point x="355" y="1530"/>
      <point x="474" y="1609"/>
      <point x="605" y="1609" type="curve" smooth="yes"/>
      <point x="748" y="1609"/>
      <point x="812" y="1521"/>
      <point x="794" y="1423" type="curve" smooth="yes"/>
      <point x="777" y="1309"/>
      <point x="663" y="1228"/>
      <point x="506" y="1228" type="curve" smooth="yes"/>
      <point x="483" y="1228" type="line"/>
      <point x="477" y="1184" type="line"/>
      <point x="503" y="1184" type="line" smooth="yes"/>
      <point x="672" y="1184"/>
      <point x="771" y="1103"/>
      <point x="751" y="977" type="curve" smooth="yes"/>
      <point x="733" y="870"/>
      <point x="611" y="777"/>
      <point x="457" y="777" type="curve" smooth="yes"/>
      <point x="314" y="777"/>
      <point x="221" y="855"/>
      <point x="239" y="969" type="curve"/>
      <point x="192" y="969" type="line"/>
      <point x="172" y="832"/>
      <point x="282" y="733"/>
    </contour>
  </outline>
</glyph>
<glyph name="acute" format="2">
  <advance height="2479" width="1018"/>
  <unicode hex="00B4"/>
  <anchor x="630" y="1303" name="_top"/>
  <anchor x="694" y="1676" name="top"/>
  <outline>
    <contour>
      <point x="598" y="1280" type="line"/>
      <point x="647" y="1280" type="line"/>
      <point x="915" y="1594" type="line"/>
      <point x="854" y="1594" type="line"/>
    </contour>
  </outline>
</glyph>
<glyph name="micro" format="2">
  <advance height="2479" width="1155"/>
  <unicode hex="00B5"/>
  <outline>
    <contour>
      <point x="29" y="-433" type="line"/>
      <point x="76" y="-433" type="line"/>
      <point x="179" y="198" type="line"/>
      <point x="185" y="198" type="line"/>
      <point x="221" y="67"/>
      <point x="337" y="-15"/>
      <point x="495" y="-15" type="curve" smooth="yes"/>
      <point x="649" y="-15"/>
      <point x="791" y="61"/>
      <point x="861" y="177" type="curve"/>
      <point x="867" y="177" type="line"/>
      <point x="838" y="0" type="line"/>
      <point x="884" y="0" type="line"/>
      <point x="1071" y="1117" type="line"/>
      <point x="1024" y="1117" type="line"/>
      <point x="899" y="367" type="line" smooth="yes"/>
      <point x="867" y="177"/>
      <point x="695" y="32"/>
      <point x="499" y="32" type="curve" smooth="yes"/>
      <point x="304" y="32"/>
      <point x="176" y="172"/>
      <point x="208" y="367" type="curve" smooth="yes"/>
      <point x="332" y="1117" type="line"/>
      <point x="285" y="1117" type="line"/>
    </contour>
  </outline>
</glyph>
<glyph name="cedilla" format="2">
  <advance height="2479" width="419"/>
  <unicode hex="00B8"/>
  <anchor x="122" y="0" name="_cedilla"/>
  <outline>
    <contour>
      <point x="100" y="6" type="line"/>
      <point x="63" y="-96" type="line"/>
      <point x="170" y="-95"/>
      <point x="216" y="-138"/>
      <point x="204" y="-221" type="curve" smooth="yes"/>
      <point x="193" y="-292"/>
      <point x="144" y="-326"/>
      <point x="35" y="-329" type="curve"/>
      <point x="29" y="-375" type="line"/>
      <point x="157" y="-371"/>
      <point x="233" y="-323"/>
      <point x="250" y="-221" type="curve" smooth="yes"/>
      <point x="265" y="-131"/>
      <point x="224" y="-68"/>
      <point x="127" y="-52" type="curve"/>
      <point x="147" y="6" type="line"/>
    </contour>
  </outline>
</glyph>
<glyph name="onesuperior" format="2">
  <advance height="2479" width="559"/>
  <unicode hex="00B9"/>
  <outline>
    <contour>
      <point x="339" y="745" type="line"/>
      <point x="385" y="745" type="line"/>
      <point x="534" y="1638" type="line"/>
      <point x="470" y="1638" type="line"/>
      <point x="249" y="1505" type="line"/>
      <point x="239" y="1450" type="line"/>
      <point x="470" y="1588" type="line"/>
      <point x="479" y="1588" type="line"/>
    </contour>
  </outline>
</glyph>
<glyph name="ordmasculine" format="2">
  <advance height="2479" width="800"/>
  <unicode hex="00BA"/>
  <outline>
    <contour>
      <point x="169" y="1046" type="line" smooth="yes"/>
      <point x="131" y="833"/>
      <point x="231" y="698"/>
      <point x="422" y="698" type="curve" smooth="yes"/>
      <point x="623" y="698"/>
      <point x="755" y="823"/>
      <point x="794" y="1046" type="curve" smooth="yes"/>
      <point x="809" y="1130" type="line" smooth="yes"/>
      <point x="845" y="1343"/>
      <point x="745" y="1478"/>
      <point x="556" y="1478" type="curve" smooth="yes"/>
      <point x="353" y="1478"/>
      <point x="221" y="1353"/>
      <point x="183" y="1130" type="curve" smooth="yes"/>
    </contour>
    <contour>
      <point x="227" y="1130" type="line" smooth="yes"/>
      <point x="258" y="1316"/>
      <point x="380" y="1434"/>
      <point x="548" y="1434" type="curve" smooth="yes"/>
      <point x="716" y="1434"/>
      <point x="798" y="1322"/>
      <point x="765" y="1130" type="curve" smooth="yes"/>
      <point x="751" y="1046" type="line" smooth="yes"/>
      <point x="718" y="860"/>
      <point x="596" y="742"/>
      <point x="429" y="742" type="curve" smooth="yes"/>
      <point x="260" y="742"/>
      <point x="178" y="854"/>
      <point x="212" y="1046" type="curve" smooth="yes"/>
    </contour>
  </outline>
</glyph>
<glyph name="Oslash" format="2">
  <advance height="2479" width="1530"/>
  <unicode hex="00D8"/>
  <anchor x="671" y="-6" name="bottom"/>
  <anchor x="709" y="-6" name="ogonek"/>
  <anchor x="371" y="1483" name="tonos"/>
  <anchor x="944" y="1670" name="top"/>
  <outline>
    <contour>
      <point x="183" y="-35" type="line"/>
      <point x="1439" y="1498" type="line"/>
      <point x="1407" y="1524" type="line"/>
      <point x="148" y="-9" type="line"/>
    </contour>
    <component base="O" xOffset="-1" yOffset="-6"/>
  </outline>
</glyph>
<glyph name="Thorn" format="2">
  <advance height="2479" width="1209"/>
  <unicode hex="00DE"/>
  <outline>
    <contour>
      <point x="367" y="1489" type="line"/>
      <point x="119" y="0" type="line"/>
      <point x="163" y="0" type="line"/>
      <point x="410" y="1489" type="line"/>
    </contour>
    <contour>
      <point x="329" y="1132" type="line"/>
      <point x="317" y="1085" type="line"/>
      <point x="698" y="1085" type="line" smooth="yes"/>
      <point x="932" y="1085"/>
      <point x="1069" y="964"/>
      <point x="1030" y="745" type="curve" smooth="yes"/>
      <point x="991" y="521"/>
      <point x="827" y="407"/>
      <point x="593" y="407" type="curve" smooth="yes"/>
      <point x="212" y="407" type="line"/>
      <point x="201" y="361" type="line"/>
      <point x="582" y="361" type="line" smooth="yes"/>
      <point x="876" y="361"/>
      <point x="1041" y="519"/>
      <point x="1078" y="748" type="curve" smooth="yes"/>
      <point x="1112" y="958"/>
      <point x="988" y="1132"/>
      <point x="710" y="1132" type="curve" smooth="yes"/>
    </contour>
  </outline>
</glyph>
<glyph name="germandbls" format="2">
  <advance height="2479" width="1176"/>
  <unicode hex="00DF"/>
  <outline>
    <contour>
      <point x="140" y="0" type="line"/>
      <point x="186" y="0" type="line"/>
      <point x="369" y="1108" type="line" smooth="yes"/>
      <point x="407" y="1330"/>
      <point x="551" y="1465"/>
      <point x="752" y="1463" type="curve" smooth="yes"/>
      <point x="936" y="1462"/>
      <point x="1033" y="1340"/>
      <point x="1002" y="1152" type="curve" smooth="yes"/>
      <point x="965" y="929"/>
      <point x="785" y="791"/>
      <point x="553" y="791" type="curve" smooth="yes"/>
      <point x="529" y="791" type="line"/>
      <point x="522" y="745" type="line"/>
      <point x="544" y="745" type="line" smooth="yes"/>
      <point x="833" y="745"/>
      <point x="981" y="609"/>
      <point x="943" y="381" type="curve" smooth="yes"/>
      <point x="908" y="175"/>
      <point x="737" y="47"/>
      <point x="499" y="47" type="curve" smooth="yes"/>
      <point x="400" y="47" type="line"/>
      <point x="393" y="0" type="line"/>
      <point x="465" y="0" type="line" smooth="yes"/>
      <point x="764" y="0"/>
      <point x="949" y="137"/>
      <point x="991" y="390" type="curve" smooth="yes"/>
      <point x="1023" y="584"/>
      <point x="914" y="729"/>
      <point x="707" y="769" type="curve"/>
      <point x="707" y="775" type="line"/>
      <point x="891" y="821"/>
      <point x="1015" y="953"/>
      <point x="1047" y="1142" type="curve" smooth="yes"/>
      <point x="1084" y="1359"/>
      <point x="962" y="1510"/>
      <point x="752" y="1510" type="curve" smooth="yes"/>
      <point x="529" y="1510"/>
      <point x="366" y="1361"/>
      <point x="326" y="1120" type="curve" smooth="yes"/>
    </contour>
  </outline>
</glyph>
<glyph name="eth" format="2">
  <advance height="2479" width="1214"/>
  <unicode hex="00F0"/>
  <outline>
    <contour>
      <point x="1132" y="1459" type="line"/>
      <point x="1126" y="1507" type="line"/>
      <point x="512" y="1248" type="line"/>
      <point x="518" y="1200" type="line"/>
    </contour>
    <contour>
      <point x="512" y="-23" type="curve" smooth="yes"/>
      <point x="781" y="-23"/>
      <point x="1025" y="198"/>
      <point x="1082" y="548" type="curve" smooth="yes"/>
      <point x="1149" y="961"/>
      <point x="967" y="1367"/>
      <point x="598" y="1583" type="curve"/>
      <point x="576" y="1536" type="line"/>
      <point x="841" y="1377"/>
      <point x="1004" y="1119"/>
      <point x="1049" y="820" type="curve"/>
      <point x="1041" y="820" type="line"/>
      <point x="979" y="975"/>
      <point x="853" y="1062"/>
      <point x="691" y="1062" type="curve" smooth="yes"/>
      <point x="420" y="1062"/>
      <point x="175" y="828"/>
      <point x="124" y="519" type="curve" smooth="yes"/>
      <point x="73" y="217"/>
      <point x="247" y="-23"/>
    </contour>
    <contour>
      <point x="519" y="23" type="curve" smooth="yes"/>
      <point x="273" y="23"/>
      <point x="124" y="236"/>
      <point x="170" y="519" type="curve" smooth="yes"/>
      <point x="215" y="794"/>
      <point x="446" y="1015"/>
      <point x="684" y="1015" type="curve" smooth="yes"/>
      <point x="927" y="1015"/>
      <point x="1079" y="801"/>
      <point x="1031" y="519" type="curve" smooth="yes"/>
      <point x="985" y="244"/>
      <point x="759" y="23"/>
    </contour>
  </outline>
</glyph>
<glyph name="thorn" format="2">
  <advance height="2479" width="1180"/>
  <unicode hex="00FE"/>
  <outline>
    <contour>
      <point x="346" y="1489" type="line"/>
      <point x="29" y="-419" type="line"/>
      <point x="76" y="-419" type="line"/>
      <point x="192" y="279" type="line"/>
      <point x="230" y="559" type="line"/>
      <point x="285" y="832" type="line"/>
      <point x="393" y="1489" type="line"/>
    </contour>
    <contour>
      <point x="269" y="832" type="line"/>
      <point x="167" y="279" type="line"/>
      <point x="198" y="279" type="line"/>
      <point x="227" y="93"/>
      <point x="349" y="-23"/>
      <point x="527" y="-23" type="curve" smooth="yes"/>
      <point x="788" y="-23"/>
      <point x="998" y="227"/>
      <point x="1053" y="556" type="curve" smooth="yes"/>
      <point x="1108" y="887"/>
      <point x="983" y="1135"/>
      <point x="719" y="1135" type="curve" smooth="yes"/>
      <point x="538" y="1135"/>
      <point x="381" y="1018"/>
      <point x="291" y="832" type="curve"/>
    </contour>
    <contour>
      <point x="1007" y="556" type="curve" smooth="yes"/>
      <point x="957" y="253"/>
      <point x="762" y="23"/>
      <point x="527" y="23" type="curve" smooth="yes"/>
      <point x="291" y="23"/>
      <point x="189" y="253"/>
      <point x="239" y="556" type="curve" smooth="yes"/>
      <point x="288" y="858"/>
      <point x="483" y="1088"/>
      <point x="719" y="1088" type="curve" smooth="yes"/>
      <point x="957" y="1088"/>
      <point x="1056" y="858"/>
    </contour>
  </outline>
</glyph>
<glyph name="dcroat" format="2">
  <advance height="2479" width="1227"/>
  <unicode hex="0111"/>
  <anchor x="505" y="0" name="bottom"/>
  <anchor x="1090" y="1280" name="cross"/>
  <anchor x="1279" y="1489" name="raccent"/>
  <anchor x="728" y="1489" name="top"/>
  <outline>
    <contour>
      <point x="753" y="1257" type="line"/>
      <point x="1305" y="1257" type="line"/>
      <point x="1314" y="1304" type="line"/>
      <point x="761" y="1304" type="line"/>
    </contour>
    <component base="d"/>
  </outline>
</glyph>
<glyph name="lslash" format="2">
  <advance height="2479" width="404"/>
  <unicode hex="0142"/>
  <anchor x="111" y="0" name="bottom"/>
  <anchor x="239" y="768" name="cross"/>
  <anchor x="521" y="1489" name="raccent"/>
  <anchor x="390" y="1676" name="top"/>
  <outline>
    <contour>
      <point x="455" y="879" type="line"/>
      <point x="33" y="695" type="line"/>
      <point x="17" y="640" type="line"/>
      <point x="448" y="823" type="line"/>
    </contour>
    <component base="l" xOffset="-17"/>
  </outline>
</glyph>
<glyph name="Eng" format="2">
  <advance height="2479" width="1583"/>
  <unicode hex="014A"/>
  <anchor x="698" y="0" name="bottom"/>
  <anchor x="1207" y="0" name="right"/>
  <anchor x="977" y="1676" name="top"/>
  <outline>
    <contour>
      <point x="1210" y="0" type="line"/>
      <point x="1181" y="-169" type="line" smooth="yes"/>
      <point x="1158" y="-303"/>
      <point x="1097" y="-369"/>
      <point x="991" y="-369" type="curve" smooth="yes"/>
      <point x="971" y="-369"/>
      <point x="954" y="-367"/>
      <point x="941" y="-364" type="curve"/>
      <point x="934" y="-410" type="line"/>
      <point x="947" y="-414"/>
      <point x="968" y="-416"/>
      <point x="991" y="-416" type="curve" smooth="yes"/>
      <point x="1121" y="-416"/>
      <point x="1199" y="-334"/>
      <point x="1228" y="-169" type="curve" smooth="yes"/>
      <point x="1257" y="0" type="line"/>
    </contour>
    <component base="N"/>
  </outline>
</glyph>
<glyph name="eng" format="2">
  <advance height="2479" width="1169"/>
  <unicode hex="014B"/>
  <anchor x="489" y="0" name="bottom"/>
  <anchor x="707" y="1303" name="top"/>
  <outline>
    <contour>
      <point x="826" y="0" type="line"/>
      <point x="799" y="-172" type="line" smooth="yes"/>
      <point x="777" y="-301"/>
      <point x="705" y="-372"/>
      <point x="612" y="-372" type="curve" smooth="yes"/>
      <point x="591" y="-372"/>
      <point x="564" y="-369"/>
      <point x="543" y="-361" type="curve"/>
      <point x="532" y="-406" type="line"/>
      <point x="551" y="-415"/>
      <point x="574" y="-419"/>
      <point x="602" y="-419" type="curve" smooth="yes"/>
      <point x="731" y="-419"/>
      <point x="819" y="-335"/>
      <point x="845" y="-172" type="curve" smooth="yes"/>
      <point x="873" y="0" type="line"/>
    </contour>
    <component base="n"/>
  </outline>
</glyph>
<glyph name="Bhook" format="2">
  <advance height="2479" width="1510"/>
  <unicode hex="0181"/>
  <anchor x="742" y="0" name="bottom"/>
  <anchor x="1004" y="1676" name="top"/>
  <outline>
    <contour>
      <point x="594" y="1443" type="line" name="hr00"/>
      <point x="605" y="1489" type="line"/>
      <point x="472" y="1489" type="line" smooth="yes"/>
      <point x="333" y="1489"/>
      <point x="266" y="1407"/>
      <point x="245" y="1280" type="curve" smooth="yes"/>
      <point x="236" y="1228" type="line"/>
      <point x="282" y="1228" type="line"/>
      <point x="287" y="1254" type="line" smooth="yes"/>
      <point x="307" y="1378"/>
      <point x="351" y="1443"/>
      <point x="466" y="1443" type="curve" smooth="yes"/>
    </contour>
    <component base="B" xOffset="198"/>
  </outline>
</glyph>
<glyph name="Chook" format="2">
  <advance height="2479" width="1444"/>
  <unicode hex="0187"/>
  <anchor x="669" y="0" name="cedilla"/>
  <anchor x="948" y="1676" name="top"/>
  <outline>
    <contour>
      <point x="1408" y="1024" type="line" name="hr00"/>
      <point x="1452" y="1286" type="line" smooth="yes"/>
      <point x="1471" y="1400"/>
      <point x="1520" y="1440"/>
      <point x="1585" y="1440" type="curve" smooth="yes"/>
      <point x="1598" y="1440"/>
      <point x="1615" y="1439"/>
      <point x="1633" y="1436" type="curve"/>
      <point x="1641" y="1482" type="line"/>
      <point x="1624" y="1485"/>
      <point x="1607" y="1487"/>
      <point x="1591" y="1487" type="curve" smooth="yes"/>
      <point x="1491" y="1487"/>
      <point x="1428" y="1425"/>
      <point x="1405" y="1289" type="curve" smooth="yes"/>
      <point x="1361" y="1024" type="line"/>
    </contour>
    <component base="C"/>
  </outline>
</glyph>
<glyph name="chook" format="2">
  <advance height="2479" width="1184"/>
  <unicode hex="0188"/>
  <anchor x="495" y="0" name="cedilla"/>
  <anchor x="710" y="1303" name="top"/>
  <outline>
    <contour>
      <point x="1036" y="791" type="line" name="hr00"/>
      <point x="1065" y="963" type="line" smooth="yes"/>
      <point x="1084" y="1079"/>
      <point x="1134" y="1132"/>
      <point x="1233" y="1132" type="curve" smooth="yes"/>
      <point x="1249" y="1132"/>
      <point x="1276" y="1130"/>
      <point x="1302" y="1127" type="curve"/>
      <point x="1309" y="1174" type="line"/>
      <point x="1285" y="1177"/>
      <point x="1258" y="1178"/>
      <point x="1239" y="1178" type="curve" smooth="yes"/>
      <point x="1111" y="1178"/>
      <point x="1044" y="1113"/>
      <point x="1018" y="963" type="curve" smooth="yes"/>
      <point x="989" y="791" type="line"/>
    </contour>
    <component base="c"/>
  </outline>
</glyph>
<glyph name="dtopbar" format="2">
  <advance height="2479" width="1226"/>
  <unicode hex="018C"/>
  <anchor x="469" y="0" name="bottom"/>
  <anchor x="1089" y="1280" name="cross"/>
  <anchor x="686" y="1303" name="top"/>
  <outline>
    <contour>
      <point x="402" y="1489" type="line" name="hr00"/>
      <point x="395" y="1443" type="line"/>
      <point x="1116" y="1443" type="line"/>
      <point x="1123" y="1489" type="line"/>
    </contour>
    <contour>
      <point x="899" y="0" type="line"/>
      <point x="1147" y="1489" type="line"/>
      <point x="1100" y="1489" type="line"/>
      <point x="991" y="832" type="line"/>
      <point x="985" y="832" type="line"/>
      <point x="958" y="1018"/>
      <point x="835" y="1135"/>
      <point x="658" y="1135" type="curve" smooth="yes"/>
      <point x="395" y="1135"/>
      <point x="185" y="884"/>
      <point x="131" y="556" type="curve" smooth="yes"/>
      <point x="76" y="225"/>
      <point x="202" y="-23"/>
      <point x="466" y="-23" type="curve" smooth="yes"/>
      <point x="646" y="-23"/>
      <point x="803" y="94"/>
      <point x="894" y="279" type="curve"/>
      <point x="899" y="279" type="line"/>
      <point x="853" y="0" type="line"/>
    </contour>
    <contour>
      <point x="946" y="556" type="curve" smooth="yes"/>
      <point x="895" y="253"/>
      <point x="710" y="23"/>
      <point x="473" y="23" type="curve" smooth="yes"/>
      <point x="236" y="23"/>
      <point x="127" y="253"/>
      <point x="178" y="556" type="curve" smooth="yes"/>
      <point x="227" y="858"/>
      <point x="414" y="1088"/>
      <point x="649" y="1088" type="curve" smooth="yes"/>
      <point x="886" y="1088"/>
      <point x="995" y="858"/>
    </contour>
  </outline>
</glyph>
<glyph name="Schwa" format="2">
  <advance height="2479" width="1513"/>
  <unicode hex="018F"/>
  <outline>
    <contour>
      <point x="651" y="-20" type="curve" smooth="yes"/>
      <point x="1028" y="-20"/>
      <point x="1322" y="287"/>
      <point x="1397" y="742" type="curve" smooth="yes"/>
      <point x="1473" y="1201"/>
      <point x="1275" y="1510"/>
      <point x="904" y="1510" type="curve" smooth="yes"/>
      <point x="557" y="1510"/>
      <point x="327" y="1236"/>
      <point x="257" y="1024" type="curve"/>
      <point x="304" y="1024" type="line"/>
      <point x="373" y="1227"/>
      <point x="595" y="1463"/>
      <point x="903" y="1463" type="curve" smooth="yes"/>
      <point x="1243" y="1463"/>
      <point x="1423" y="1177"/>
      <point x="1352" y="748" type="curve" smooth="yes"/>
      <point x="1281" y="321"/>
      <point x="1007" y="26"/>
      <point x="653" y="26" type="curve" smooth="yes"/>
      <point x="344" y="26"/>
      <point x="159" y="255"/>
      <point x="229" y="644" type="curve"/>
      <point x="206" y="628" type="line"/>
      <point x="1352" y="628" type="line"/>
      <point x="1360" y="675" type="line"/>
      <point x="187" y="675" type="line"/>
      <point x="180" y="630" type="line" smooth="yes"/>
      <point x="113" y="223"/>
      <point x="315" y="-20"/>
    </contour>
  </outline>
</glyph>
<glyph name="Fhook" format="2">
  <advance height="2479" width="1150"/>
  <unicode hex="0191"/>
  <anchor x="370" y="12" name="bottom"/>
  <anchor x="184" y="410" name="cross"/>
  <anchor x="771" y="1676" name="top"/>
  <outline>
    <contour>
      <point x="90" y="0" type="line"/>
      <point x="61" y="-169" type="line" smooth="yes"/>
      <point x="38" y="-303"/>
      <point x="-23" y="-369"/>
      <point x="-129" y="-369" type="curve" smooth="yes"/>
      <point x="-149" y="-369"/>
      <point x="-166" y="-367"/>
      <point x="-179" y="-364" type="curve"/>
      <point x="-186" y="-410" type="line"/>
      <point x="-173" y="-414"/>
      <point x="-152" y="-416"/>
      <point x="-129" y="-416" type="curve" smooth="yes"/>
      <point x="1" y="-416"/>
      <point x="79" y="-334"/>
      <point x="108" y="-169" type="curve" smooth="yes"/>
      <point x="137" y="0" type="line"/>
    </contour>
    <component base="F" xOffset="-49"/>
  </outline>
</glyph>
<glyph name="Gamma-latin" format="2">
  <advance height="2479" width="1057"/>
  <unicode hex="0194"/>
  <outline>
    <contour>
      <point x="116" y="1489" type="line"/>
      <point x="444" y="111" type="line" smooth="yes"/>
      <point x="508" y="-167"/>
      <point x="524" y="-253"/>
      <point x="516" y="-294" type="curve" smooth="yes"/>
      <point x="505" y="-352"/>
      <point x="449" y="-396"/>
      <point x="374" y="-396" type="curve" smooth="yes"/>
      <point x="299" y="-396"/>
      <point x="260" y="-353"/>
      <point x="271" y="-295" type="curve" smooth="yes"/>
      <point x="279" y="-253"/>
      <point x="325" y="-164"/>
      <point x="471" y="92" type="curve" smooth="yes"/>
      <point x="1265" y="1489" type="line"/>
      <point x="1212" y="1489" type="line"/>
      <point x="394" y="49" type="line" smooth="yes"/>
      <point x="259" y="-189"/>
      <point x="231" y="-244"/>
      <point x="224" y="-285" type="curve" smooth="yes"/>
      <point x="209" y="-371"/>
      <point x="268" y="-442"/>
      <point x="375" y="-442" type="curve" smooth="yes"/>
      <point x="476" y="-442"/>
      <point x="548" y="-378"/>
      <point x="563" y="-294" type="curve" smooth="yes"/>
      <point x="572" y="-244"/>
      <point x="558" y="-172"/>
      <point x="500" y="71" type="curve" smooth="yes"/>
      <point x="164" y="1489" type="line"/>
    </contour>
  </outline>
</glyph>
<glyph name="hv" format="2">
  <advance height="2479" width="1924"/>
  <unicode hex="0195"/>
  <outline>
    <contour>
      <point x="105" y="0" type="line"/>
      <point x="151" y="0" type="line"/>
      <point x="276" y="751" type="line" smooth="yes"/>
      <point x="308" y="945"/>
      <point x="474" y="1085"/>
      <point x="672" y="1085" type="curve" smooth="yes"/>
      <point x="870" y="1085"/>
      <point x="984" y="948"/>
      <point x="951" y="751" type="curve" smooth="yes"/>
      <point x="909" y="495" type="line"/>
      <point x="956" y="495" type="line"/>
      <point x="998" y="751" type="line" smooth="yes"/>
      <point x="1034" y="975"/>
      <point x="903" y="1132"/>
      <point x="679" y="1132" type="curve" smooth="yes"/>
      <point x="527" y="1132"/>
      <point x="385" y="1057"/>
      <point x="313" y="940" type="curve"/>
      <point x="307" y="940" type="line"/>
      <point x="399" y="1489" type="line"/>
      <point x="352" y="1489" type="line"/>
    </contour>
    <contour>
      <point x="1132" y="-19" type="curve" smooth="yes"/>
      <point x="1443" y="-19"/>
      <point x="1642" y="321"/>
      <point x="1757" y="1015" type="curve" smooth="yes"/>
      <point x="1773" y="1117" type="line"/>
      <point x="1727" y="1117" type="line"/>
      <point x="1713" y="1033" type="line" smooth="yes"/>
      <point x="1601" y="363"/>
      <point x="1417" y="28"/>
      <point x="1139" y="28" type="curve" smooth="yes"/>
      <point x="957" y="28"/>
      <point x="898" y="148"/>
      <point x="945" y="439" type="curve" smooth="yes"/>
      <point x="976" y="623" type="line"/>
      <point x="929" y="623" type="line"/>
      <point x="899" y="439" type="line" smooth="yes"/>
      <point x="849" y="130"/>
      <point x="927" y="-19"/>
    </contour>
  </outline>
</glyph>
<glyph name="Khook" format="2">
  <advance height="2479" width="1341"/>
  <unicode hex="0198"/>
  <outline>
    <contour>
      <point x="140" y="0" type="line"/>
      <point x="186" y="0" type="line"/>
      <point x="268" y="486" type="line"/>
      <point x="532" y="733" type="line"/>
      <point x="1105" y="0" type="line"/>
      <point x="1164" y="0" type="line"/>
      <point x="566" y="764" type="line"/>
      <point x="1239" y="1388" type="line"/>
      <point x="1305" y="1455"/>
      <point x="1370" y="1466"/>
      <point x="1437" y="1420" type="curve"/>
      <point x="1469" y="1450" type="line"/>
      <point x="1385" y="1518"/>
      <point x="1306" y="1508"/>
      <point x="1225" y="1433" type="curve" smooth="yes"/>
      <point x="284" y="563" type="line"/>
      <point x="279" y="561" type="line"/>
      <point x="433" y="1489" type="line"/>
      <point x="387" y="1489" type="line"/>
    </contour>
  </outline>
</glyph>
<glyph name="Nhookleft" format="2">
  <advance height="2479" width="1532"/>
  <unicode hex="019D"/>
  <anchor x="647" y="0" name="bottom"/>
  <anchor x="1156" y="0" name="right"/>
  <anchor x="926" y="1676" name="top"/>
  <outline>
    <contour>
      <point x="89" y="0" type="line"/>
      <point x="60" y="-169" type="line" smooth="yes"/>
      <point x="36" y="-303"/>
      <point x="-25" y="-369"/>
      <point x="-131" y="-369" type="curve" smooth="yes"/>
      <point x="-151" y="-369"/>
      <point x="-167" y="-367"/>
      <point x="-180" y="-364" type="curve"/>
      <point x="-188" y="-410" type="line"/>
      <point x="-175" y="-414"/>
      <point x="-153" y="-416"/>
      <point x="-131" y="-416" type="curve" smooth="yes"/>
      <point x="0" y="-416"/>
      <point x="78" y="-334"/>
      <point x="106" y="-169" type="curve" smooth="yes"/>
      <point x="135" y="0" type="line"/>
    </contour>
    <component base="N" xOffset="-51"/>
  </outline>
</glyph>
<glyph name="Ohorn" format="2">
  <advance height="2479" width="1505"/>
  <unicode hex="01A0"/>
  <anchor x="672" y="0" name="bottom"/>
  <anchor x="710" y="0" name="ogonek"/>
  <anchor x="372" y="1489" name="tonos"/>
  <anchor x="945" y="1676" name="top"/>
  <outline>
    <contour>
      <point x="1546" y="1603" type="line"/>
      <point x="1511" y="1441"/>
      <point x="1441" y="1380"/>
      <point x="1296" y="1341" type="curve"/>
      <point x="1293" y="1295" type="line"/>
      <point x="1468" y="1335"/>
      <point x="1552" y="1408"/>
      <point x="1593" y="1603" type="curve"/>
    </contour>
    <component base="O"/>
  </outline>
</glyph>
<glyph name="oi" format="2">
  <advance height="2479" width="1275"/>
  <unicode hex="01A3"/>
  <outline>
    <contour>
      <point x="484" y="20" type="curve" smooth="yes"/>
      <point x="252" y="23"/>
      <point x="122" y="228"/>
      <point x="170" y="515" type="curve" smooth="yes"/>
      <point x="174" y="541" type="line" smooth="yes"/>
      <point x="241" y="871"/>
      <point x="430" y="1088"/>
      <point x="666" y="1088" type="curve" smooth="yes"/>
      <point x="740" y="1088"/>
      <point x="805" y="1068"/>
      <point x="857" y="1034" type="curve"/>
      <point x="759" y="444" type="line"/>
      <point x="806" y="444" type="line"/>
      <point x="907" y="1062" type="line"/>
      <point x="837" y="1108"/>
      <point x="762" y="1135"/>
      <point x="673" y="1135" type="curve" smooth="yes"/>
      <point x="410" y="1135"/>
      <point x="187" y="900"/>
      <point x="128" y="541" type="curve" smooth="yes"/>
      <point x="125" y="522" type="line" smooth="yes"/>
      <point x="73" y="204"/>
      <point x="227" y="-24"/>
      <point x="475" y="-26" type="curve" smooth="yes"/>
      <point x="570" y="-27"/>
      <point x="651" y="3"/>
      <point x="742" y="58" type="curve"/>
      <point x="854" y="737" type="line"/>
      <point x="807" y="737" type="line"/>
      <point x="699" y="83" type="line"/>
      <point x="635" y="44"/>
      <point x="564" y="20"/>
    </contour>
    <contour>
      <point x="1168" y="1117" type="line"/>
      <point x="1104" y="1117" type="line"/>
      <point x="883" y="985" type="line"/>
      <point x="874" y="929" type="line"/>
      <point x="1114" y="1073" type="line"/>
      <point x="868" y="-419" type="line"/>
      <point x="915" y="-419" type="line"/>
    </contour>
  </outline>
</glyph>
<glyph name="phook" format="2">
  <advance height="2479" width="1201"/>
  <unicode hex="01A5"/>
  <anchor x="58" y="-419" name="bottom"/>
  <anchor x="974" y="-506" name="bottom0315"/>
  <anchor x="102" y="-163" name="cross"/>
  <anchor x="750" y="1303" name="top"/>
  <outline>
    <contour>
      <point x="332" y="1117" type="line"/>
      <point x="354" y="1266"/>
      <point x="404" y="1305"/>
      <point x="499" y="1305" type="curve" smooth="yes"/>
      <point x="519" y="1305"/>
      <point x="546" y="1303"/>
      <point x="572" y="1300" type="curve"/>
      <point x="579" y="1347" type="line"/>
      <point x="555" y="1350"/>
      <point x="528" y="1351"/>
      <point x="505" y="1351" type="curve" smooth="yes"/>
      <point x="380" y="1351"/>
      <point x="313" y="1301"/>
      <point x="285" y="1117" type="curve"/>
    </contour>
    <component base="p"/>
  </outline>
</glyph>
<glyph name="Tonetwo" format="2">
  <advance height="2479" width="1254"/>
  <unicode hex="01A7"/>
  <anchor x="529" y="-23" name="bottom"/>
  <anchor x="533" y="0" name="cedilla"/>
  <anchor x="811" y="1676" name="top"/>
  <outline>
    <contour>
      <point x="316" y="1117" type="line"/>
      <point x="364" y="1321"/>
      <point x="540" y="1466"/>
      <point x="770" y="1466" type="curve" smooth="yes"/>
      <point x="998" y="1466"/>
      <point x="1142" y="1324"/>
      <point x="1109" y="1129" type="curve" smooth="yes"/>
      <point x="1084" y="977"/>
      <point x="967" y="874"/>
      <point x="743" y="809" type="curve" smooth="yes"/>
      <point x="565" y="756" type="line" smooth="yes"/>
      <point x="295" y="677"/>
      <point x="158" y="561"/>
      <point x="127" y="378" type="curve" smooth="yes"/>
      <point x="89" y="145"/>
      <point x="253" y="-23"/>
      <point x="535" y="-23" type="curve" smooth="yes"/>
      <point x="807" y="-23"/>
      <point x="1011" y="130"/>
      <point x="1063" y="349" type="curve"/>
      <point x="1016" y="349" type="line"/>
      <point x="969" y="156"/>
      <point x="788" y="23"/>
      <point x="543" y="23" type="curve" smooth="yes"/>
      <point x="287" y="23"/>
      <point x="139" y="167"/>
      <point x="174" y="378" type="curve" smooth="yes"/>
      <point x="200" y="538"/>
      <point x="316" y="635"/>
      <point x="569" y="710" type="curve" smooth="yes"/>
      <point x="747" y="762" type="line" smooth="yes"/>
      <point x="993" y="836"/>
      <point x="1128" y="956"/>
      <point x="1156" y="1129" type="curve" smooth="yes"/>
      <point x="1193" y="1348"/>
      <point x="1032" y="1513"/>
      <point x="777" y="1513" type="curve" smooth="yes"/>
      <point x="522" y="1513"/>
      <point x="322" y="1347"/>
      <point x="270" y="1117" type="curve"/>
    </contour>
  </outline>
</glyph>
<glyph name="eshreversedloop" format="2">
  <advance height="2479" width="911"/>
  <unicode hex="01AA"/>
  <outline>
    <contour>
      <point x="698" y="1264" type="line"/>
      <point x="463" y="-163" type="line" smooth="yes"/>
      <point x="434" y="-335"/>
      <point x="476" y="-419"/>
      <point x="592" y="-419" type="curve" smooth="yes"/>
      <point x="615" y="-419"/>
      <point x="641" y="-415"/>
      <point x="659" y="-410" type="curve"/>
      <point x="668" y="-364" type="line"/>
      <point x="647" y="-369"/>
      <point x="620" y="-372"/>
      <point x="596" y="-372" type="curve" smooth="yes"/>
      <point x="506" y="-372"/>
      <point x="484" y="-317"/>
      <point x="509" y="-163" type="curve" smooth="yes"/>
      <point x="749" y="1293" type="line"/>
    </contour>
    <contour>
      <point x="217" y="1290" type="curve" smooth="yes"/>
      <point x="193" y="1147"/>
      <point x="297" y="1023"/>
      <point x="442" y="1024" type="curve" smooth="yes"/>
      <point x="593" y="1025"/>
      <point x="725" y="1137"/>
      <point x="749" y="1290" type="curve" smooth="yes"/>
      <point x="772" y="1433"/>
      <point x="671" y="1556"/>
      <point x="524" y="1556" type="curve" smooth="yes"/>
      <point x="372" y="1556"/>
      <point x="243" y="1446"/>
    </contour>
    <contour>
      <point x="447" y="1071" type="curve" smooth="yes"/>
      <point x="324" y="1070"/>
      <point x="242" y="1167"/>
      <point x="263" y="1290" type="curve" smooth="yes"/>
      <point x="284" y="1412"/>
      <point x="399" y="1510"/>
      <point x="519" y="1510" type="curve" smooth="yes"/>
      <point x="647" y="1510"/>
      <point x="721" y="1416"/>
      <point x="703" y="1290" type="curve" smooth="yes"/>
      <point x="684" y="1169"/>
      <point x="570" y="1071"/>
    </contour>
  </outline>
</glyph>
<glyph name="tpalatalhook" format="2">
  <advance height="2479" width="715"/>
  <unicode hex="01AB"/>
  <anchor x="343" y="0" name="bottom"/>
  <anchor x="367" y="0" name="cedilla"/>
  <anchor x="623" y="1562" name="raccent"/>
  <anchor x="445" y="1489" name="top"/>
  <outline>
    <contour>
      <point x="480" y="28" type="line"/>
      <point x="449" y="-169" type="line" smooth="yes"/>
      <point x="429" y="-298"/>
      <point x="356" y="-369"/>
      <point x="263" y="-369" type="curve" smooth="yes"/>
      <point x="241" y="-369"/>
      <point x="215" y="-366"/>
      <point x="193" y="-358" type="curve"/>
      <point x="183" y="-403" type="line"/>
      <point x="201" y="-412"/>
      <point x="225" y="-416"/>
      <point x="253" y="-416" type="curve" smooth="yes"/>
      <point x="382" y="-416"/>
      <point x="471" y="-332"/>
      <point x="496" y="-169" type="curve" smooth="yes"/>
      <point x="529" y="47" type="line"/>
    </contour>
    <component base="t"/>
  </outline>
</glyph>
<glyph name="thook" format="2">
  <advance height="2479" width="713"/>
  <unicode hex="01AD"/>
  <outline>
    <contour>
      <point x="428" y="-20" type="curve" smooth="yes"/>
      <point x="463" y="-20"/>
      <point x="489" y="-15"/>
      <point x="521" y="-3" type="curve"/>
      <point x="515" y="41" type="line"/>
      <point x="486" y="32"/>
      <point x="463" y="26"/>
      <point x="436" y="26" type="curve" smooth="yes"/>
      <point x="323" y="26"/>
      <point x="240" y="105"/>
      <point x="262" y="236" type="curve" smooth="yes"/>
      <point x="428" y="1242" type="line"/>
      <point x="381" y="1242" type="line"/>
      <point x="215" y="236" type="line" smooth="yes"/>
      <point x="189" y="79"/>
      <point x="291" y="-20"/>
    </contour>
    <contour>
      <point x="189" y="1071" type="line"/>
      <point x="631" y="1071" type="line"/>
      <point x="640" y="1117" type="line"/>
      <point x="198" y="1117" type="line"/>
    </contour>
    <contour>
      <point x="380" y="1235" type="line"/>
      <point x="426" y="1235" type="line"/>
      <point x="436" y="1297" type="line" smooth="yes"/>
      <point x="455" y="1415"/>
      <point x="508" y="1466"/>
      <point x="605" y="1466" type="curve" smooth="yes"/>
      <point x="623" y="1466"/>
      <point x="652" y="1465"/>
      <point x="673" y="1462" type="curve"/>
      <point x="681" y="1508" type="line"/>
      <point x="660" y="1511"/>
      <point x="632" y="1513"/>
      <point x="611" y="1513" type="curve" smooth="yes"/>
      <point x="487" y="1513"/>
      <point x="417" y="1454"/>
      <point x="393" y="1312" type="curve" smooth="yes"/>
    </contour>
  </outline>
</glyph>
<glyph name="Uhorn" format="2">
  <advance height="2479" width="1671"/>
  <unicode hex="01AF"/>
  <anchor x="671" y="-23" name="bottom"/>
  <anchor x="738" y="0" name="ogonek"/>
  <anchor x="738" y="0" name="right"/>
  <anchor x="953" y="1676" name="top"/>
  <outline>
    <contour>
      <point x="1673" y="1603" type="line"/>
      <point x="1637" y="1441"/>
      <point x="1567" y="1380"/>
      <point x="1423" y="1341" type="curve"/>
      <point x="1420" y="1295" type="line"/>
      <point x="1594" y="1335"/>
      <point x="1679" y="1408"/>
      <point x="1719" y="1603" type="curve"/>
    </contour>
    <component base="U"/>
  </outline>
</glyph>
<glyph name="uhorn" format="2">
  <advance height="2479" width="1097"/>
  <unicode hex="01B0"/>
  <anchor x="482" y="0" name="bottom"/>
  <anchor x="866" y="0" name="ogonek"/>
  <anchor x="697" y="1303" name="top"/>
  <outline>
    <contour>
      <point x="1222" y="1155" type="line"/>
      <point x="1187" y="998"/>
      <point x="1120" y="932"/>
      <point x="986" y="932" type="curve"/>
      <point x="983" y="886" type="line"/>
      <point x="1148" y="887"/>
      <point x="1229" y="966"/>
      <point x="1268" y="1155" type="curve"/>
    </contour>
    <component base="u" xOffset="-6"/>
  </outline>
</glyph>
<glyph name="Yhook" format="2">
  <advance height="2479" width="1275"/>
  <unicode hex="01B3"/>
  <outline>
    <contour>
      <point x="588" y="724" type="line"/>
      <point x="623" y="724" type="line"/>
      <point x="628" y="759" type="line"/>
      <point x="593" y="759" type="line"/>
    </contour>
    <contour>
      <point x="176" y="1489" type="line"/>
      <point x="580" y="707" type="line"/>
      <point x="464" y="0" type="line"/>
      <point x="511" y="0" type="line"/>
      <point x="627" y="707" type="line"/>
      <point x="1219" y="1404" type="line" smooth="yes"/>
      <point x="1272" y="1466"/>
      <point x="1353" y="1476"/>
      <point x="1396" y="1443" type="curve"/>
      <point x="1434" y="1473" type="line"/>
      <point x="1373" y="1529"/>
      <point x="1258" y="1523"/>
      <point x="1180" y="1430" type="curve" smooth="yes"/>
      <point x="607" y="752" type="line"/>
      <point x="228" y="1489" type="line"/>
    </contour>
  </outline>
</glyph>
<glyph name="yhook" format="2">
  <advance height="2479" width="1114"/>
  <unicode hex="01B4"/>
  <outline>
    <contour>
      <point x="86" y="-419" type="curve" smooth="yes"/>
      <point x="191" y="-419"/>
      <point x="294" y="-345"/>
      <point x="368" y="-204" type="curve" smooth="yes"/>
      <point x="1059" y="1117" type="line" smooth="yes"/>
      <point x="1137" y="1267"/>
      <point x="1184" y="1305"/>
      <point x="1267" y="1305" type="curve" smooth="yes"/>
      <point x="1290" y="1305"/>
      <point x="1316" y="1303"/>
      <point x="1350" y="1295" type="curve"/>
      <point x="1360" y="1340" type="line"/>
      <point x="1331" y="1348"/>
      <point x="1303" y="1351"/>
      <point x="1273" y="1351" type="curve" smooth="yes"/>
      <point x="1158" y="1351"/>
      <point x="1104" y="1303"/>
      <point x="1007" y="1117" type="curve" smooth="yes"/>
      <point x="452" y="58" type="line"/>
      <point x="447" y="58" type="line"/>
      <point x="244" y="1117" type="line"/>
      <point x="198" y="1117" type="line"/>
      <point x="413" y="-17" type="line"/>
      <point x="326" y="-183" type="line" smooth="yes"/>
      <point x="239" y="-348"/>
      <point x="118" y="-412"/>
      <point x="-10" y="-349" type="curve"/>
      <point x="-33" y="-390" type="line"/>
      <point x="7" y="-409"/>
      <point x="48" y="-419"/>
    </contour>
  </outline>
</glyph>
<glyph name="Ezh" format="2">
  <advance height="2479" width="1421"/>
  <unicode hex="01B7"/>
  <anchor x="897" y="1676" name="top"/>
  <outline>
    <contour>
      <point x="45" y="73" type="line"/>
      <point x="-5" y="-230"/>
      <point x="213" y="-442"/>
      <point x="528" y="-442" type="curve" smooth="yes"/>
      <point x="891" y="-442"/>
      <point x="1144" y="-157"/>
      <point x="1197" y="154" type="curve" smooth="yes"/>
      <point x="1253" y="492"/>
      <point x="1022" y="751"/>
      <point x="624" y="768" type="curve"/>
      <point x="624" y="774" type="line"/>
      <point x="1362" y="1452" type="line"/>
      <point x="1368" y="1489" type="line"/>
      <point x="359" y="1489" type="line"/>
      <point x="350" y="1443" type="line"/>
      <point x="1313" y="1443" type="line"/>
      <point x="1319" y="1469" type="line"/>
      <point x="554" y="768" type="line"/>
      <point x="545" y="721" type="line"/>
      <point x="615" y="721" type="line" smooth="yes"/>
      <point x="981" y="707"/>
      <point x="1202" y="472"/>
      <point x="1150" y="154" type="curve" smooth="yes"/>
      <point x="1098" y="-169"/>
      <point x="836" y="-396"/>
      <point x="525" y="-396" type="curve" smooth="yes"/>
      <point x="240" y="-396"/>
      <point x="48" y="-201"/>
      <point x="91" y="73" type="curve"/>
    </contour>
  </outline>
</glyph>
<glyph name="Ezhreversed" format="2">
  <advance height="2479" width="1419"/>
  <unicode hex="01B8"/>
  <anchor x="894" y="1676" name="top"/>
  <outline>
    <contour>
      <point x="1214" y="73" type="curve"/>
      <point x="1167" y="73" type="line"/>
      <point x="1121" y="-199"/>
      <point x="863" y="-396"/>
      <point x="568" y="-396" type="curve" smooth="yes"/>
      <point x="267" y="-396"/>
      <point x="82" y="-169"/>
      <point x="134" y="144" type="curve" smooth="yes"/>
      <point x="188" y="471"/>
      <point x="486" y="705"/>
      <point x="862" y="721" type="curve" smooth="yes"/>
      <point x="928" y="721" type="line"/>
      <point x="936" y="768" type="line"/>
      <point x="403" y="1471" type="line"/>
      <point x="399" y="1443" type="line"/>
      <point x="1362" y="1443" type="line"/>
      <point x="1369" y="1489" type="line"/>
      <point x="360" y="1489" type="line"/>
      <point x="354" y="1452" type="line"/>
      <point x="867" y="774" type="line"/>
      <point x="866" y="768" type="line"/>
      <point x="462" y="751"/>
      <point x="145" y="492"/>
      <point x="88" y="144" type="curve" smooth="yes"/>
      <point x="38" y="-157"/>
      <point x="198" y="-442"/>
      <point x="560" y="-442" type="curve" smooth="yes"/>
      <point x="875" y="-442"/>
      <point x="1163" y="-230"/>
    </contour>
  </outline>
</glyph>
<glyph name="clickdental" format="2">
  <advance height="2479" width="381"/>
  <unicode hex="01C0"/>
  <outline>
    <contour>
      <point x="374" y="1516" type="line"/>
      <point x="327" y="1516" type="line"/>
      <point x="76" y="0" type="line"/>
      <point x="122" y="0" type="line"/>
    </contour>
  </outline>
</glyph>
<glyph name="Gstroke" format="2">
  <advance height="2479" width="1513"/>
  <unicode hex="01E4"/>
  <anchor x="660" y="0" name="bottom"/>
  <anchor x="940" y="1676" name="top"/>
  <outline>
    <contour>
      <point x="1411" y="465" type="line"/>
      <point x="771" y="465" type="line"/>
      <point x="762" y="419" type="line"/>
      <point x="1402" y="419" type="line"/>
    </contour>
    <component base="G"/>
  </outline>
</glyph>
<glyph name="Nlongrightleg" format="2">
  <advance height="2479" width="1318"/>
  <unicode hex="0220"/>
  <outline>
    <contour>
      <point x="876" y="-419" type="line"/>
      <point x="923" y="-419" type="line"/>
      <point x="1157" y="1000" type="line" smooth="yes"/>
      <point x="1207" y="1298"/>
      <point x="1069" y="1510"/>
      <point x="816" y="1510" type="curve" smooth="yes"/>
      <point x="644" y="1510"/>
      <point x="484" y="1409"/>
      <point x="400" y="1254" type="curve"/>
      <point x="393" y="1254" type="line"/>
      <point x="433" y="1490" type="line"/>
      <point x="386" y="1490" type="line"/>
      <point x="140" y="0" type="line"/>
      <point x="186" y="0" type="line"/>
      <point x="351" y="1000" type="line" smooth="yes"/>
      <point x="395" y="1260"/>
      <point x="591" y="1463"/>
      <point x="815" y="1463" type="curve" smooth="yes"/>
      <point x="1036" y="1463"/>
      <point x="1155" y="1266"/>
      <point x="1111" y="1003" type="curve" smooth="yes"/>
    </contour>
  </outline>
</glyph>
<glyph name="OU" format="2">
  <advance height="2479" width="1158"/>
  <unicode hex="0222"/>
  <outline>
    <contour>
      <point x="605" y="831" type="line" smooth="yes"/>
      <point x="265" y="831"/>
      <point x="78" y="685"/>
      <point x="32" y="406" type="curve" smooth="yes"/>
      <point x="-13" y="129"/>
      <point x="151" y="-20"/>
      <point x="476" y="-20" type="curve" smooth="yes"/>
      <point x="489" y="-20" type="line" smooth="yes"/>
      <point x="826" y="-20"/>
      <point x="1025" y="117"/>
      <point x="1073" y="406" type="curve" smooth="yes"/>
      <point x="1118" y="675"/>
      <point x="971" y="831"/>
      <point x="640" y="831" type="curve" smooth="yes"/>
    </contour>
    <contour>
      <point x="633" y="784" type="line" smooth="yes"/>
      <point x="943" y="784"/>
      <point x="1067" y="650"/>
      <point x="1027" y="406" type="curve" smooth="yes"/>
      <point x="985" y="153"/>
      <point x="802" y="26"/>
      <point x="497" y="26" type="curve" smooth="yes"/>
      <point x="483" y="26" type="line" smooth="yes"/>
      <point x="175" y="26"/>
      <point x="37" y="154"/>
      <point x="79" y="406" type="curve" smooth="yes"/>
      <point x="119" y="652"/>
      <point x="285" y="784"/>
      <point x="598" y="784" type="curve" smooth="yes"/>
    </contour>
    <contour>
      <point x="605" y="831" type="line" smooth="yes"/>
      <point x="324" y="831"/>
      <point x="187" y="940"/>
      <point x="224" y="1165" type="curve" smooth="yes"/>
      <point x="252" y="1334"/>
      <point x="355" y="1433"/>
      <point x="484" y="1460" type="curve"/>
      <point x="493" y="1510" type="line"/>
      <point x="329" y="1477"/>
      <point x="211" y="1365"/>
      <point x="177" y="1165" type="curve" smooth="yes"/>
      <point x="136" y="916"/>
      <point x="298" y="784"/>
      <point x="598" y="784" type="curve" smooth="yes"/>
      <point x="633" y="784" type="line" smooth="yes"/>
      <point x="944" y="784"/>
      <point x="1137" y="912"/>
      <point x="1178" y="1165" type="curve" smooth="yes"/>
      <point x="1211" y="1367"/>
      <point x="1109" y="1493"/>
      <point x="953" y="1519" type="curve"/>
      <point x="944" y="1471" type="line"/>
      <point x="1080" y="1449"/>
      <point x="1161" y="1344"/>
      <point x="1132" y="1165" type="curve" smooth="yes"/>
      <point x="1095" y="941"/>
      <point x="921" y="831"/>
      <point x="641" y="831" type="curve" smooth="yes"/>
    </contour>
  </outline>
</glyph>
<glyph name="ou" format="2">
  <advance height="2479" width="1212"/>
  <unicode hex="0223"/>
  <outline>
    <contour>
      <point x="605" y="829" type="line" smooth="yes"/>
      <point x="270" y="829"/>
      <point x="79" y="689"/>
      <point x="32" y="412" type="curve" smooth="yes"/>
      <point x="-13" y="141"/>
      <point x="153" y="-20"/>
      <point x="476" y="-20" type="curve" smooth="yes"/>
      <point x="543" y="-20" type="line" smooth="yes"/>
      <point x="872" y="-20"/>
      <point x="1082" y="135"/>
      <point x="1127" y="412" type="curve" smooth="yes"/>
      <point x="1172" y="681"/>
      <point x="1019" y="829"/>
      <point x="694" y="829" type="curve" smooth="yes"/>
    </contour>
    <contour>
      <point x="687" y="783" type="line" smooth="yes"/>
      <point x="992" y="783"/>
      <point x="1123" y="660"/>
      <point x="1081" y="412" type="curve" smooth="yes"/>
      <point x="1039" y="164"/>
      <point x="849" y="26"/>
      <point x="551" y="26" type="curve" smooth="yes"/>
      <point x="483" y="26" type="line" smooth="yes"/>
      <point x="178" y="26"/>
      <point x="37" y="161"/>
      <point x="79" y="412" type="curve" smooth="yes"/>
      <point x="119" y="655"/>
      <point x="296" y="783"/>
      <point x="598" y="783" type="curve" smooth="yes"/>
    </contour>
    <contour>
      <point x="710" y="829" type="curve" smooth="yes"/>
      <point x="591" y="829" type="line" smooth="yes"/>
      <point x="306" y="829"/>
      <point x="175" y="954"/>
      <point x="214" y="1188" type="curve" smooth="yes"/>
      <point x="242" y="1361"/>
      <point x="334" y="1468"/>
      <point x="476" y="1498" type="curve"/>
      <point x="484" y="1548" type="line"/>
      <point x="306" y="1512"/>
      <point x="201" y="1393"/>
      <point x="167" y="1188" type="curve" smooth="yes"/>
      <point x="126" y="934"/>
      <point x="281" y="783"/>
      <point x="583" y="783" type="curve" smooth="yes"/>
      <point x="701" y="783" type="line" smooth="yes"/>
      <point x="1012" y="783"/>
      <point x="1207" y="927"/>
      <point x="1251" y="1188" type="curve" smooth="yes"/>
      <point x="1285" y="1391"/>
      <point x="1202" y="1527"/>
      <point x="1027" y="1556" type="curve"/>
      <point x="1018" y="1511" type="line"/>
      <point x="1171" y="1484"/>
      <point x="1234" y="1375"/>
      <point x="1204" y="1188" type="curve" smooth="yes"/>
      <point x="1168" y="962"/>
      <point x="985" y="829"/>
    </contour>
  </outline>
</glyph>
<glyph name="Zhook" format="2">
  <advance height="2479" width="1194"/>
  <unicode hex="0224"/>
  <outline>
    <contour>
      <point x="282" y="1443" type="line"/>
      <point x="1146" y="1443" type="line"/>
      <point x="44" y="47" type="line"/>
      <point x="35" y="0" type="line"/>
      <point x="772" y="0" type="line" smooth="yes"/>
      <point x="884" y="0"/>
      <point x="918" y="-52"/>
      <point x="896" y="-182" type="curve"/>
      <point x="896" y="-186" type="line"/>
      <point x="943" y="-186" type="line"/>
      <point x="947" y="-156" type="line" smooth="yes"/>
      <point x="969" y="-29"/>
      <point x="909" y="47"/>
      <point x="783" y="47" type="curve" smooth="yes"/>
      <point x="102" y="47" type="line"/>
      <point x="1207" y="1443" type="line"/>
      <point x="1213" y="1489" type="line"/>
      <point x="288" y="1489" type="line"/>
    </contour>
  </outline>
</glyph>
<glyph name="ncurl" format="2">
  <advance height="2479" width="1527"/>
  <unicode hex="0235"/>
  <anchor x="489" y="0" name="bottom"/>
  <anchor x="707" y="1303" name="top"/>
  <outline>
    <contour>
      <point x="870" y="263" type="line"/>
      <point x="826" y="0" type="line" smooth="yes"/>
      <point x="803" y="-142"/>
      <point x="898" y="-250"/>
      <point x="1044" y="-250" type="curve" smooth="yes"/>
      <point x="1185" y="-250"/>
      <point x="1313" y="-151"/>
      <point x="1332" y="-23" type="curve" smooth="yes"/>
      <point x="1352" y="102"/>
      <point x="1260" y="204"/>
      <point x="1114" y="204" type="curve" smooth="yes"/>
      <point x="983" y="204"/>
      <point x="863" y="124"/>
      <point x="685" y="-106" type="curve" smooth="yes"/>
      <point x="592" y="-227" type="line"/>
      <point x="630" y="-250" type="line"/>
      <point x="723" y="-129" type="line" smooth="yes"/>
      <point x="889" y="86"/>
      <point x="1001" y="157"/>
      <point x="1114" y="157" type="curve" smooth="yes"/>
      <point x="1232" y="157"/>
      <point x="1304" y="75"/>
      <point x="1286" y="-23" type="curve" smooth="yes"/>
      <point x="1267" y="-124"/>
      <point x="1160" y="-204"/>
      <point x="1044" y="-204" type="curve" smooth="yes"/>
      <point x="923" y="-204"/>
      <point x="853" y="-116"/>
      <point x="873" y="0" type="curve" smooth="yes"/>
      <point x="916" y="262" type="line"/>
    </contour>
    <component base="n"/>
  </outline>
</glyph>
<glyph name="qpdigraph" format="2">
  <advance height="2479" width="1940"/>
  <unicode hex="0239"/>
  <outline>
    <contour>
      <point x="785" y="-419" type="line"/>
      <point x="831" y="-419" type="line"/>
      <point x="947" y="279" type="line"/>
      <point x="953" y="279" type="line"/>
      <point x="982" y="93"/>
      <point x="1104" y="-23"/>
      <point x="1282" y="-23" type="curve" smooth="yes"/>
      <point x="1543" y="-23"/>
      <point x="1753" y="227"/>
      <point x="1809" y="556" type="curve" smooth="yes"/>
      <point x="1863" y="887"/>
      <point x="1738" y="1135"/>
      <point x="1474" y="1135" type="curve" smooth="yes"/>
      <point x="1293" y="1135"/>
      <point x="1136" y="1018"/>
      <point x="1046" y="832" type="curve"/>
      <point x="1040" y="832" type="line"/>
      <point x="1086" y="1117" type="line"/>
      <point x="1040" y="1117" type="line"/>
      <point x="992" y="832" type="line"/>
      <point x="985" y="832" type="line"/>
      <point x="955" y="1017"/>
      <point x="837" y="1135"/>
      <point x="658" y="1135" type="curve" smooth="yes"/>
      <point x="393" y="1135"/>
      <point x="185" y="886"/>
      <point x="131" y="556" type="curve" smooth="yes"/>
      <point x="77" y="227"/>
      <point x="204" y="-23"/>
      <point x="466" y="-23" type="curve" smooth="yes"/>
      <point x="643" y="-23"/>
      <point x="805" y="93"/>
      <point x="894" y="279" type="curve"/>
      <point x="899" y="279" type="line"/>
    </contour>
    <contour>
      <point x="474" y="23" type="curve" smooth="yes"/>
      <point x="238" y="23"/>
      <point x="128" y="253"/>
      <point x="179" y="556" type="curve" smooth="yes"/>
      <point x="228" y="858"/>
      <point x="414" y="1088"/>
      <point x="650" y="1088" type="curve" smooth="yes"/>
      <point x="888" y="1088"/>
      <point x="996" y="858"/>
      <point x="947" y="556" type="curve" smooth="yes"/>
      <point x="896" y="253"/>
      <point x="710" y="23"/>
    </contour>
    <contour>
      <point x="1282" y="23" type="curve" smooth="yes"/>
      <point x="1046" y="23"/>
      <point x="944" y="253"/>
      <point x="994" y="556" type="curve" smooth="yes"/>
      <point x="1043" y="858"/>
      <point x="1238" y="1088"/>
      <point x="1474" y="1088" type="curve" smooth="yes"/>
      <point x="1712" y="1088"/>
      <point x="1811" y="858"/>
      <point x="1762" y="556" type="curve" smooth="yes"/>
      <point x="1712" y="253"/>
      <point x="1517" y="23"/>
    </contour>
  </outline>
</glyph>
<glyph name="Astroke" format="2">
  <advance height="2479" width="1263"/>
  <unicode hex="023A"/>
  <unicode hex="2C65"/>
  <anchor x="538" y="0" name="bottom"/>
  <anchor x="1103" y="0" name="ogonek"/>
  <anchor x="681" y="1489" name="tonos"/>
  <anchor x="817" y="1676" name="top"/>
  <outline>
    <contour>
      <point x="1140" y="1679" type="line"/>
      <point x="1092" y="1679" type="line"/>
      <point x="121" y="-189" type="line"/>
      <point x="169" y="-189" type="line"/>
    </contour>
    <component base="A"/>
  </outline>
</glyph>
<glyph name="Cstroke" format="2">
  <advance height="2479" width="1481"/>
  <unicode hex="023B"/>
  <anchor x="669" y="0" name="cedilla"/>
  <anchor x="948" y="1676" name="top"/>
  <outline>
    <contour>
      <point x="241" y="-189" type="line"/>
      <point x="291" y="-189" type="line"/>
      <point x="1327" y="1679" type="line"/>
      <point x="1277" y="1679" type="line"/>
    </contour>
    <component base="C"/>
  </outline>
</glyph>
<glyph name="cstroke" format="2">
  <advance height="2479" width="1189"/>
  <unicode hex="023C"/>
  <anchor x="532" y="0" name="cedilla"/>
  <anchor x="747" y="1303" name="top"/>
  <outline>
    <contour>
      <point x="1212" y="1489" type="line"/>
      <point x="1161" y="1489" type="line"/>
      <point x="-31" y="-419" type="line"/>
      <point x="25" y="-419" type="line"/>
    </contour>
    <component base="c" xOffset="37"/>
  </outline>
</glyph>
<glyph name="sswashtail" format="2">
  <advance height="2479" width="987"/>
  <unicode hex="023F"/>
  <anchor x="422" y="0" name="bottom"/>
  <anchor x="419" y="0" name="cedilla"/>
  <anchor x="640" y="1303" name="top"/>
  <outline>
    <contour>
      <point x="148" y="175" type="curve"/>
      <point x="109" y="151" type="line"/>
      <point x="272" y="-276" type="line" smooth="yes"/>
      <point x="305" y="-365"/>
      <point x="356" y="-412"/>
      <point x="422" y="-412" type="curve" smooth="yes"/>
      <point x="476" y="-412"/>
      <point x="527" y="-384"/>
      <point x="567" y="-348" type="curve"/>
      <point x="550" y="-304" type="line"/>
      <point x="516" y="-337"/>
      <point x="470" y="-364"/>
      <point x="423" y="-364" type="curve" smooth="yes"/>
      <point x="337" y="-364"/>
      <point x="333" y="-304"/>
    </contour>
    <component base="s"/>
  </outline>
</glyph>
<glyph name="zswashtail" format="2">
  <advance height="2479" width="1041"/>
  <unicode hex="0240"/>
  <outline>
    <contour>
      <point x="119" y="47" type="line"/>
      <point x="109" y="0" type="line"/>
      <point x="144" y="0" type="line" smooth="yes"/>
      <point x="447" y="0"/>
      <point x="506" y="-417"/>
      <point x="727" y="-417" type="curve" smooth="yes"/>
      <point x="754" y="-417"/>
      <point x="788" y="-412"/>
      <point x="820" y="-397" type="curve"/>
      <point x="828" y="-356" type="line"/>
      <point x="787" y="-368"/>
      <point x="765" y="-371"/>
      <point x="746" y="-371" type="curve" smooth="yes"/>
      <point x="526" y="-371"/>
      <point x="484" y="47"/>
      <point x="153" y="47" type="curve" smooth="yes"/>
    </contour>
    <contour>
      <point x="132" y="47" type="line"/>
      <point x="969" y="1071" type="line"/>
      <point x="977" y="1117" type="line"/>
      <point x="294" y="1117" type="line"/>
      <point x="285" y="1071" type="line"/>
      <point x="912" y="1071" type="line"/>
      <point x="73" y="47" type="line"/>
      <point x="64" y="0" type="line"/>
      <point x="128" y="0" type="line"/>
    </contour>
  </outline>
</glyph>
<glyph name="Ubar" format="2">
  <advance height="2479" width="1480"/>
  <unicode hex="0244"/>
  <anchor x="633" y="-23" name="bottom"/>
  <anchor x="700" y="0" name="ogonek"/>
  <anchor x="700" y="0" name="right"/>
  <anchor x="915" y="1676" name="top"/>
  <outline>
    <contour>
      <point x="1536" y="876" type="line"/>
      <point x="49" y="876" type="line"/>
      <point x="41" y="829" type="line"/>
      <point x="1527" y="829" type="line"/>
    </contour>
    <component base="U" xOffset="-38"/>
  </outline>
</glyph>
<glyph name="Vturned" format="2">
  <advance height="2479" width="1263"/>
  <unicode hex="0245"/>
  <outline>
    <contour>
      <point x="-26" y="0" type="line"/>
      <point x="23" y="0" type="line"/>
      <point x="772" y="1431" type="line"/>
      <point x="778" y="1431" type="line"/>
      <point x="1053" y="0" type="line"/>
      <point x="1103" y="0" type="line"/>
      <point x="816" y="1489" type="line"/>
      <point x="752" y="1489" type="line"/>
    </contour>
  </outline>
</glyph>
<glyph name="Estroke" format="2">
  <advance height="2479" width="1196"/>
  <unicode hex="0246"/>
  <anchor x="506" y="0" name="bottom"/>
  <anchor x="509" y="0" name="cedilla"/>
  <anchor x="954" y="0" name="ogonek"/>
  <anchor x="335" y="1489" name="tonos"/>
  <anchor x="817" y="1676" name="top"/>
  <outline>
    <contour>
      <point x="243" y="-189" type="line"/>
      <point x="289" y="-189" type="line"/>
      <point x="1142" y="1679" type="line"/>
      <point x="1095" y="1679" type="line"/>
    </contour>
    <component base="E"/>
  </outline>
</glyph>
<glyph name="qhooktail" format="2">
  <advance height="2479" width="1182"/>
  <unicode hex="024B"/>
  <outline>
    <contour>
      <point x="977" y="-416" type="curve"/>
      <point x="1002" y="-416"/>
      <point x="1022" y="-413"/>
      <point x="1043" y="-409" type="curve"/>
      <point x="1051" y="-362" type="line"/>
      <point x="1033" y="-367"/>
      <point x="1014" y="-369"/>
      <point x="985" y="-369" type="curve"/>
      <point x="870" y="-369"/>
      <point x="847" y="-321"/>
      <point x="869" y="-198" type="curve" smooth="yes"/>
      <point x="902" y="0" type="line"/>
      <point x="856" y="0" type="line"/>
      <point x="821" y="-205" type="line" smooth="yes"/>
      <point x="797" y="-341"/>
      <point x="846" y="-416"/>
    </contour>
    <contour>
      <point x="467" y="-23" type="curve" smooth="yes"/>
      <point x="644" y="-23"/>
      <point x="804" y="93"/>
      <point x="897" y="279" type="curve"/>
      <point x="911" y="279" type="line"/>
      <point x="1004" y="832" type="line"/>
      <point x="985" y="832" type="line"/>
      <point x="957" y="1018"/>
      <point x="838" y="1135"/>
      <point x="658" y="1135" type="curve" smooth="yes"/>
      <point x="393" y="1135"/>
      <point x="186" y="887"/>
      <point x="131" y="556" type="curve" smooth="yes"/>
      <point x="78" y="227"/>
      <point x="205" y="-23"/>
    </contour>
    <contour>
      <point x="897" y="-35" type="line"/>
      <point x="1086" y="1117" type="line"/>
      <point x="1039" y="1117" type="line"/>
      <point x="991" y="832" type="line"/>
      <point x="953" y="559" type="line"/>
      <point x="901" y="279" type="line"/>
      <point x="850" y="-35" type="line"/>
    </contour>
    <contour>
      <point x="482" y="23" type="curve" smooth="yes"/>
      <point x="246" y="23"/>
      <point x="127" y="253"/>
      <point x="178" y="556" type="curve" smooth="yes"/>
      <point x="229" y="858"/>
      <point x="403" y="1088"/>
      <point x="642" y="1088" type="curve" smooth="yes"/>
      <point x="878" y="1088"/>
      <point x="997" y="858"/>
      <point x="946" y="556" type="curve" smooth="yes"/>
      <point x="895" y="253"/>
      <point x="718" y="23"/>
    </contour>
  </outline>
</glyph>
<glyph name="Rstroke" format="2">
  <advance height="2479" width="1270"/>
  <unicode hex="024C"/>
  <anchor x="556" y="0" name="bottom"/>
  <anchor x="815" y="1676" name="top"/>
  <outline>
    <contour>
      <point x="266" y="643" type="line"/>
      <point x="275" y="689" type="line"/>
      <point x="54" y="689" type="line"/>
      <point x="45" y="643" type="line"/>
    </contour>
    <component base="R" xOffset="3"/>
  </outline>
</glyph>
<glyph name="Ystroke" format="2">
  <advance height="2479" width="1249"/>
  <unicode hex="024E"/>
  <anchor x="535" y="0" name="bottom"/>
  <anchor x="637" y="605" name="cross"/>
  <anchor x="559" y="0" name="ogonek"/>
  <anchor x="201" y="1489" name="tonos"/>
  <anchor x="815" y="1676" name="top"/>
  <outline>
    <contour>
      <point x="1360" y="1174" type="line"/>
      <point x="97" y="1174" type="line"/>
      <point x="89" y="1127" type="line"/>
      <point x="1351" y="1127" type="line"/>
    </contour>
    <component base="Y"/>
  </outline>
</glyph>
<glyph name="alphaturned-latin" format="2">
  <advance height="2479" width="1226"/>
  <unicode hex="0252"/>
  <anchor x="534" y="0" name="bottom"/>
  <anchor x="142" y="0" name="ogonek"/>
  <anchor x="766" y="1303" name="rhalfring"/>
  <anchor x="769" y="1303" name="top"/>
  <outline>
    <contour>
      <point x="575" y="-23" type="curve" smooth="yes"/>
      <point x="837" y="-23"/>
      <point x="1041" y="223"/>
      <point x="1096" y="550" type="curve" smooth="yes"/>
      <point x="1150" y="881"/>
      <point x="1019" y="1135"/>
      <point x="754" y="1135" type="curve" smooth="yes"/>
      <point x="580" y="1135"/>
      <point x="420" y="1018"/>
      <point x="332" y="832" type="curve"/>
      <point x="326" y="832" type="line"/>
      <point x="374" y="1117" type="line"/>
      <point x="326" y="1117" type="line"/>
      <point x="142" y="0" type="line"/>
      <point x="190" y="0" type="line"/>
      <point x="235" y="279" type="line"/>
      <point x="241" y="279" type="line"/>
      <point x="271" y="95"/>
      <point x="393" y="-23"/>
    </contour>
    <contour>
      <point x="571" y="23" type="curve" smooth="yes"/>
      <point x="337" y="23"/>
      <point x="230" y="250"/>
      <point x="281" y="550" type="curve" smooth="yes"/>
      <point x="331" y="855"/>
      <point x="521" y="1088"/>
      <point x="758" y="1088" type="curve" smooth="yes"/>
      <point x="992" y="1088"/>
      <point x="1099" y="861"/>
      <point x="1049" y="561" type="curve" smooth="yes"/>
      <point x="998" y="256"/>
      <point x="811" y="23"/>
    </contour>
  </outline>
</glyph>
<glyph name="bhook" format="2">
  <advance height="2479" width="1225"/>
  <unicode hex="0253"/>
  <outline>
    <contour>
      <point x="567" y="-23" type="curve" smooth="yes"/>
      <point x="822" y="-23"/>
      <point x="1036" y="213"/>
      <point x="1094" y="556" type="curve" smooth="yes"/>
      <point x="1151" y="895"/>
      <point x="1013" y="1135"/>
      <point x="759" y="1135" type="curve" smooth="yes"/>
      <point x="583" y="1135"/>
      <point x="420" y="1019"/>
      <point x="332" y="832" type="curve"/>
      <point x="326" y="832" type="line"/>
      <point x="403" y="1297" type="line" smooth="yes"/>
      <point x="423" y="1415"/>
      <point x="474" y="1466"/>
      <point x="572" y="1466" type="curve" smooth="yes"/>
      <point x="590" y="1466"/>
      <point x="618" y="1465"/>
      <point x="640" y="1462" type="curve"/>
      <point x="647" y="1508" type="line"/>
      <point x="626" y="1511"/>
      <point x="599" y="1513"/>
      <point x="577" y="1513" type="curve" smooth="yes"/>
      <point x="453" y="1513"/>
      <point x="387" y="1452"/>
      <point x="359" y="1312" type="curve" smooth="yes"/>
      <point x="140" y="0" type="line"/>
      <point x="186" y="0" type="line"/>
      <point x="233" y="279" type="line"/>
      <point x="239" y="279" type="line"/>
      <point x="268" y="89"/>
      <point x="391" y="-23"/>
    </contour>
    <contour>
      <point x="567" y="23" type="curve" smooth="yes"/>
      <point x="341" y="23"/>
      <point x="227" y="235"/>
      <point x="279" y="556" type="curve" smooth="yes"/>
      <point x="330" y="866"/>
      <point x="529" y="1088"/>
      <point x="759" y="1088" type="curve" smooth="yes"/>
      <point x="984" y="1088"/>
      <point x="1100" y="874"/>
      <point x="1047" y="556" type="curve" smooth="yes"/>
      <point x="996" y="245"/>
      <point x="797" y="23"/>
    </contour>
  </outline>
</glyph>
<glyph name="ccurl" format="2">
  <advance height="2479" width="1116"/>
  <unicode hex="0255"/>
  <outline>
    <contour>
      <point x="497" y="-23" type="curve"/>
      <point x="505" y="23" type="line"/>
      <point x="254" y="23"/>
      <point x="111" y="245"/>
      <point x="163" y="556" type="curve" smooth="yes"/>
      <point x="214" y="863"/>
      <point x="430" y="1088"/>
      <point x="673" y="1088" type="curve" smooth="yes"/>
      <point x="851" y="1088"/>
      <point x="972" y="969"/>
      <point x="973" y="791" type="curve"/>
      <point x="1023" y="791" type="line"/>
      <point x="1021" y="992"/>
      <point x="882" y="1135"/>
      <point x="681" y="1135" type="curve" smooth="yes"/>
      <point x="412" y="1135"/>
      <point x="171" y="887"/>
      <point x="116" y="556" type="curve" smooth="yes"/>
      <point x="61" y="220"/>
      <point x="220" y="-23"/>
    </contour>
    <contour>
      <point x="-13" y="-23" type="line"/>
      <point x="135" y="167"/>
      <point x="372" y="454"/>
      <point x="623" y="454" type="curve" smooth="yes"/>
      <point x="764" y="454"/>
      <point x="846" y="360"/>
      <point x="828" y="244" type="curve" smooth="yes"/>
      <point x="808" y="118"/>
      <point x="671" y="23"/>
      <point x="505" y="23" type="curve"/>
      <point x="497" y="-23" type="line"/>
      <point x="687" y="-23"/>
      <point x="848" y="90"/>
      <point x="874" y="244" type="curve" smooth="yes"/>
      <point x="898" y="385"/>
      <point x="796" y="500"/>
      <point x="631" y="500" type="curve" smooth="yes"/>
      <point x="361" y="500"/>
      <point x="108" y="207"/>
      <point x="-49" y="0" type="curve"/>
    </contour>
  </outline>
</glyph>
<glyph name="dtail" format="2">
  <advance height="2479" width="1201"/>
  <unicode hex="0256"/>
  <anchor x="505" y="0" name="bottom"/>
  <anchor x="1090" y="1280" name="cross"/>
  <anchor x="1279" y="1489" name="raccent"/>
  <anchor x="728" y="1489" name="top"/>
  <outline>
    <contour>
      <point x="973" y="-416" type="curve"/>
      <point x="999" y="-416"/>
      <point x="1020" y="-413"/>
      <point x="1040" y="-409" type="curve"/>
      <point x="1047" y="-362" type="line"/>
      <point x="1030" y="-367"/>
      <point x="1011" y="-369"/>
      <point x="982" y="-369" type="curve"/>
      <point x="868" y="-369"/>
      <point x="844" y="-321"/>
      <point x="865" y="-198" type="curve" smooth="yes"/>
      <point x="899" y="0" type="line"/>
      <point x="852" y="0" type="line"/>
      <point x="817" y="-205" type="line" smooth="yes"/>
      <point x="795" y="-341"/>
      <point x="844" y="-416"/>
    </contour>
    <component base="d"/>
  </outline>
</glyph>
<glyph name="schwahook" format="2">
  <advance height="2479" width="1442"/>
  <unicode hex="025A"/>
  <outline>
    <contour>
      <point x="496" y="-17" type="curve" smooth="yes"/>
      <point x="759" y="-17"/>
      <point x="997" y="231"/>
      <point x="1050" y="559" type="curve" smooth="yes"/>
      <point x="1106" y="889"/>
      <point x="953" y="1140"/>
      <point x="659" y="1140" type="curve" smooth="yes"/>
      <point x="442" y="1140"/>
      <point x="301" y="1005"/>
      <point x="237" y="921" type="curve"/>
      <point x="272" y="892" type="line"/>
      <point x="324" y="959"/>
      <point x="450" y="1094"/>
      <point x="658" y="1094" type="curve" smooth="yes"/>
      <point x="898" y="1094"/>
      <point x="1010" y="915"/>
      <point x="1014" y="694" type="curve"/>
      <point x="131" y="559" type="line"/>
      <point x="124" y="513" type="line" smooth="yes"/>
      <point x="77" y="225"/>
      <point x="235" y="-17"/>
    </contour>
    <contour>
      <point x="498" y="29" type="curve" smooth="yes"/>
      <point x="266" y="29"/>
      <point x="127" y="249"/>
      <point x="172" y="516" type="curve"/>
      <point x="1014" y="649" type="line"/>
      <point x="1012" y="618"/>
      <point x="1009" y="587"/>
      <point x="1004" y="556" type="curve" smooth="yes"/>
      <point x="957" y="270"/>
      <point x="742" y="29"/>
    </contour>
    <contour>
      <point x="1286" y="451" type="curve" smooth="yes"/>
      <point x="1314" y="450"/>
      <point x="1343" y="456"/>
      <point x="1370" y="467" type="curve"/>
      <point x="1362" y="506" type="line"/>
      <point x="1346" y="501"/>
      <point x="1322" y="495"/>
      <point x="1296" y="496" type="curve" smooth="yes"/>
      <point x="1214" y="499"/>
      <point x="1177" y="567"/>
      <point x="1186" y="721" type="curve"/>
      <point x="1042" y="700" type="line"/>
      <point x="1040" y="653" type="line"/>
      <point x="1144" y="671" type="line"/>
      <point x="1137" y="535"/>
      <point x="1191" y="453"/>
    </contour>
  </outline>
</glyph>
<glyph name="eopenreversed" format="2">
  <advance height="2479" width="1160"/>
  <unicode hex="025C"/>
  <anchor x="669" y="1303" name="top"/>
  <outline>
    <contour>
      <point x="564" y="601" type="curve"/>
      <point x="486" y="601" type="line"/>
      <point x="479" y="554" type="line"/>
      <point x="589" y="554" type="line" smooth="yes"/>
      <point x="766" y="554"/>
      <point x="893" y="447"/>
      <point x="865" y="282" type="curve" smooth="yes"/>
      <point x="839" y="130"/>
      <point x="686" y="26"/>
      <point x="471" y="26" type="curve" smooth="yes"/>
      <point x="250" y="26"/>
      <point x="148" y="145"/>
      <point x="141" y="329" type="curve"/>
      <point x="97" y="329" type="line"/>
      <point x="95" y="121"/>
      <point x="217" y="-20"/>
      <point x="464" y="-20" type="curve" smooth="yes"/>
      <point x="714" y="-20"/>
      <point x="883" y="110"/>
      <point x="912" y="285" type="curve" smooth="yes"/>
      <point x="945" y="483"/>
      <point x="795" y="600"/>
    </contour>
    <contour>
      <point x="479" y="554" type="line"/>
      <point x="557" y="554" type="line"/>
      <point x="799" y="553"/>
      <point x="950" y="652"/>
      <point x="979" y="829" type="curve" smooth="yes"/>
      <point x="1008" y="1012"/>
      <point x="881" y="1132"/>
      <point x="657" y="1132" type="curve" smooth="yes"/>
      <point x="458" y="1132"/>
      <point x="301" y="1024"/>
      <point x="234" y="820" type="curve"/>
      <point x="281" y="820" type="line"/>
      <point x="347" y="1003"/>
      <point x="476" y="1085"/>
      <point x="650" y="1085" type="curve" smooth="yes"/>
      <point x="847" y="1085"/>
      <point x="956" y="988"/>
      <point x="932" y="835" type="curve" smooth="yes"/>
      <point x="911" y="687"/>
      <point x="787" y="601"/>
      <point x="596" y="601" type="curve" smooth="yes"/>
      <point x="486" y="601" type="line"/>
    </contour>
  </outline>
</glyph>
<glyph name="eopenreversedclosed" format="2">
  <advance height="2479" width="1009"/>
  <unicode hex="025E"/>
  <outline>
    <contour>
      <point x="415" y="-20" type="curve" smooth="yes"/>
      <point x="654" y="-20"/>
      <point x="832" y="101"/>
      <point x="862" y="285" type="curve" smooth="yes"/>
      <point x="894" y="475"/>
      <point x="755" y="600"/>
      <point x="514" y="601" type="curve"/>
      <point x="435" y="601" type="line"/>
      <point x="428" y="554" type="line"/>
      <point x="539" y="554" type="line" smooth="yes"/>
      <point x="726" y="554"/>
      <point x="842" y="439"/>
      <point x="815" y="282" type="curve" smooth="yes"/>
      <point x="789" y="128"/>
      <point x="633" y="26"/>
      <point x="422" y="26" type="curve" smooth="yes"/>
      <point x="168" y="26"/>
      <point x="72" y="203"/>
      <point x="131" y="561" type="curve"/>
      <point x="85" y="561" type="line"/>
      <point x="21" y="177"/>
      <point x="133" y="-20"/>
    </contour>
    <contour>
      <point x="507" y="554" type="line"/>
      <point x="749" y="553"/>
      <point x="900" y="652"/>
      <point x="928" y="829" type="curve" smooth="yes"/>
      <point x="958" y="1012"/>
      <point x="831" y="1132"/>
      <point x="608" y="1132" type="curve" smooth="yes"/>
      <point x="326" y="1132"/>
      <point x="147" y="935"/>
      <point x="85" y="559" type="curve"/>
      <point x="131" y="559" type="line"/>
      <point x="189" y="911"/>
      <point x="344" y="1085"/>
      <point x="600" y="1085" type="curve" smooth="yes"/>
      <point x="797" y="1085"/>
      <point x="907" y="988"/>
      <point x="883" y="835" type="curve" smooth="yes"/>
      <point x="861" y="687"/>
      <point x="737" y="601"/>
      <point x="546" y="601" type="curve" smooth="yes"/>
      <point x="435" y="601" type="line"/>
      <point x="428" y="554" type="line"/>
    </contour>
  </outline>
</glyph>
<glyph name="ghook" format="2">
  <advance height="2479" width="1183"/>
  <unicode hex="0260"/>
  <anchor x="393" y="-436" name="bottom"/>
  <anchor x="966" y="559" name="cross"/>
  <anchor x="716" y="1303" name="top"/>
  <outline>
    <contour>
      <point x="1078" y="1091" type="line" name="hr00"/>
      <point x="1113" y="1297" type="line" smooth="yes"/>
      <point x="1132" y="1412"/>
      <point x="1182" y="1466"/>
      <point x="1281" y="1466" type="curve" smooth="yes"/>
      <point x="1297" y="1466"/>
      <point x="1324" y="1465"/>
      <point x="1350" y="1462" type="curve"/>
      <point x="1357" y="1508" type="line"/>
      <point x="1333" y="1511"/>
      <point x="1306" y="1513"/>
      <point x="1287" y="1513" type="curve" smooth="yes"/>
      <point x="1159" y="1513"/>
      <point x="1092" y="1447"/>
      <point x="1066" y="1297" type="curve" smooth="yes"/>
      <point x="1031" y="1091" type="line"/>
    </contour>
    <component base="g" xOffset="-3"/>
  </outline>
</glyph>
<glyph name="ramshorn" format="2">
  <advance height="2479" width="1504"/>
  <unicode hex="0264"/>
  <outline>
    <contour>
      <point x="656" y="-20" type="curve"/>
      <point x="665" y="26" type="line"/>
      <point x="564" y="26"/>
      <point x="507" y="79"/>
      <point x="521" y="160" type="curve" smooth="yes"/>
      <point x="529" y="211"/>
      <point x="577" y="315"/>
      <point x="810" y="659" type="curve" smooth="yes"/>
      <point x="1036" y="994"/>
      <point x="1122" y="1088"/>
      <point x="1225" y="1088" type="curve" smooth="yes"/>
      <point x="1294" y="1088"/>
      <point x="1343" y="1052"/>
      <point x="1373" y="979" type="curve"/>
      <point x="1412" y="1012" type="line"/>
      <point x="1375" y="1093"/>
      <point x="1313" y="1135"/>
      <point x="1232" y="1135" type="curve" smooth="yes"/>
      <point x="1110" y="1135"/>
      <point x="1020" y="1044"/>
      <point x="755" y="656" type="curve" smooth="yes"/>
      <point x="526" y="318"/>
      <point x="484" y="219"/>
      <point x="474" y="160" type="curve" smooth="yes"/>
      <point x="456" y="51"/>
      <point x="531" y="-20"/>
    </contour>
    <contour>
      <point x="656" y="-20" type="line"/>
      <point x="783" y="-20"/>
      <point x="881" y="51"/>
      <point x="899" y="160" type="curve" smooth="yes"/>
      <point x="908" y="219"/>
      <point x="900" y="318"/>
      <point x="781" y="656" type="curve" smooth="yes"/>
      <point x="646" y="1044"/>
      <point x="585" y="1135"/>
      <point x="464" y="1135" type="curve" smooth="yes"/>
      <point x="381" y="1135"/>
      <point x="307" y="1093"/>
      <point x="243" y="1012" type="curve"/>
      <point x="271" y="979" type="line"/>
      <point x="325" y="1052"/>
      <point x="386" y="1088"/>
      <point x="454" y="1088" type="curve" smooth="yes"/>
      <point x="558" y="1088"/>
      <point x="612" y="994"/>
      <point x="732" y="647" type="curve" smooth="yes"/>
      <point x="847" y="315"/>
      <point x="860" y="211"/>
      <point x="852" y="160" type="curve" smooth="yes"/>
      <point x="839" y="79"/>
      <point x="764" y="26"/>
      <point x="665" y="26" type="curve"/>
    </contour>
  </outline>
</glyph>
<glyph name="hhook" format="2">
  <advance height="2479" width="1164"/>
  <unicode hex="0266"/>
  <anchor x="489" y="0" name="bottom"/>
  <anchor x="707" y="1303" name="top"/>
  <outline>
    <contour>
      <point x="333" y="1091" type="line" name="hr00"/>
      <point x="368" y="1297" type="line" smooth="yes"/>
      <point x="388" y="1412"/>
      <point x="437" y="1466"/>
      <point x="537" y="1466" type="curve" smooth="yes"/>
      <point x="553" y="1466"/>
      <point x="580" y="1465"/>
      <point x="605" y="1462" type="curve"/>
      <point x="612" y="1508" type="line"/>
      <point x="588" y="1511"/>
      <point x="561" y="1513"/>
      <point x="543" y="1513" type="curve" smooth="yes"/>
      <point x="414" y="1513"/>
      <point x="347" y="1447"/>
      <point x="321" y="1297" type="curve" smooth="yes"/>
      <point x="287" y="1091" type="line"/>
    </contour>
    <component base="n"/>
  </outline>
</glyph>
<glyph name="henghook" format="2">
  <advance height="2479" width="1165"/>
  <unicode hex="0267"/>
  <anchor x="489" y="0" name="bottom"/>
  <anchor x="707" y="1303" name="top"/>
  <outline>
    <contour>
      <point x="826" y="0" type="line"/>
      <point x="800" y="-169" type="line" smooth="yes"/>
      <point x="780" y="-298"/>
      <point x="706" y="-369"/>
      <point x="614" y="-369" type="curve" smooth="yes"/>
      <point x="592" y="-369"/>
      <point x="566" y="-366"/>
      <point x="544" y="-358" type="curve"/>
      <point x="534" y="-403" type="line"/>
      <point x="552" y="-412"/>
      <point x="575" y="-416"/>
      <point x="604" y="-416" type="curve" smooth="yes"/>
      <point x="732" y="-416"/>
      <point x="821" y="-332"/>
      <point x="847" y="-169" type="curve" smooth="yes"/>
      <point x="873" y="0" type="line"/>
    </contour>
    <component base="hhook"/>
  </outline>
</glyph>
<glyph name="lezh" format="2">
  <advance height="2479" width="1322"/>
  <unicode hex="026E"/>
  <anchor x="163" y="0" name="bottom"/>
  <anchor x="291" y="768" name="cross"/>
  <anchor x="573" y="1489" name="raccent"/>
  <anchor x="442" y="1676" name="top"/>
  <outline>
    <contour>
      <point x="548" y="-442" type="curve" smooth="yes"/>
      <point x="811" y="-442"/>
      <point x="1033" y="-244"/>
      <point x="1076" y="22" type="curve" smooth="yes"/>
      <point x="1120" y="287"/>
      <point x="957" y="461"/>
      <point x="669" y="474" type="curve"/>
      <point x="671" y="480" type="line"/>
      <point x="1248" y="1079" type="line"/>
      <point x="1254" y="1117" type="line"/>
      <point x="365" y="1117" type="line"/>
      <point x="356" y="1071" type="line"/>
      <point x="1175" y="1071" type="line"/>
      <point x="1174" y="1065" type="line"/>
      <point x="608" y="477" type="line"/>
      <point x="601" y="431" type="line"/>
      <point x="605" y="431" type="line" smooth="yes"/>
      <point x="902" y="431"/>
      <point x="1072" y="274"/>
      <point x="1030" y="22" type="curve" smooth="yes"/>
      <point x="991" y="-217"/>
      <point x="787" y="-396"/>
      <point x="550" y="-396" type="curve" smooth="yes"/>
      <point x="384" y="-396"/>
      <point x="261" y="-334"/>
      <point x="233" y="-202" type="curve"/>
      <point x="188" y="-217" type="line"/>
      <point x="220" y="-366"/>
      <point x="359" y="-442"/>
    </contour>
    <component base="l" xOffset="35"/>
  </outline>
</glyph>
<glyph name="mlonglegturned" format="2">
  <advance height="2479" width="1711"/>
  <unicode hex="0270"/>
  <anchor x="762" y="0" name="bottom"/>
  <anchor x="977" y="1303" name="top"/>
  <outline>
    <contour>
      <point x="1303" y="-419" type="line"/>
      <point x="1350" y="-419" type="line"/>
      <point x="1420" y="0" type="line"/>
      <point x="1373" y="0" type="line"/>
    </contour>
    <component base="mturned"/>
  </outline>
</glyph>
<glyph name="mhook" format="2">
  <advance height="2479" width="1711"/>
  <unicode hex="0271"/>
  <anchor x="762" y="0" name="bottom"/>
  <anchor x="977" y="1303" name="top"/>
  <outline>
    <contour>
      <point x="1373" y="0" type="line"/>
      <point x="1347" y="-169" type="line" smooth="yes"/>
      <point x="1327" y="-298"/>
      <point x="1253" y="-369"/>
      <point x="1161" y="-369" type="curve" smooth="yes"/>
      <point x="1139" y="-369"/>
      <point x="1113" y="-366"/>
      <point x="1091" y="-358" type="curve"/>
      <point x="1081" y="-403" type="line"/>
      <point x="1099" y="-412"/>
      <point x="1122" y="-416"/>
      <point x="1151" y="-416" type="curve" smooth="yes"/>
      <point x="1279" y="-416"/>
      <point x="1368" y="-332"/>
      <point x="1393" y="-169" type="curve" smooth="yes"/>
      <point x="1420" y="0" type="line"/>
    </contour>
    <component base="m"/>
  </outline>
</glyph>
<glyph name="nhookleft" format="2">
  <advance height="2479" width="1163"/>
  <unicode hex="0272"/>
  <anchor x="488" y="0" name="bottom"/>
  <anchor x="706" y="1303" name="top"/>
  <outline>
    <contour>
      <point x="105" y="0" type="line"/>
      <point x="79" y="-169" type="line" smooth="yes"/>
      <point x="58" y="-298"/>
      <point x="-15" y="-369"/>
      <point x="-107" y="-369" type="curve" smooth="yes"/>
      <point x="-129" y="-369"/>
      <point x="-155" y="-366"/>
      <point x="-177" y="-358" type="curve"/>
      <point x="-187" y="-403" type="line"/>
      <point x="-169" y="-412"/>
      <point x="-145" y="-416"/>
      <point x="-117" y="-416" type="curve" smooth="yes"/>
      <point x="12" y="-416"/>
      <point x="100" y="-332"/>
      <point x="126" y="-169" type="curve" smooth="yes"/>
      <point x="152" y="0" type="line"/>
    </contour>
    <component base="n" xOffset="-1"/>
  </outline>
</glyph>
<glyph name="nhookretroflex" format="2">
  <advance height="2479" width="1057"/>
  <unicode hex="0273"/>
  <anchor x="489" y="0" name="bottom"/>
  <anchor x="707" y="1303" name="top"/>
  <outline>
    <contour>
      <point x="873" y="0" type="line"/>
      <point x="826" y="0" type="line"/>
      <point x="791" y="-205" type="line" smooth="yes"/>
      <point x="768" y="-341"/>
      <point x="817" y="-416"/>
      <point x="947" y="-416" type="curve"/>
      <point x="973" y="-416"/>
      <point x="993" y="-413"/>
      <point x="1014" y="-409" type="curve"/>
      <point x="1021" y="-362" type="line"/>
      <point x="1004" y="-367"/>
      <point x="985" y="-369"/>
      <point x="956" y="-369" type="curve"/>
      <point x="841" y="-369"/>
      <point x="818" y="-321"/>
      <point x="839" y="-198" type="curve" smooth="yes"/>
    </contour>
    <component base="n"/>
  </outline>
</glyph>
<glyph name="Nsmall" format="2">
  <advance height="2479" width="1280"/>
  <unicode hex="0274"/>
  <outline>
    <contour>
      <point x="1129" y="1117" type="line"/>
      <point x="1082" y="1117" type="line"/>
      <point x="909" y="83" type="line"/>
      <point x="905" y="83" type="line"/>
      <point x="337" y="1117" type="line"/>
      <point x="291" y="1117" type="line"/>
      <point x="105" y="0" type="line"/>
      <point x="151" y="0" type="line"/>
      <point x="324" y="1036" type="line"/>
      <point x="329" y="1036" type="line"/>
      <point x="897" y="0" type="line"/>
      <point x="943" y="0" type="line"/>
    </contour>
  </outline>
</glyph>
<glyph name="OEsmall" format="2">
  <advance height="2479" width="1480"/>
  <unicode hex="0276"/>
  <outline>
    <contour>
      <point x="633" y="0" type="line"/>
      <point x="1255" y="0" type="line"/>
      <point x="1264" y="47" type="line"/>
      <point x="688" y="47" type="line"/>
      <point x="768" y="535" type="line"/>
      <point x="1296" y="535" type="line"/>
      <point x="1305" y="582" type="line"/>
      <point x="777" y="582" type="line"/>
      <point x="857" y="1071" type="line"/>
      <point x="1418" y="1071" type="line"/>
      <point x="1427" y="1117" type="line"/>
      <point x="819" y="1117" type="line"/>
    </contour>
    <contour>
      <point x="515" y="0" type="curve" smooth="yes"/>
      <point x="650" y="0" type="line"/>
      <point x="659" y="47" type="line"/>
      <point x="521" y="47" type="line" smooth="yes"/>
      <point x="262" y="47"/>
      <point x="127" y="249"/>
      <point x="177" y="556" type="curve" smooth="yes"/>
      <point x="229" y="865"/>
      <point x="435" y="1071"/>
      <point x="692" y="1071" type="curve" smooth="yes"/>
      <point x="828" y="1071" type="line"/>
      <point x="836" y="1117" type="line"/>
      <point x="698" y="1117" type="line" smooth="yes"/>
      <point x="412" y="1117"/>
      <point x="188" y="897"/>
      <point x="131" y="561" type="curve" smooth="yes"/>
      <point x="76" y="223"/>
      <point x="230" y="0"/>
    </contour>
  </outline>
</glyph>
<glyph name="rlonglegturned" format="2">
  <advance height="2479" width="665"/>
  <unicode hex="027A"/>
  <outline>
    <contour>
      <point x="-9" y="-15" type="curve" smooth="yes"/>
      <point x="144" y="-15"/>
      <point x="282" y="60"/>
      <point x="354" y="176" type="curve"/>
      <point x="360" y="177" type="line"/>
      <point x="330" y="0" type="line"/>
      <point x="376" y="0" type="line"/>
      <point x="626" y="1510" type="line"/>
      <point x="580" y="1510" type="line"/>
      <point x="391" y="368" type="line" smooth="yes"/>
      <point x="359" y="173"/>
      <point x="192" y="32"/>
      <point x="-8" y="32" type="curve" smooth="yes"/>
      <point x="-18" y="32"/>
      <point x="-18" y="32"/>
      <point x="-30" y="32" type="curve"/>
      <point x="-34" y="-15" type="line"/>
      <point x="-22" y="-15"/>
      <point x="-22" y="-15"/>
    </contour>
  </outline>
</glyph>
<glyph name="rlongleg" format="2">
  <advance height="2479" width="666"/>
  <unicode hex="027C"/>
  <anchor x="128" y="0" name="bottom"/>
  <anchor x="218" y="535" name="cross"/>
  <anchor x="550" y="1303" name="top"/>
  <outline>
    <contour>
      <point x="38" y="-419" type="line"/>
      <point x="81" y="-419" type="line"/>
      <point x="151" y="0" type="line"/>
      <point x="105" y="0" type="line"/>
    </contour>
    <component base="r"/>
  </outline>
</glyph>
<glyph name="rfishhook" format="2">
  <advance height="2479" width="479"/>
  <unicode hex="027E"/>
  <outline>
    <contour>
      <point x="153" y="0" type="line"/>
      <point x="310" y="938" type="line" smooth="yes"/>
      <point x="333" y="1073"/>
      <point x="383" y="1110"/>
      <point x="474" y="1110" type="curve" smooth="yes"/>
      <point x="495" y="1110"/>
      <point x="522" y="1108"/>
      <point x="547" y="1105" type="curve"/>
      <point x="554" y="1152" type="line"/>
      <point x="531" y="1155"/>
      <point x="503" y="1156"/>
      <point x="480" y="1156" type="curve" smooth="yes"/>
      <point x="356" y="1156"/>
      <point x="291" y="1105"/>
      <point x="260" y="922" type="curve" smooth="yes"/>
      <point x="106" y="0" type="line"/>
    </contour>
  </outline>
</glyph>
<glyph name="esh" format="2">
  <advance height="2479" width="656"/>
  <unicode hex="0283"/>
  <outline>
    <contour>
      <point x="-102" y="-442" type="curve" smooth="yes"/>
      <point x="34" y="-442"/>
      <point x="167" y="-345"/>
      <point x="193" y="-188" type="curve" smooth="yes"/>
      <point x="439" y="1299" type="line" smooth="yes"/>
      <point x="461" y="1429"/>
      <point x="575" y="1510"/>
      <point x="687" y="1510" type="curve" smooth="yes"/>
      <point x="714" y="1510"/>
      <point x="735" y="1505"/>
      <point x="758" y="1497" type="curve"/>
      <point x="777" y="1540" type="line"/>
      <point x="751" y="1549"/>
      <point x="725" y="1556"/>
      <point x="688" y="1556" type="curve" smooth="yes"/>
      <point x="553" y="1556"/>
      <point x="420" y="1459"/>
      <point x="394" y="1302" type="curve" smooth="yes"/>
      <point x="147" y="-185" type="line" smooth="yes"/>
      <point x="126" y="-315"/>
      <point x="13" y="-396"/>
      <point x="-100" y="-396" type="curve" smooth="yes"/>
      <point x="-127" y="-396"/>
      <point x="-148" y="-391"/>
      <point x="-172" y="-381" type="curve"/>
      <point x="-191" y="-425" type="line"/>
      <point x="-163" y="-435"/>
      <point x="-138" y="-442"/>
    </contour>
  </outline>
</glyph>
<glyph name="eshcurl" format="2">
  <advance height="2479" width="1071"/>
  <unicode hex="0286"/>
  <outline>
    <contour>
      <point x="566" y="60" type="line"/>
      <point x="519" y="60" type="line"/>
      <point x="505" y="-22"/>
      <point x="492" y="-96"/>
      <point x="481" y="-169" type="curve" smooth="yes"/>
      <point x="464" y="-284"/>
      <point x="353" y="-372"/>
      <point x="236" y="-372" type="curve" smooth="yes"/>
      <point x="119" y="-372"/>
      <point x="41" y="-292"/>
      <point x="58" y="-192" type="curve" smooth="yes"/>
      <point x="76" y="-88"/>
      <point x="174" y="-12"/>
      <point x="288" y="-12" type="curve" smooth="yes"/>
      <point x="410" y="-12"/>
      <point x="492" y="-89"/>
      <point x="589" y="-303" type="curve" smooth="yes"/>
      <point x="636" y="-404" type="line"/>
      <point x="679" y="-381" type="line"/>
      <point x="630" y="-276" type="line" smooth="yes"/>
      <point x="527" y="-57"/>
      <point x="433" y="35"/>
      <point x="295" y="35" type="curve" smooth="yes"/>
      <point x="152" y="35"/>
      <point x="33" y="-59"/>
      <point x="12" y="-192" type="curve" smooth="yes"/>
      <point x="-8" y="-311"/>
      <point x="93" y="-419"/>
      <point x="227" y="-419" type="curve" smooth="yes"/>
      <point x="381" y="-419"/>
      <point x="502" y="-319"/>
      <point x="528" y="-169" type="curve"/>
    </contour>
    <contour>
      <point x="551" y="-28" type="line"/>
      <point x="772" y="1300" type="line" smooth="yes"/>
      <point x="793" y="1422"/>
      <point x="894" y="1510"/>
      <point x="1017" y="1510" type="curve" smooth="yes"/>
      <point x="1047" y="1510"/>
      <point x="1084" y="1505"/>
      <point x="1117" y="1497" type="curve"/>
      <point x="1124" y="1540" type="line"/>
      <point x="1099" y="1550"/>
      <point x="1060" y="1556"/>
      <point x="1024" y="1556" type="curve" smooth="yes"/>
      <point x="869" y="1556"/>
      <point x="751" y="1454"/>
      <point x="726" y="1300" type="curve" smooth="yes"/>
      <point x="505" y="-28" type="line"/>
    </contour>
  </outline>
</glyph>
<glyph name="vhook" format="2">
  <advance height="2479" width="1249"/>
  <unicode hex="028B"/>
  <outline>
    <contour>
      <point x="468" y="-20" type="curve" smooth="yes"/>
      <point x="740" y="-20"/>
      <point x="951" y="226"/>
      <point x="1015" y="615" type="curve" smooth="yes"/>
      <point x="1063" y="901"/>
      <point x="1011" y="1135"/>
      <point x="867" y="1135" type="curve" smooth="yes"/>
      <point x="834" y="1135"/>
      <point x="781" y="1122"/>
      <point x="739" y="1107" type="curve"/>
      <point x="745" y="1062" type="line"/>
      <point x="783" y="1073"/>
      <point x="837" y="1088"/>
      <point x="864" y="1088" type="curve" smooth="yes"/>
      <point x="973" y="1088"/>
      <point x="1010" y="862"/>
      <point x="969" y="611" type="curve" smooth="yes"/>
      <point x="909" y="253"/>
      <point x="719" y="26"/>
      <point x="471" y="26" type="curve" smooth="yes"/>
      <point x="284" y="26"/>
      <point x="178" y="156"/>
      <point x="221" y="417" type="curve" smooth="yes"/>
      <point x="336" y="1117" type="line"/>
      <point x="291" y="1117" type="line"/>
      <point x="175" y="423" type="line" smooth="yes"/>
      <point x="126" y="139"/>
      <point x="250" y="-20"/>
    </contour>
  </outline>
</glyph>
<glyph name="zretroflexhook" format="2">
  <advance height="2479" width="1105"/>
  <unicode hex="0290"/>
  <anchor x="410" y="0" name="bottom"/>
  <anchor x="521" y="559" name="cross"/>
  <anchor x="643" y="1303" name="top"/>
  <outline>
    <contour>
      <point x="774" y="0" type="line"/>
      <point x="739" y="-205" type="line" smooth="yes"/>
      <point x="716" y="-341"/>
      <point x="764" y="-416"/>
      <point x="895" y="-416" type="curve"/>
      <point x="920" y="-416"/>
      <point x="940" y="-413"/>
      <point x="961" y="-409" type="curve"/>
      <point x="969" y="-362" type="line"/>
      <point x="951" y="-367"/>
      <point x="932" y="-369"/>
      <point x="903" y="-369" type="curve"/>
      <point x="788" y="-369"/>
      <point x="766" y="-321"/>
      <point x="787" y="-198" type="curve" smooth="yes"/>
      <point x="820" y="0" type="line"/>
    </contour>
    <component base="z"/>
  </outline>
</glyph>
<glyph name="zcurl" format="2">
  <advance height="2479" width="1161"/>
  <unicode hex="0291"/>
  <outline>
    <contour>
      <point x="609" y="0" type="line"/>
      <point x="774" y="0" type="line"/>
      <point x="915" y="0"/>
      <point x="1042" y="100"/>
      <point x="1062" y="227" type="curve" smooth="yes"/>
      <point x="1081" y="352"/>
      <point x="989" y="454"/>
      <point x="844" y="454" type="curve" smooth="yes"/>
      <point x="713" y="454"/>
      <point x="595" y="372"/>
      <point x="415" y="144" type="curve" smooth="yes"/>
      <point x="207" y="-119" type="line"/>
      <point x="244" y="-143" type="line"/>
      <point x="452" y="121" type="line" smooth="yes"/>
      <point x="620" y="334"/>
      <point x="730" y="407"/>
      <point x="844" y="407" type="curve" smooth="yes"/>
      <point x="961" y="407"/>
      <point x="1033" y="325"/>
      <point x="1015" y="227" type="curve" smooth="yes"/>
      <point x="996" y="127"/>
      <point x="889" y="47"/>
      <point x="774" y="47" type="curve"/>
      <point x="614" y="47" type="line"/>
    </contour>
    <contour>
      <point x="727" y="47" type="line"/>
      <point x="131" y="47" type="line"/>
      <point x="969" y="1071" type="line"/>
      <point x="977" y="1117" type="line"/>
      <point x="294" y="1117" type="line"/>
      <point x="285" y="1071" type="line"/>
      <point x="913" y="1071" type="line"/>
      <point x="73" y="47" type="line"/>
      <point x="64" y="0" type="line"/>
      <point x="719" y="0" type="line"/>
    </contour>
  </outline>
</glyph>
<glyph name="glottalstop" format="2">
  <advance height="2479" width="1130"/>
  <unicode hex="0294"/>
  <anchor x="476" y="230" name="cross"/>
  <outline>
    <contour>
      <point x="515" y="458" type="line"/>
      <point x="797" y="458"/>
      <point x="1017" y="668"/>
      <point x="1071" y="991" type="curve" smooth="yes"/>
      <point x="1123" y="1311"/>
      <point x="978" y="1524"/>
      <point x="704" y="1524" type="curve" smooth="yes"/>
      <point x="490" y="1524"/>
      <point x="304" y="1389"/>
      <point x="234" y="1181" type="curve"/>
      <point x="284" y="1181" type="line"/>
      <point x="344" y="1360"/>
      <point x="510" y="1478"/>
      <point x="701" y="1478" type="curve" smooth="yes"/>
      <point x="944" y="1478"/>
      <point x="1072" y="1285"/>
      <point x="1024" y="996" type="curve" smooth="yes"/>
      <point x="976" y="698"/>
      <point x="775" y="505"/>
      <point x="520" y="505" type="curve"/>
    </contour>
    <contour>
      <point x="415" y="0" type="line"/>
      <point x="461" y="0" type="line"/>
      <point x="544" y="505" type="line"/>
      <point x="498" y="505" type="line"/>
    </contour>
  </outline>
</glyph>
<glyph name="glottalstopinverted" format="2">
  <advance height="2479" width="1129"/>
  <unicode hex="0296"/>
  <anchor x="649" y="1274" name="cross"/>
  <outline>
    <contour>
      <point x="454" y="-23" type="curve" smooth="yes"/>
      <point x="724" y="-23"/>
      <point x="937" y="188"/>
      <point x="989" y="505" type="curve" smooth="yes"/>
      <point x="1043" y="831"/>
      <point x="891" y="1043"/>
      <point x="608" y="1043" type="curve"/>
      <point x="604" y="996" type="line"/>
      <point x="858" y="996"/>
      <point x="993" y="806"/>
      <point x="944" y="511" type="curve" smooth="yes"/>
      <point x="896" y="219"/>
      <point x="701" y="23"/>
      <point x="454" y="23" type="curve" smooth="yes"/>
      <point x="266" y="23"/>
      <point x="142" y="141"/>
      <point x="141" y="320" type="curve"/>
      <point x="92" y="320" type="line"/>
      <point x="93" y="113"/>
      <point x="236" y="-23"/>
    </contour>
    <contour>
      <point x="579" y="996" type="line"/>
      <point x="626" y="996" type="line"/>
      <point x="712" y="1510" type="line"/>
      <point x="665" y="1510" type="line"/>
    </contour>
  </outline>
</glyph>
<glyph name="eopenclosed" format="2">
  <advance height="2479" width="1012"/>
  <unicode hex="029A"/>
  <outline>
    <contour>
      <point x="388" y="-20" type="curve" smooth="yes"/>
      <point x="683" y="-20"/>
      <point x="871" y="206"/>
      <point x="927" y="559" type="curve"/>
      <point x="880" y="559" type="line"/>
      <point x="829" y="238"/>
      <point x="660" y="26"/>
      <point x="397" y="26" type="curve" smooth="yes"/>
      <point x="204" y="26"/>
      <point x="79" y="130"/>
      <point x="103" y="282" type="curve" smooth="yes"/>
      <point x="127" y="436"/>
      <point x="286" y="554"/>
      <point x="470" y="554" type="curve" smooth="yes"/>
      <point x="580" y="554" type="line"/>
      <point x="588" y="601" type="line"/>
      <point x="509" y="601" type="line"/>
      <point x="266" y="600"/>
      <point x="87" y="479"/>
      <point x="58" y="295" type="curve" smooth="yes"/>
      <point x="28" y="110"/>
      <point x="170" y="-20"/>
    </contour>
    <contour>
      <point x="502" y="554" type="curve"/>
      <point x="580" y="554" type="line"/>
      <point x="588" y="601" type="line"/>
      <point x="477" y="601" type="line" smooth="yes"/>
      <point x="291" y="601"/>
      <point x="191" y="691"/>
      <point x="218" y="835" type="curve" smooth="yes"/>
      <point x="245" y="989"/>
      <point x="388" y="1085"/>
      <point x="573" y="1085" type="curve" smooth="yes"/>
      <point x="843" y="1085"/>
      <point x="933" y="872"/>
      <point x="880" y="559" type="curve"/>
      <point x="927" y="559" type="line"/>
      <point x="984" y="896"/>
      <point x="873" y="1132"/>
      <point x="573" y="1132" type="curve" smooth="yes"/>
      <point x="364" y="1132"/>
      <point x="201" y="1017"/>
      <point x="172" y="839" type="curve" smooth="yes"/>
      <point x="141" y="665"/>
      <point x="269" y="554"/>
    </contour>
  </outline>
</glyph>
<glyph name="Lsmall" format="2">
  <advance height="2479" width="936"/>
  <unicode hex="029F"/>
  <outline>
    <contour>
      <point x="111" y="0" type="line"/>
      <point x="716" y="0" type="line"/>
      <point x="724" y="47" type="line"/>
      <point x="166" y="47" type="line"/>
      <point x="343" y="1117" type="line"/>
      <point x="297" y="1117" type="line"/>
    </contour>
  </outline>
</glyph>
<glyph name="tesh" format="2">
  <advance height="2479" width="986"/>
  <unicode hex="02A7"/>
  <anchor x="343" y="0" name="bottom"/>
  <anchor x="367" y="0" name="cedilla"/>
  <anchor x="623" y="1562" name="raccent"/>
  <anchor x="445" y="1489" name="top"/>
  <outline>
    <contour>
      <point x="620" y="1117" type="line"/>
      <point x="620" y="1071" type="line"/>
      <point x="705" y="1071" type="line"/>
      <point x="705" y="1117" type="line"/>
    </contour>
    <contour>
      <point x="436" y="26" type="curve"/>
      <point x="428" y="-20" type="line"/>
      <point x="463" y="-20"/>
      <point x="489" y="-15"/>
      <point x="521" y="-3" type="curve"/>
      <point x="515" y="41" type="line"/>
      <point x="486" y="32"/>
      <point x="463" y="26"/>
    </contour>
    <component base="t"/>
    <component base="esh" xOffset="330"/>
  </outline>
</glyph>
<glyph name="tccurl" format="2">
  <advance height="2479" width="1661"/>
  <unicode hex="02A8"/>
  <outline>
    <contour>
      <point x="640" y="1117" type="line"/>
      <point x="198" y="1117" type="line"/>
      <point x="189" y="1071" type="line"/>
      <point x="631" y="1071" type="line"/>
    </contour>
    <contour>
      <point x="404" y="1385" type="line"/>
      <point x="215" y="236" type="line" smooth="yes"/>
      <point x="192" y="93"/>
      <point x="288" y="-20"/>
      <point x="433" y="-20" type="curve" smooth="yes"/>
      <point x="585" y="-20"/>
      <point x="704" y="102"/>
      <point x="815" y="218" type="curve" smooth="yes"/>
      <point x="931" y="340"/>
      <point x="1044" y="454"/>
      <point x="1184" y="454" type="curve" smooth="yes"/>
      <point x="1309" y="454"/>
      <point x="1393" y="361"/>
      <point x="1373" y="244" type="curve" smooth="yes"/>
      <point x="1353" y="119"/>
      <point x="1216" y="23"/>
      <point x="1053" y="23" type="curve" smooth="yes"/>
      <point x="800" y="23"/>
      <point x="657" y="244"/>
      <point x="710" y="556" type="curve" smooth="yes"/>
      <point x="759" y="864"/>
      <point x="977" y="1088"/>
      <point x="1219" y="1088" type="curve" smooth="yes"/>
      <point x="1396" y="1088"/>
      <point x="1519" y="969"/>
      <point x="1519" y="791" type="curve"/>
      <point x="1568" y="791" type="line"/>
      <point x="1568" y="992"/>
      <point x="1428" y="1135"/>
      <point x="1228" y="1135" type="curve" smooth="yes"/>
      <point x="957" y="1135"/>
      <point x="719" y="887"/>
      <point x="663" y="556" type="curve" smooth="yes"/>
      <point x="608" y="221"/>
      <point x="765" y="-23"/>
      <point x="1044" y="-23" type="curve" smooth="yes"/>
      <point x="1233" y="-23"/>
      <point x="1393" y="90"/>
      <point x="1420" y="244" type="curve" smooth="yes"/>
      <point x="1443" y="387"/>
      <point x="1344" y="500"/>
      <point x="1193" y="500" type="curve" smooth="yes"/>
      <point x="1030" y="500"/>
      <point x="899" y="369"/>
      <point x="783" y="247" type="curve" smooth="yes"/>
      <point x="672" y="131"/>
      <point x="570" y="26"/>
      <point x="442" y="26" type="curve" smooth="yes"/>
      <point x="320" y="26"/>
      <point x="241" y="119"/>
      <point x="262" y="236" type="curve" smooth="yes"/>
      <point x="451" y="1385" type="line"/>
    </contour>
  </outline>
</glyph>
<glyph name="bilabialpercussive" format="2">
  <advance height="2479" width="623"/>
  <unicode hex="02AC"/>
  <outline>
    <contour>
      <point x="192" y="916" type="line"/>
      <point x="188" y="873" type="line"/>
      <point x="223" y="873" type="line"/>
      <point x="454" y="1379" type="line"/>
      <point x="465" y="1457" type="line"/>
      <point x="439" y="1457" type="line"/>
    </contour>
    <contour>
      <point x="148" y="1457" type="line"/>
      <point x="102" y="1457" type="line"/>
      <point x="167" y="873" type="line"/>
      <point x="204" y="873" type="line"/>
      <point x="209" y="916" type="line"/>
    </contour>
    <contour>
      <point x="529" y="916" type="line"/>
      <point x="524" y="873" type="line"/>
      <point x="560" y="873" type="line"/>
      <point x="820" y="1457" type="line"/>
      <point x="769" y="1457" type="line"/>
    </contour>
    <contour>
      <point x="483" y="1457" type="line"/>
      <point x="458" y="1457" type="line"/>
      <point x="447" y="1379" type="line"/>
      <point x="505" y="873" type="line"/>
      <point x="541" y="873" type="line"/>
      <point x="547" y="916" type="line"/>
    </contour>
    <contour>
      <point x="48" y="44" type="line"/>
      <point x="44" y="0" type="line"/>
      <point x="79" y="0" type="line"/>
      <point x="310" y="506" type="line"/>
      <point x="321" y="585" type="line"/>
      <point x="295" y="585" type="line"/>
    </contour>
    <contour>
      <point x="4" y="585" type="line"/>
      <point x="-42" y="585" type="line"/>
      <point x="23" y="0" type="line"/>
      <point x="60" y="0" type="line"/>
      <point x="65" y="44" type="line"/>
    </contour>
    <contour>
      <point x="385" y="44" type="line"/>
      <point x="380" y="0" type="line"/>
      <point x="416" y="0" type="line"/>
      <point x="676" y="585" type="line"/>
      <point x="625" y="585" type="line"/>
    </contour>
    <contour>
      <point x="339" y="585" type="line"/>
      <point x="314" y="585" type="line"/>
      <point x="303" y="506" type="line"/>
      <point x="361" y="0" type="line"/>
      <point x="397" y="0" type="line"/>
      <point x="403" y="44" type="line"/>
    </contour>
  </outline>
</glyph>
<glyph name="bidentalpercussive" format="2">
  <advance height="2479" width="1190"/>
  <unicode hex="02AD"/>
  <outline>
    <contour>
      <point x="961" y="583" type="line"/>
      <point x="237" y="583" type="line"/>
      <point x="230" y="537" type="line"/>
      <point x="954" y="537" type="line"/>
    </contour>
    <contour>
      <point x="260" y="583" type="line"/>
      <point x="214" y="583" type="line"/>
      <point x="118" y="1" type="line"/>
      <point x="164" y="1" type="line"/>
    </contour>
    <contour>
      <point x="993" y="583" type="line"/>
      <point x="947" y="583" type="line"/>
      <point x="851" y="1" type="line"/>
      <point x="897" y="1" type="line"/>
    </contour>
    <contour>
      <point x="1107" y="1456" type="line"/>
      <point x="383" y="1456" type="line"/>
      <point x="374" y="1409" type="line"/>
      <point x="1098" y="1409" type="line"/>
    </contour>
    <contour>
      <point x="406" y="1456" type="line"/>
      <point x="359" y="1456" type="line"/>
      <point x="263" y="880" type="line"/>
      <point x="310" y="880" type="line"/>
    </contour>
    <contour>
      <point x="1139" y="1456" type="line"/>
      <point x="1092" y="1456" type="line"/>
      <point x="996" y="880" type="line"/>
      <point x="1043" y="880" type="line"/>
    </contour>
  </outline>
</glyph>
<glyph name="hmod" format="2">
  <advance height="2479" width="781"/>
  <unicode hex="02B0"/>
  <outline>
    <contour>
      <point x="282" y="1236" type="line" smooth="yes"/>
      <point x="303" y="1364"/>
      <point x="416" y="1455"/>
      <point x="544" y="1455" type="curve" smooth="yes"/>
      <point x="681" y="1455"/>
      <point x="739" y="1359"/>
      <point x="719" y="1239" type="curve" smooth="yes"/>
      <point x="637" y="745" type="line"/>
      <point x="684" y="745" type="line"/>
      <point x="765" y="1239" type="line" smooth="yes"/>
      <point x="791" y="1396"/>
      <point x="707" y="1498"/>
      <point x="553" y="1498" type="curve" smooth="yes"/>
      <point x="451" y="1498"/>
      <point x="358" y="1449"/>
      <point x="311" y="1370" type="curve"/>
      <point x="305" y="1370" type="line"/>
      <point x="367" y="1737" type="line"/>
      <point x="323" y="1737" type="line"/>
      <point x="157" y="745" type="line"/>
      <point x="201" y="745" type="line"/>
    </contour>
  </outline>
</glyph>
<glyph name="hhookmod" format="2">
  <advance height="2479" width="801"/>
  <unicode hex="02B1"/>
  <outline>
    <contour>
      <point x="362" y="1649" type="line" smooth="yes"/>
      <point x="377" y="1737"/>
      <point x="399" y="1760"/>
      <point x="457" y="1760" type="curve" smooth="yes"/>
      <point x="478" y="1760"/>
      <point x="495" y="1757"/>
      <point x="518" y="1751" type="curve"/>
      <point x="527" y="1798" type="line"/>
      <point x="503" y="1804"/>
      <point x="487" y="1807"/>
      <point x="465" y="1807" type="curve" smooth="yes"/>
      <point x="375" y="1807"/>
      <point x="338" y="1769"/>
      <point x="319" y="1649" type="curve" smooth="yes"/>
      <point x="154" y="655" type="line"/>
      <point x="196" y="655" type="line"/>
    </contour>
    <contour>
      <point x="279" y="1190" type="line"/>
      <point x="296" y="1289"/>
      <point x="417" y="1423"/>
      <point x="560" y="1423" type="curve" smooth="yes"/>
      <point x="675" y="1423"/>
      <point x="745" y="1335"/>
      <point x="724" y="1207" type="curve" smooth="yes"/>
      <point x="633" y="655" type="line"/>
      <point x="679" y="655" type="line"/>
      <point x="771" y="1207" type="line" smooth="yes"/>
      <point x="796" y="1361"/>
      <point x="711" y="1466"/>
      <point x="573" y="1466" type="curve" smooth="yes"/>
      <point x="457" y="1466"/>
      <point x="289" y="1388"/>
      <point x="256" y="1190" type="curve"/>
    </contour>
  </outline>
</glyph>
<glyph name="rhookturnedmod" format="2">
  <advance height="2479" width="689"/>
  <unicode hex="02B5"/>
  <outline>
    <contour>
      <point x="137" y="679" type="line"/>
      <point x="157" y="676"/>
      <point x="174" y="675"/>
      <point x="191" y="675" type="curve" smooth="yes"/>
      <point x="297" y="675"/>
      <point x="377" y="726"/>
      <point x="431" y="823" type="curve"/>
      <point x="438" y="906" type="line"/>
      <point x="397" y="798"/>
      <point x="299" y="721"/>
      <point x="192" y="721" type="curve" smooth="yes"/>
      <point x="177" y="721"/>
      <point x="161" y="723"/>
      <point x="145" y="727" type="curve"/>
    </contour>
    <contour>
      <point x="543" y="335" type="curve"/>
      <point x="550" y="381" type="line"/>
      <point x="532" y="377"/>
      <point x="514" y="375"/>
      <point x="495" y="375" type="curve" smooth="yes"/>
      <point x="428" y="375"/>
      <point x="399" y="393"/>
      <point x="415" y="492" type="curve" smooth="yes"/>
      <point x="570" y="1446" type="line"/>
      <point x="527" y="1446" type="line"/>
      <point x="368" y="492" type="line" smooth="yes"/>
      <point x="348" y="375"/>
      <point x="402" y="329"/>
      <point x="490" y="329" type="curve" smooth="yes"/>
      <point x="507" y="329"/>
      <point x="524" y="330"/>
    </contour>
  </outline>
</glyph>
<glyph name="wmod" format="2">
  <advance height="2479" width="1085"/>
  <unicode hex="02B7"/>
  <outline>
    <contour>
      <point x="320" y="745" type="line"/>
      <point x="372" y="745" type="line"/>
      <point x="681" y="1411" type="line"/>
      <point x="684" y="1411" type="line"/>
      <point x="771" y="745" type="line"/>
      <point x="826" y="745" type="line"/>
      <point x="1172" y="1489" type="line"/>
      <point x="1123" y="1489" type="line"/>
      <point x="812" y="809" type="line"/>
      <point x="806" y="809" type="line"/>
      <point x="719" y="1489" type="line"/>
      <point x="672" y="1489" type="line"/>
      <point x="358" y="809" type="line"/>
      <point x="355" y="809" type="line"/>
      <point x="268" y="1489" type="line"/>
      <point x="221" y="1489" type="line"/>
    </contour>
  </outline>
</glyph>
<glyph name="ymod" format="2">
  <advance height="2479" width="724"/>
  <unicode hex="02B8"/>
  <outline>
    <contour>
      <point x="145" y="451" type="curve" smooth="yes"/>
      <point x="224" y="451"/>
      <point x="291" y="500"/>
      <point x="343" y="599" type="curve" smooth="yes"/>
      <point x="812" y="1489" type="line"/>
      <point x="759" y="1489" type="line"/>
      <point x="401" y="803" type="line"/>
      <point x="399" y="803" type="line"/>
      <point x="268" y="1489" type="line"/>
      <point x="221" y="1489" type="line"/>
      <point x="367" y="733" type="line"/>
      <point x="305" y="617" type="line" smooth="yes"/>
      <point x="244" y="503"/>
      <point x="175" y="471"/>
      <point x="87" y="509" type="curve"/>
      <point x="67" y="468" type="line"/>
      <point x="90" y="457"/>
      <point x="125" y="451"/>
    </contour>
  </outline>
</glyph>
<glyph name="commaturnedmod" format="2">
  <advance height="2479" width="487"/>
  <unicode hex="02BB"/>
  <outline>
    <contour>
      <point x="239" y="993" type="line"/>
      <point x="285" y="993" type="line"/>
      <point x="311" y="1149" type="line" smooth="yes"/>
      <point x="338" y="1310"/>
      <point x="421" y="1423"/>
      <point x="535" y="1524" type="curve"/>
      <point x="515" y="1558" type="line"/>
      <point x="380" y="1444"/>
      <point x="292" y="1315"/>
      <point x="263" y="1143" type="curve" smooth="yes"/>
    </contour>
  </outline>
</glyph>
<glyph name="glottalstopreversedmod" format="2">
  <advance height="2479" width="742"/>
  <unicode hex="02C1"/>
  <outline>
    <contour>
      <point x="803" y="1539" type="line"/>
      <point x="806" y="1697"/>
      <point x="709" y="1808"/>
      <point x="550" y="1807" type="curve" smooth="yes"/>
      <point x="396" y="1805"/>
      <point x="291" y="1702"/>
      <point x="260" y="1511" type="curve" smooth="yes"/>
      <point x="223" y="1280" type="line" smooth="yes"/>
      <point x="189" y="1086"/>
      <point x="257" y="987"/>
      <point x="422" y="986" type="curve"/>
      <point x="426" y="986" type="line"/>
      <point x="433" y="1033" type="line"/>
      <point x="428" y="1033" type="line"/>
      <point x="292" y="1031"/>
      <point x="243" y="1105"/>
      <point x="268" y="1274" type="curve" smooth="yes"/>
      <point x="307" y="1519" type="line" smooth="yes"/>
      <point x="333" y="1672"/>
      <point x="423" y="1760"/>
      <point x="554" y="1760" type="curve" smooth="yes"/>
      <point x="681" y="1760"/>
      <point x="758" y="1675"/>
      <point x="756" y="1539" type="curve"/>
    </contour>
    <contour>
      <point x="401" y="1033" type="line"/>
      <point x="339" y="652" type="line"/>
      <point x="385" y="652" type="line"/>
      <point x="448" y="1033" type="line"/>
    </contour>
  </outline>
</glyph>
<glyph name="verticallinemod" format="2">
  <advance height="2479" width="244"/>
  <unicode hex="02C8"/>
  <outline>
    <contour>
      <point x="310" y="1542" type="line"/>
      <point x="263" y="1542" type="line"/>
      <point x="199" y="1164" type="line"/>
      <point x="246" y="1164" type="line"/>
    </contour>
  </outline>
</glyph>
<glyph name="verticallinelowmod" format="2">
  <advance height="2479" width="244"/>
  <unicode hex="02CC"/>
  <outline>
    <contour>
      <point x="45" y="-49" type="line"/>
      <point x="-1" y="-49" type="line"/>
      <point x="-65" y="-439" type="line"/>
      <point x="-19" y="-439" type="line"/>
    </contour>
  </outline>
</glyph>
<glyph name="colontriangularmod" format="2">
  <advance height="2479" width="487"/>
  <unicode hex="02D0"/>
  <outline>
    <contour>
      <point x="230" y="1082" type="line"/>
      <point x="297" y="913" type="line"/>
      <point x="314" y="913" type="line"/>
      <point x="439" y="1082" type="line"/>
    </contour>
    <contour>
      <point x="49" y="0" type="line"/>
      <point x="259" y="0" type="line"/>
      <point x="192" y="172" type="line"/>
      <point x="175" y="172" type="line"/>
    </contour>
  </outline>
</glyph>
<glyph name="minusmod" format="2">
  <advance height="2479" width="332"/>
  <unicode hex="02D7"/>
  <outline>
    <contour>
      <point x="-48" y="364" type="line"/>
      <point x="-57" y="317" type="line"/>
      <point x="304" y="317" type="line"/>
      <point x="313" y="364" type="line"/>
    </contour>
  </outline>
</glyph>
<glyph name="ring" format="2">
  <advance height="2479" width="489"/>
  <unicode hex="02DA"/>
  <anchor x="369" y="1303" name="_top"/>
  <outline>
    <contour>
      <point x="369" y="1257" type="curve" smooth="yes"/>
      <point x="463" y="1257"/>
      <point x="544" y="1329"/>
      <point x="553" y="1423" type="curve" smooth="yes"/>
      <point x="561" y="1516"/>
      <point x="500" y="1588"/>
      <point x="407" y="1588" type="curve" smooth="yes"/>
      <point x="314" y="1588"/>
      <point x="233" y="1516"/>
      <point x="221" y="1423" type="curve" smooth="yes"/>
      <point x="209" y="1329"/>
      <point x="276" y="1257"/>
    </contour>
    <contour>
      <point x="375" y="1303" type="curve" smooth="yes"/>
      <point x="308" y="1303"/>
      <point x="262" y="1356"/>
      <point x="268" y="1423" type="curve" smooth="yes"/>
      <point x="273" y="1489"/>
      <point x="335" y="1542"/>
      <point x="401" y="1542" type="curve" smooth="yes"/>
      <point x="468" y="1542"/>
      <point x="515" y="1489"/>
      <point x="506" y="1423" type="curve" smooth="yes"/>
      <point x="497" y="1356"/>
      <point x="442" y="1303"/>
    </contour>
  </outline>
</glyph>
<glyph name="ogonek" format="2">
  <advance height="2479" width="492"/>
  <unicode hex="02DB"/>
  <anchor x="179" y="0" name="_ogonek"/>
  <outline>
    <contour>
      <point x="74" y="-442" type="curve" smooth="yes"/>
      <point x="126" y="-442"/>
      <point x="164" y="-428"/>
      <point x="212" y="-396" type="curve"/>
      <point x="189" y="-356" type="line"/>
      <point x="152" y="-381"/>
      <point x="123" y="-396"/>
      <point x="71" y="-396" type="curve" smooth="yes"/>
      <point x="-4" y="-396"/>
      <point x="-39" y="-362"/>
      <point x="-26" y="-272" type="curve" smooth="yes"/>
      <point x="-12" y="-174"/>
      <point x="63" y="-100"/>
      <point x="179" y="0" type="curve"/>
      <point x="132" y="0" type="line"/>
      <point x="23" y="-90"/>
      <point x="-54" y="-168"/>
      <point x="-73" y="-272" type="curve" smooth="yes"/>
      <point x="-93" y="-385"/>
      <point x="-28" y="-442"/>
    </contour>
  </outline>
</glyph>
<glyph name="hungarumlaut" format="2">
  <advance height="2479" width="564"/>
  <unicode hex="02DD"/>
  <anchor x="451" y="1292" name="_top"/>
  <anchor x="500" y="1603" name="mkmktop_acc"/>
  <outline>
    <contour>
      <point x="493" y="1222" type="line"/>
      <point x="547" y="1222" type="line"/>
      <point x="873" y="1536" type="line"/>
      <point x="807" y="1536" type="line"/>
    </contour>
    <contour>
      <point x="279" y="1222" type="line"/>
      <point x="333" y="1222" type="line"/>
      <point x="601" y="1536" type="line"/>
      <point x="535" y="1536" type="line"/>
    </contour>
  </outline>
</glyph>
<glyph name="glottalstopreversedsuperior" format="2">
  <advance height="2479" width="793"/>
  <unicode hex="02E4"/>
  <outline>
    <contour>
      <point x="790" y="1178" type="curve"/>
      <point x="836" y="1178" type="line"/>
      <point x="844" y="1359"/>
      <point x="739" y="1466"/>
      <point x="554" y="1466" type="curve" smooth="yes"/>
      <point x="343" y="1466"/>
      <point x="190" y="1340"/>
      <point x="156" y="1130" type="curve" smooth="yes"/>
      <point x="123" y="939"/>
      <point x="236" y="809"/>
      <point x="426" y="810" type="curve"/>
      <point x="444" y="810" type="line"/>
      <point x="451" y="855" type="line" name="hr00"/>
      <point x="442" y="855" type="line"/>
      <point x="263" y="854"/>
      <point x="172" y="954"/>
      <point x="202" y="1130" type="curve" smooth="yes"/>
      <point x="231" y="1306"/>
      <point x="368" y="1420"/>
      <point x="547" y="1420" type="curve" smooth="yes"/>
      <point x="713" y="1420"/>
      <point x="793" y="1340"/>
    </contour>
    <contour>
      <point x="426" y="652" type="line"/>
      <point x="460" y="855" type="line"/>
      <point x="413" y="855" type="line"/>
      <point x="380" y="652" type="line"/>
    </contour>
  </outline>
</glyph>
<glyph name="tonebarextrahighmod" format="2">
  <advance height="2479" width="676"/>
  <unicode hex="02E5"/>
  <outline>
    <contour>
      <point x="649" y="1457" type="line"/>
      <point x="602" y="1457" type="line"/>
      <point x="361" y="0" type="line"/>
      <point x="407" y="0" type="line"/>
    </contour>
    <contour>
      <point x="631" y="1457" type="line"/>
      <point x="323" y="1457" type="line"/>
      <point x="316" y="1411" type="line"/>
      <point x="624" y="1411" type="line"/>
    </contour>
  </outline>
</glyph>
<glyph name="voicingmod" format="2">
  <advance height="2479" width="694"/>
  <unicode hex="02EC"/>
  <outline>
    <contour>
      <point x="63" y="-131" type="line"/>
      <point x="16" y="-131" type="line"/>
      <point x="15" y="-140" type="line"/>
      <point x="159" y="-407" type="line"/>
      <point x="205" y="-407" type="line"/>
      <point x="454" y="-140" type="line"/>
      <point x="455" y="-131" type="line"/>
      <point x="399" y="-131" type="line"/>
      <point x="186" y="-361" type="line"/>
    </contour>
  </outline>
</glyph>
<glyph name="unaspiratedmod" format="2">
  <advance height="2479" width="846"/>
  <unicode hex="02ED"/>
  <outline>
    <contour>
      <point x="897" y="1484" type="line"/>
      <point x="260" y="1484" type="line"/>
      <point x="253" y="1437" type="line"/>
      <point x="890" y="1437" type="line"/>
    </contour>
    <contour>
      <point x="861" y="1265" type="line"/>
      <point x="224" y="1265" type="line"/>
      <point x="217" y="1219" type="line"/>
      <point x="854" y="1219" type="line"/>
    </contour>
  </outline>
</glyph>
<glyph name="doubleapostrophemod" format="2">
  <advance height="2479" width="846"/>
  <unicode hex="02EE"/>
  <outline>
    <contour>
      <point x="521" y="1559" type="line"/>
      <point x="474" y="1559" type="line"/>
      <point x="442" y="1359" type="line" smooth="yes"/>
      <point x="423" y="1242"/>
      <point x="332" y="1105"/>
      <point x="224" y="1027" type="curve"/>
      <point x="244" y="992" type="line"/>
      <point x="375" y="1085"/>
      <point x="470" y="1239"/>
      <point x="489" y="1359" type="curve" smooth="yes"/>
    </contour>
    <contour>
      <point x="820" y="1559" type="line"/>
      <point x="774" y="1559" type="line"/>
      <point x="742" y="1359" type="line" smooth="yes"/>
      <point x="723" y="1242"/>
      <point x="631" y="1105"/>
      <point x="524" y="1027" type="curve"/>
      <point x="544" y="992" type="line"/>
      <point x="675" y="1085"/>
      <point x="769" y="1239"/>
      <point x="788" y="1359" type="curve" smooth="yes"/>
    </contour>
  </outline>
</glyph>
<glyph name="lowdownarrowheadmod" format="2">
  <advance height="2479" width="668"/>
  <unicode hex="02EF"/>
  <outline>
    <contour>
      <point x="132" y="-538" type="line"/>
      <point x="173" y="-538" type="line"/>
      <point x="134" y="-387" type="line"/>
      <point x="35" y="-73" type="line"/>
      <point x="-13" y="-73" type="line"/>
    </contour>
    <contour>
      <point x="137" y="-538" type="line"/>
      <point x="179" y="-538" type="line"/>
      <point x="470" y="-73" type="line"/>
      <point x="416" y="-73" type="line"/>
      <point x="220" y="-387" type="line"/>
    </contour>
  </outline>
</glyph>
<glyph name="lowuparrowheadmod" format="2">
  <advance height="2479" width="668"/>
  <unicode hex="02F0"/>
  <outline>
    <contour>
      <point x="172" y="-227" type="line"/>
      <point x="246" y="-73" type="line"/>
      <point x="204" y="-73" type="line"/>
      <point x="-54" y="-538" type="line"/>
      <point x="-1" y="-538" type="line"/>
    </contour>
    <contour>
      <point x="298" y="-538" type="line"/>
      <point x="345" y="-538" type="line"/>
      <point x="250" y="-73" type="line"/>
      <point x="212" y="-73" type="line"/>
      <point x="236" y="-227" type="line"/>
    </contour>
  </outline>
</glyph>
<glyph name="lowrightarrowheadmod" format="2">
  <advance height="2479" width="668"/>
  <unicode hex="02F2"/>
  <outline>
    <contour>
      <point x="-68" y="-505" type="line"/>
      <point x="422" y="-335" type="line"/>
      <point x="428" y="-294" type="line"/>
      <point x="266" y="-340" type="line"/>
      <point x="-61" y="-454" type="line"/>
    </contour>
    <contour>
      <point x="423" y="-327" type="line"/>
      <point x="429" y="-288" type="line"/>
      <point x="-10" y="-106" type="line"/>
      <point x="-17" y="-153" type="line"/>
      <point x="276" y="-275" type="line"/>
    </contour>
  </outline>
</glyph>
<glyph name="endhightonemod" format="2">
  <advance height="2479" width="442"/>
  <unicode hex="02FA"/>
  <outline>
    <contour>
      <point x="433" y="1210" type="line"/>
      <point x="480" y="1210" type="line"/>
      <point x="534" y="1536" type="line"/>
      <point x="231" y="1536" type="line"/>
      <point x="224" y="1489" type="line"/>
      <point x="479" y="1489" type="line"/>
    </contour>
  </outline>
</glyph>
<glyph name="endlowtonemod" format="2">
  <advance height="2479" width="325"/>
  <unicode hex="02FC"/>
  <outline>
    <contour>
      <point x="111" y="-390" type="line"/>
      <point x="157" y="-390" type="line"/>
      <point x="207" y="-64" type="line"/>
      <point x="160" y="-64" type="line"/>
    </contour>
    <contour>
      <point x="-145" y="-390" type="line"/>
      <point x="157" y="-390" type="line"/>
      <point x="164" y="-343" type="line"/>
      <point x="-138" y="-343" type="line"/>
    </contour>
  </outline>
</glyph>
<glyph name="shelfmod" format="2">
  <advance height="2479" width="848"/>
  <unicode hex="02FD"/>
  <outline>
    <contour>
      <point x="484" y="-422" type="line"/>
      <point x="48" y="-422" type="line"/>
      <point x="41" y="-468" type="line"/>
      <point x="477" y="-468" type="line"/>
    </contour>
    <contour>
      <point x="99" y="-137" type="line"/>
      <point x="52" y="-137" type="line"/>
      <point x="0" y="-468" type="line"/>
      <point x="47" y="-468" type="line"/>
    </contour>
    <contour>
      <point x="561" y="-137" type="line"/>
      <point x="515" y="-137" type="line"/>
      <point x="463" y="-468" type="line"/>
      <point x="509" y="-468" type="line"/>
    </contour>
  </outline>
</glyph>
<glyph name="lowleftarrowmod" format="2">
  <advance height="2479" width="684"/>
  <unicode hex="02FF"/>
  <outline>
    <contour>
      <point x="605" y="-111" type="line"/>
      <point x="-99" y="-111" type="line"/>
      <point x="-105" y="-157" type="line"/>
      <point x="599" y="-157" type="line"/>
    </contour>
    <contour>
      <point x="191" y="169" type="line"/>
      <point x="-151" y="-134" type="line"/>
      <point x="-103" y="-153" type="line"/>
      <point x="260" y="169" type="line"/>
    </contour>
    <contour>
      <point x="160" y="-436" type="line"/>
      <point x="-112" y="-109" type="line"/>
      <point x="-151" y="-134" type="line"/>
      <point x="100" y="-436" type="line"/>
    </contour>
  </outline>
</glyph>
<glyph name="brevecomb" format="2">
  <advance height="2479"/>
  <unicode hex="0306"/>
  <outline>
    <contour>
      <point x="-249" y="1489" type="line"/>
      <point x="-262" y="1412"/>
      <point x="-310" y="1370"/>
      <point x="-385" y="1370" type="curve" smooth="yes"/>
      <point x="-461" y="1370"/>
      <point x="-495" y="1412"/>
      <point x="-481" y="1489" type="curve"/>
      <point x="-528" y="1489" type="line"/>
      <point x="-545" y="1388"/>
      <point x="-495" y="1324"/>
      <point x="-393" y="1324" type="curve" smooth="yes"/>
      <point x="-291" y="1324"/>
      <point x="-220" y="1388"/>
      <point x="-202" y="1489" type="curve"/>
    </contour>
  </outline>
</glyph>
<glyph name="dblgravecomb" format="2">
  <advance height="2479"/>
  <unicode hex="030F"/>
  <anchor x="-435" y="1303" name="_top"/>
  <outline>
    <contour>
      <point x="-529" y="1280" type="line"/>
      <point x="-483" y="1280" type="line"/>
      <point x="-647" y="1594" type="line"/>
      <point x="-707" y="1594" type="line"/>
    </contour>
    <contour>
      <point x="-369" y="1280" type="line"/>
      <point x="-323" y="1280" type="line"/>
      <point x="-445" y="1594" type="line"/>
      <point x="-502" y="1594" type="line"/>
    </contour>
  </outline>
</glyph>
<glyph name="candraBinducomb" format="2">
  <advance height="2479"/>
  <unicode hex="0310"/>
  <outline>
    <contour>
      <point x="-394" y="1324" type="curve" smooth="yes"/>
      <point x="-292" y="1324"/>
      <point x="-221" y="1388"/>
      <point x="-204" y="1489" type="curve"/>
      <point x="-250" y="1489" type="line"/>
      <point x="-263" y="1412"/>
      <point x="-311" y="1370"/>
      <point x="-387" y="1370" type="curve" smooth="yes"/>
      <point x="-463" y="1370"/>
      <point x="-496" y="1412"/>
      <point x="-483" y="1489" type="curve"/>
      <point x="-529" y="1489" type="line"/>
      <point x="-547" y="1388"/>
      <point x="-496" y="1324"/>
    </contour>
    <contour>
      <point x="-371" y="1446" type="curve" smooth="yes"/>
      <point x="-348" y="1446"/>
      <point x="-326" y="1466"/>
      <point x="-321" y="1487" type="curve" smooth="yes"/>
      <point x="-317" y="1516"/>
      <point x="-336" y="1539"/>
      <point x="-365" y="1539" type="curve" smooth="yes"/>
      <point x="-388" y="1539"/>
      <point x="-412" y="1519"/>
      <point x="-415" y="1498" type="curve" smooth="yes"/>
      <point x="-420" y="1469"/>
      <point x="-400" y="1446"/>
    </contour>
  </outline>
</glyph>
<glyph name="breveinvertedcomb" format="2">
  <advance height="2479"/>
  <unicode hex="0311"/>
  <anchor x="-471" y="1210" name="_top"/>
  <outline>
    <contour>
      <point x="-621" y="1286" type="curve"/>
      <point x="-575" y="1286" type="line"/>
      <point x="-562" y="1363"/>
      <point x="-514" y="1405"/>
      <point x="-438" y="1405" type="curve" smooth="yes"/>
      <point x="-363" y="1405"/>
      <point x="-329" y="1363"/>
      <point x="-342" y="1286" type="curve"/>
      <point x="-295" y="1286" type="line"/>
      <point x="-279" y="1388"/>
      <point x="-329" y="1452"/>
      <point x="-431" y="1452" type="curve" smooth="yes"/>
      <point x="-533" y="1452"/>
      <point x="-604" y="1388"/>
    </contour>
  </outline>
</glyph>
<glyph name="righttackbelowcomb" format="2">
  <advance height="2479"/>
  <unicode hex="0319"/>
  <anchor x="-673" y="0" name="_bottom"/>
  <outline>
    <contour>
      <point x="-876" y="-353" type="line"/>
      <point x="-829" y="-353" type="line"/>
      <point x="-781" y="-65" type="line"/>
      <point x="-828" y="-65" type="line"/>
    </contour>
    <contour>
      <point x="-855" y="-233" type="line"/>
      <point x="-567" y="-233" type="line"/>
      <point x="-560" y="-186" type="line"/>
      <point x="-848" y="-186" type="line"/>
    </contour>
  </outline>
</glyph>
<glyph name="leftangleabovecomb" format="2">
  <advance height="2479"/>
  <unicode hex="031A"/>
  <outline>
    <contour>
      <point x="-547" y="1612" type="line"/>
      <point x="29" y="1612" type="line"/>
      <point x="36" y="1658" type="line"/>
      <point x="-540" y="1658" type="line"/>
    </contour>
    <contour>
      <point x="-52" y="1283" type="line"/>
      <point x="-4" y="1283" type="line"/>
      <point x="57" y="1658" type="line"/>
      <point x="9" y="1658" type="line"/>
    </contour>
  </outline>
</glyph>
<glyph name="horncomb" format="2">
  <advance height="2479"/>
  <unicode hex="031B"/>
  <outline>
    <contour>
      <point x="3" y="1274" type="curve"/>
      <point x="-44" y="1274" type="line"/>
      <point x="-63" y="1144"/>
      <point x="-79" y="1103"/>
      <point x="-141" y="1015" type="curve"/>
      <point x="-119" y="995" type="line"/>
      <point x="-40" y="1071"/>
      <point x="-20" y="1116"/>
    </contour>
  </outline>
</glyph>
<glyph name="retroflexhookcomb" format="2">
  <advance height="2479"/>
  <unicode hex="0322"/>
  <outline>
    <contour>
      <point x="-259" y="-454" type="curve" smooth="yes"/>
      <point x="-241" y="-454"/>
      <point x="-221" y="-451"/>
      <point x="-209" y="-447" type="curve"/>
      <point x="-204" y="-406" type="line"/>
      <point x="-214" y="-409"/>
      <point x="-227" y="-410"/>
      <point x="-239" y="-410" type="curve" smooth="yes"/>
      <point x="-308" y="-410"/>
      <point x="-332" y="-364"/>
      <point x="-316" y="-265" type="curve" smooth="yes"/>
      <point x="-260" y="61" type="line"/>
      <point x="-307" y="61" type="line"/>
      <point x="-361" y="-265" type="line" smooth="yes"/>
      <point x="-381" y="-388"/>
      <point x="-345" y="-454"/>
    </contour>
  </outline>
</glyph>
<glyph name="dbllowlinecomb" format="2">
  <advance height="2479"/>
  <unicode hex="0333"/>
  <outline>
    <contour>
      <point x="-189" y="-127" type="line"/>
      <point x="-1073" y="-127" type="line"/>
      <point x="-1081" y="-173" type="line"/>
      <point x="-196" y="-173" type="line"/>
    </contour>
    <contour>
      <point x="-228" y="-365" type="line"/>
      <point x="-1113" y="-365" type="line"/>
      <point x="-1120" y="-412" type="line"/>
      <point x="-236" y="-412" type="line"/>
    </contour>
  </outline>
</glyph>
<glyph name="slashshortcomb" format="2">
  <advance height="2479"/>
  <unicode hex="0337"/>
  <outline>
    <contour>
      <point x="-77" y="1199" type="line"/>
      <point x="-138" y="1199" type="line"/>
      <point x="-999" y="-125" type="line"/>
      <point x="-938" y="-125" type="line"/>
    </contour>
  </outline>
</glyph>
<glyph name="slashlongcomb" format="2">
  <advance height="2479"/>
  <unicode hex="0338"/>
  <outline>
    <contour>
      <point x="223" y="1519" type="line"/>
      <point x="167" y="1519" type="line"/>
      <point x="-1136" y="-96" type="line"/>
      <point x="-1081" y="-96" type="line"/>
    </contour>
  </outline>
</glyph>
<glyph name="squarebelowcomb" format="2">
  <advance height="2479"/>
  <unicode hex="033B"/>
  <outline>
    <contour>
      <point x="-871" y="-454" type="line"/>
      <point x="-513" y="-454" type="line"/>
      <point x="-452" y="-81" type="line"/>
      <point x="-810" y="-81" type="line"/>
    </contour>
    <contour>
      <point x="-771" y="-128" type="line"/>
      <point x="-506" y="-128" type="line"/>
      <point x="-553" y="-407" type="line"/>
      <point x="-817" y="-407" type="line"/>
    </contour>
  </outline>
</glyph>
<glyph name="seagullbelowcomb" format="2">
  <advance height="2479"/>
  <unicode hex="033C"/>
  <outline>
    <contour>
      <point x="-639" y="-349" type="line"/>
      <point x="-625" y="-269"/>
      <point x="-572" y="-225"/>
      <point x="-490" y="-225" type="curve" smooth="yes"/>
      <point x="-410" y="-225"/>
      <point x="-369" y="-269"/>
      <point x="-383" y="-349" type="curve"/>
      <point x="-336" y="-349" type="line"/>
      <point x="-319" y="-244"/>
      <point x="-375" y="-179"/>
      <point x="-483" y="-179" type="curve" smooth="yes"/>
      <point x="-591" y="-179"/>
      <point x="-668" y="-244"/>
      <point x="-685" y="-349" type="curve"/>
    </contour>
    <contour>
      <point x="-941" y="-349" type="line"/>
      <point x="-928" y="-269"/>
      <point x="-874" y="-225"/>
      <point x="-793" y="-225" type="curve" smooth="yes"/>
      <point x="-713" y="-225"/>
      <point x="-672" y="-269"/>
      <point x="-685" y="-349" type="curve"/>
      <point x="-639" y="-349" type="line"/>
      <point x="-621" y="-244"/>
      <point x="-678" y="-179"/>
      <point x="-785" y="-179" type="curve" smooth="yes"/>
      <point x="-893" y="-179"/>
      <point x="-970" y="-244"/>
      <point x="-988" y="-349" type="curve"/>
    </contour>
  </outline>
</glyph>
<glyph name="xabovecomb" format="2">
  <advance height="2479"/>
  <unicode hex="033D"/>
  <outline>
    <contour>
      <point x="-441" y="1252" type="line"/>
      <point x="35" y="1679" type="line"/>
      <point x="9" y="1713" type="line"/>
      <point x="-470" y="1286" type="line"/>
    </contour>
    <contour>
      <point x="-63" y="1255" type="line"/>
      <point x="-25" y="1290" type="line"/>
      <point x="-359" y="1715" type="line"/>
      <point x="-403" y="1680" type="line"/>
    </contour>
  </outline>
</glyph>
<glyph name="tildeverticalcomb" format="2">
  <advance height="2479"/>
  <unicode hex="033E"/>
  <outline>
    <contour>
      <point x="-519" y="1145" type="line"/>
      <point x="-447" y="1158"/>
      <point x="-376" y="1208"/>
      <point x="-364" y="1280" type="curve" smooth="yes"/>
      <point x="-349" y="1367"/>
      <point x="-432" y="1415"/>
      <point x="-420" y="1479" type="curve" smooth="yes"/>
      <point x="-412" y="1524"/>
      <point x="-361" y="1556"/>
      <point x="-323" y="1565" type="curve"/>
      <point x="-313" y="1612" type="line"/>
      <point x="-384" y="1599"/>
      <point x="-456" y="1548"/>
      <point x="-468" y="1475" type="curve" smooth="yes"/>
      <point x="-483" y="1390"/>
      <point x="-401" y="1341"/>
      <point x="-412" y="1277" type="curve" smooth="yes"/>
      <point x="-420" y="1231"/>
      <point x="-471" y="1200"/>
      <point x="-509" y="1191" type="curve"/>
    </contour>
  </outline>
</glyph>
<glyph name="ypogegrammenicomb" format="2">
  <advance height="2479"/>
  <unicode hex="0345"/>
  <outline>
    <contour>
      <point x="-657" y="-58" type="line"/>
      <point x="-705" y="-352" type="line" smooth="yes"/>
      <point x="-716" y="-418"/>
      <point x="-682" y="-465"/>
      <point x="-628" y="-465" type="curve" smooth="yes"/>
      <point x="-615" y="-465"/>
      <point x="-592" y="-463"/>
      <point x="-582" y="-460" type="curve"/>
      <point x="-586" y="-415" type="line"/>
      <point x="-593" y="-417"/>
      <point x="-612" y="-419"/>
      <point x="-621" y="-419" type="curve" smooth="yes"/>
      <point x="-649" y="-419"/>
      <point x="-665" y="-392"/>
      <point x="-659" y="-352" type="curve" smooth="yes"/>
      <point x="-611" y="-58" type="line"/>
    </contour>
  </outline>
</glyph>
<glyph name="gbridgeabovecomb" format="2">
  <advance height="2479"/>
  <unicode hex="0346"/>
  <outline>
    <contour>
      <point x="-713" y="1231" type="line"/>
      <point x="-666" y="1231" type="line"/>
      <point x="-602" y="1615" type="line"/>
      <point x="-649" y="1615" type="line"/>
    </contour>
    <contour>
      <point x="-630" y="1568" type="line"/>
      <point x="-217" y="1568" type="line"/>
      <point x="-209" y="1615" type="line"/>
      <point x="-623" y="1615" type="line"/>
    </contour>
    <contour>
      <point x="-288" y="1231" type="line"/>
      <point x="-241" y="1231" type="line"/>
      <point x="-177" y="1615" type="line"/>
      <point x="-224" y="1615" type="line"/>
    </contour>
  </outline>
</glyph>
<glyph name="leftanglebelowcomb" format="2">
  <advance height="2479"/>
  <unicode hex="0349"/>
  <outline>
    <contour>
      <point x="-576" y="-509" type="line"/>
      <point x="-529" y="-509" type="line"/>
      <point x="-465" y="-143" type="line"/>
      <point x="-515" y="-143" type="line"/>
    </contour>
    <contour>
      <point x="-845" y="-189" type="line"/>
      <point x="-476" y="-189" type="line"/>
      <point x="-465" y="-143" type="line"/>
      <point x="-838" y="-143" type="line"/>
    </contour>
  </outline>
</glyph>
<glyph name="nottildeabovecomb" format="2">
  <advance height="2479"/>
  <unicode hex="034A"/>
  <outline>
    <contour>
      <point x="-256" y="1306" type="curve" smooth="yes"/>
      <point x="-169" y="1306"/>
      <point x="-76" y="1367"/>
      <point x="-41" y="1455" type="curve"/>
      <point x="-84" y="1466" type="line"/>
      <point x="-111" y="1399"/>
      <point x="-183" y="1353"/>
      <point x="-250" y="1353" type="curve" smooth="yes"/>
      <point x="-358" y="1353"/>
      <point x="-381" y="1472"/>
      <point x="-515" y="1472" type="curve" smooth="yes"/>
      <point x="-614" y="1472"/>
      <point x="-704" y="1408"/>
      <point x="-733" y="1318" type="curve"/>
      <point x="-687" y="1312" type="line"/>
      <point x="-666" y="1379"/>
      <point x="-599" y="1425"/>
      <point x="-524" y="1425" type="curve" smooth="yes"/>
      <point x="-399" y="1425"/>
      <point x="-381" y="1306"/>
    </contour>
    <contour>
      <point x="-487" y="1226" type="line"/>
      <point x="-234" y="1505" type="line"/>
      <point x="-263" y="1536" type="line"/>
      <point x="-516" y="1257" type="line"/>
    </contour>
  </outline>
</glyph>
